<?xml version="1.0" standalone="no"?>
<!DOCTYPE svg PUBLIC "-//W3C//DTD SVG 1.1//EN" "http://www.w3.org/Graphics/SVG/1.1/DTD/svg11.dtd">
<svg xmlns="http://www.w3.org/2000/svg">
<metadata>Copyright (C) 2017 by original authors @ fontello.com</metadata>
<defs>
<font id="fontello" horiz-adv-x="1000" >
<font-face font-family="fontello" font-weight="400" font-stretch="normal" units-per-em="1000" ascent="850" descent="-150" />
<missing-glyph horiz-adv-x="1000" />
<glyph glyph-name="facebook" unicode="&#xe800;" d="M750 707c0 0-143 0-143 0-7 0-17-5-25-15-6-10-10-24-10-37 0 0 0-102 0-102 0 0 178 0 178 0 0 0 0-148 0-148 0 0-178 0-178 0 0 0 0-442 0-442 0 0-170 0-170 0 0 0 0 442 0 442 0 0-152 0-152 0 0 0 0 148 0 148 0 0 152 0 152 0 0 0 0 86 0 86 0 63 20 115 59 158 39 43 88 65 146 65 0 0 143 0 143 0 0 0 0-155 0-155" horiz-adv-x="1000" />

<glyph glyph-name="pinterest" unicode="&#xe801;" d="M434 252c-18-86-37-156-57-211-21-54-55-97-98-129-4 49-6 90-6 120-1 31 2 68 10 111 10 43 16 76 24 104 6 27 15 60 25 99 10 39 20 72 24 98-16 35-22 74-18 117 2 43 18 78 47 105 29 28 62 36 99 20 26-10 41-29 43-59 4-29-2-60-11-95-12-34-24-69-34-102-9-35-11-64-3-90 7-27 29-43 64-49 45-9 84 2 119 38 37 35 61 78 74 130 16 53 18 108 12 164-6 55-25 98-55 127-41 43-91 67-150 71-59 4-113-8-162-33-51-26-90-65-121-118-31-52-41-109-31-170 2-13 9-31 21-52 12-20 20-35 22-47 1-10-4-33-18-67-98 24-145 100-141 231 4 92 39 170 106 234 68 63 144 102 232 112 110 11 207-8 291-57 84-51 131-123 145-219 17-117-6-224-67-318-62-94-146-137-252-129-15 2-29 6-43 10-13 4-23 9-29 13-6 4-17 10-31 20-14 10-24 17-31 21" horiz-adv-x="1000" />

<glyph glyph-name="linkedin" unicode="&#xe802;" d="M949 315l0-332-191 0 0 310c0 79-29 131-98 131-54 0-86-35-99-70-6-14-6-29-6-47l0-324-194 0c0 0 2 525 0 580l194 0 0-82c-2 0-2-2-2-2l2 0 0 2c25 39 70 96 174 96 127 0 220-84 220-262z m-789 527c-66 0-109-43-109-99 0-57 41-102 105-102l2 0c67 0 110 45 110 102-2 56-43 99-108 99z m-99-859l193 0 0 580-193 0z" horiz-adv-x="1000" />

<glyph glyph-name="right" unicode="&#xe803;" d="M248 854l-57-61 186-187 189-190-376-376 117-120 496 496-498 499z" horiz-adv-x="1000" />

<glyph glyph-name="ellipse" unicode="&#xe804;" d="M379 897c-82-20-162-66-231-133-199-199-199-502 0-701 200-199 502-199 702 0 199 199 199 502 0 701-127 127-299 176-471 133z m232-8c182-47 317-182 364-363 76-299-164-602-475-602-312 0-553 303-477 602 67 264 333 428 588 363z m-201-480l0-151 35 20c20 12 77 45 127 72 49 29 90 57 90 59 0 4-47 33-103 66-59 31-116 65-127 72l-22 12z m196 0c0-6-147-94-159-94-6 0-9 45-9 98l0 97 84-49c46-25 84-48 84-52z" horiz-adv-x="1000" />

<glyph glyph-name="plus" unicode="&#xe805;" d="M0 913l0-1001 1000 0 0 1001z m975-975l-950 0 0 949 950 0c0 0 0-949 0-949z m-485 146l20 0 0 338 336 0 0 18-336 0 0 336-20 0 0-336-336 0 0-18 336 0z" horiz-adv-x="1000" />

<glyph glyph-name="load-more" unicode="&#xe806;" d="M713 827c-59 56-129 86-211 86-84 0-156-28-215-84-60-57-90-125-90-206 0-82 30-150 88-208 59-57 131-86 215-86 84 0 156 29 215 86 58 56 88 126 88 208 0 79-31 147-90 204z m-55-358c-43-41-93-62-154-62-63 0-117 21-162 62-45 41-67 92-67 153 0 58 22 109 65 150 43 43 96 64 156 64 63 0 117-21 160-62 45-41 67-92 67-152 0-59-22-110-65-153z m-199-517c0 11 4 21 12 31 10 8 19 11 31 11 12 0 21-3 29-11 10-10 14-20 14-31 0-12-4-22-12-30-10-10-19-13-31-13-12 0-21 3-31 13-8 8-12 18-12 30" horiz-adv-x="1000" />

<glyph glyph-name="circle-phone" unicode="&#xe807;" d="M494 913c-271 0-494-223-494-495 0-273 223-496 494-496 18 0 31 14 31 31 0 16-13 30-31 30-238 0-433 195-433 435 0 239 195 434 433 434 240 0 436-195 436-434 0-101-55-199-131-242-27-15-57-23-90-23 20 12 37 27 49 47 2 4 6 7 8 11 9 24 9 51 15 77 8 31-140 93-152 54-6-15-14-62-22-74-9-12-29-6-42 4-34 29-71 72-104 105l0 0c-2 0-2 2-4 2 0 2-2 2-2 4-33 33-76 71-105 104-10 13-16 35-4 43 11 10 58 15 74 21 39 12-23 160-55 155-25-8-52-8-78-18-4-2-6-6-10-8-86-53-95-183-13-281 31-37 64-72 99-108l0 0c0-1 2-1 2-3 0 0 2-2 2-2l0 0c35-36 78-84 145-129 142-96 252-69 316-34 112 61 162 192 162 293 0 274-222 497-496 497z" horiz-adv-x="1000" />

<glyph glyph-name="down-open-big" unicode="&#xe808;" d="M131 633c0 0 369-357 369-357 0 0 371 357 371 357 16 18 31 18 49 0 18-15 18-31 0-49 0 0-397-392-397-392-13-14-29-14-46 0 0 0-397 392-397 392-17 18-17 34 0 49 16 16 33 16 51 0" horiz-adv-x="1000" />

<glyph glyph-name="up-open-big" unicode="&#xe809;" d="M871 192c0 0-371 359-371 359 0 0-369-359-369-359-18-14-35-14-51 0-15 17-15 33 0 51 0 0 397 390 397 390 17 18 33 18 46 0 0 0 397-390 397-390 16-18 16-34 0-51-18-14-33-14-49 0" horiz-adv-x="1000" />

<glyph glyph-name="comment" unicode="&#xe80a;" d="M0 913l0-696 193 0 0-297 297 297 512 0 0 696z m25-26l950 0 0-644-496 0-260-258 0 258-194 0z" horiz-adv-x="1000" />

<glyph glyph-name="menu" unicode="&#xe80b;" d="M0 686l0-55 1000 0 0 110-1000 0z m0-273l0-63 1000 0 0 125-1000 0z m0-274l0-55 1000 0 0 110-1000 0z" horiz-adv-x="1000" />

<glyph glyph-name="heart" unicode="&#xe80c;" d="M160 819c-88-47-140-119-154-217-14-111 17-164 271-414l219-219 236 238c247 247 274 297 252 418-37 196-279 290-437 166l-49-39-57 41c-82 61-197 71-281 26z m237-55c33-17 60-41 60-51 0-11 18-19 39-19 22 0 39 8 39 19 0 35 113 80 197 80 112 0 200-89 200-201 0-43-10-97-22-123-33-66-381-410-414-410-33 0-381 344-414 410-12 26-23 80-23 123 0 164 179 252 338 172z" horiz-adv-x="1000" />

<glyph glyph-name="heart-black" unicode="&#xe80d;" d="M80 754c-68-68-80-93-80-162 0-49 16-103 41-142 70-104 422-450 455-450 33 0 385 346 455 450 26 39 41 93 41 142 0 69-11 94-80 162-70 71-88 78-176 78-70 0-115-13-168-48l-72-47-72 47c-53 35-98 48-168 48-88 0-106-7-176-78z" horiz-adv-x="1000" />

<glyph glyph-name="video-player" unicode="&#xe80e;" d="M322 879c-174-62-322-273-322-463 0-257 238-496 496-496 121 0 252 59 346 151 373 371-22 984-520 808z m328-95c207-88 301-332 206-536-141-304-579-304-719 0-65 143-37 329 68 444 102 111 299 150 445 92z m-273-368c0-109 6-199 12-199 19 0 345 188 345 199 0 12-326 200-345 200-6 0-12-90-12-200z" horiz-adv-x="1000" />

<glyph glyph-name="cross" unicode="&#xe80f;" d="M29 873c-37-42-33-44 170-248l207-209-416-416 45-45 45-45 207 210 209 207 209-207 207-210 45 45 45 45-209 207-207 209 207 209 209 207-45 45-45 45-416-416-205 203c-111 112-207 204-213 204-6 0-29-18-49-40z" horiz-adv-x="1000" />

<glyph glyph-name="down" unicode="&#xe810;" d="M51 659l-51-53 250-248 250-250 250 250 250 248-51 53c-27 27-56 50-64 50-10 0-100-82-201-183l-184-184-184 184c-101 101-191 183-201 183-8 0-37-23-64-50z" horiz-adv-x="1000" />

<glyph glyph-name="pin" unicode="&#xe811;" d="M500 913c-205 0-373-168-373-373 0-307 336-606 350-620 7-6 15-8 23-8 8 0 16 2 23 8 14 14 350 313 350 620 0 205-168 373-373 373z m0-268c57 0 104-47 104-105 0-59-47-106-104-106-57 0-103 47-103 106 0 58 46 105 103 105z" horiz-adv-x="1000" />

<glyph glyph-name="full-screen" unicode="&#xe812;" d="M0 811c0-80 4-102 23-102 18 0 24 18 24 59l0 59 160-161c88-87 170-160 180-160 45 0 11 47-141 200l-160 160 59 0c41 0 58 6 58 23 0 20-21 24-101 24l-102 0z m797 78c0-17 18-23 59-23l58 0-160-160c-88-88-160-170-160-180 0-45 47-12 199 140l160 161 0-59c0-41 6-59 24-59 19 0 23 22 23 102l0 102-102 0c-80 0-101-4-101-24z m-590-730l-160-161 0 59c0 41-6 59-24 59-19 0-23-22-23-102l0-102 102 0c80 0 101 4 101 24 0 17-17 23-58 23l-59 0 160 161c88 87 160 170 160 179 0 45-49 10-199-140z m387 140c0-9 72-92 160-179l160-161-58 0c-41 0-59-6-59-23 0-20 21-24 101-24l102 0 0 102c0 80-4 102-23 102-18 0-24-18-24-59l0-59-160 161c-152 152-199 185-199 140z" horiz-adv-x="1000" />

<glyph glyph-name="triangle" unicode="&#xe813;" d="M246 420l-248-418 256-6c141-2 365-2 498 0l242 6-240 411c-135 226-248 414-250 418-6 3-121-180-258-411z m430-21c94-156 174-297 180-313 7-21-38-25-356-25-201 0-365 6-365 10 0 6 37 72 84 148 43 74 125 213 176 303 52 90 99 164 103 164 4 0 84-129 178-287z" horiz-adv-x="1000" />

<glyph glyph-name="search" unicode="&#xe814;" d="M434 883c-141-56-231-162-264-304-22-102 0-215 61-303l37-55-137-139c-104-103-133-142-119-156 19-19 109 47 234 178l70 70 69-39c189-105 447-31 556 162 81 147 75 293-23 438-102 150-318 215-484 148z m310-76c121-62 184-170 184-309 0-138-63-246-182-306-305-156-629 154-482 459 84 176 302 246 480 156z" horiz-adv-x="1000" />

<glyph glyph-name="search-button" unicode="&#xe815;" d="M313 879c-118-47-235-166-278-283-92-242 6-504 233-629 76-43 95-47 232-47 166 0 231 24 342 125 195 176 211 496 35 700-96 107-203 156-354 164-99 4-142-2-210-30z m369-45c140-60 246-195 269-347 41-250-127-487-377-526-154-25-306 28-408 139-90 98-119 176-119 313 0 136 29 214 119 312 72 78 127 109 240 133 102 21 186 14 276-24z m-287-253c-47-24-86-112-75-166 4-26 30-65 55-88 43-39 53-43 129-36 80 8 90 6 131-37 23-25 49-45 56-45 26 0 10 39-35 86-43 43-45 51-27 96 49 135-96 256-234 190z m189-94c37-102-55-188-154-147-90 37-94 168-4 205 64 28 139 0 158-58z" horiz-adv-x="1000" />

<glyph glyph-name="filter" unicode="&#xe816;" d="M0 651l1000 0 0-28-1000 0z m199-227l602 0 0-27-602 0z m125-226l326 0 0-28-326 0z" horiz-adv-x="1000" />

<glyph glyph-name="check" unicode="&#xe817;" d="M611 502l-293-295-105 106c-109 109-152 123-195 72-22-25-2-54 136-193l164-162 336 338c186 183 338 343 338 353 0 18-60 70-80 72-6 0-140-130-301-291z" horiz-adv-x="1000" />

<glyph glyph-name="arrow-circle-right" unicode="&#xe818;" d="M500 788c207 0 375-168 375-375 0-207-168-375-375-375-207 0-375 168-375 375 0 207 168 375 375 375m0 62c-240 0-437-197-437-437 0-241 197-438 437-438 240 0 438 197 438 438 0 240-198 437-438 437z m-125-605l215 177-215 180 0 82 313-262-313-259z" horiz-adv-x="1000" />

<glyph glyph-name="arrow-circle-left" unicode="&#xe819;" d="M500 788c207 0 375-168 375-375 0-207-168-375-375-375-207 0-375 168-375 375 0 207 168 375 375 375m0 62c-240 0-437-197-437-437 0-241 197-438 437-438 240 0 438 197 438 438 0 240-198 437-438 437z m125-269l-215-178 215-180 0-82-312 262 312 260z" horiz-adv-x="1000" />

<glyph glyph-name="more" unicode="&#xe81a;" d="M223 319c-55 0-98 41-98 94 0 50 43 93 98 93 52 0 97-43 97-93 0-53-45-94-97-94z m277 0c-53 0-98 41-98 94 0 50 45 93 98 93 55 0 98-43 98-93 0-53-43-94-98-94z m277 0c-52 0-97 41-97 94 0 50 45 93 97 93 55 0 98-43 98-93 0-53-43-94-98-94z" horiz-adv-x="1000" />

<glyph glyph-name="asterisk" unicode="&#xe81b;" d="M824 311c0 0 0 2 0 2l0 0-172 100 174 99 0 0c8 6 12 20 6 28 0 0 0 1 0 1l0 0-55 96 0 0c-5 8-17 12-27 6l0 0-174-100 0 202 0 0c0 11-10 19-21 19 0 0 0 0 0 0l0 0-110 0 0 0c-11 0-19-10-19-19l0 0 0-202-176 102 0 0c-10 4-21 0-27-8 0 0 0-2 0-2l0 0-55-95 0 0c-6-8-2-20 8-26l0 0 0 0c0 0 0 0 0 0 0 0 0-2 0-2l174-99-170-98c-2-2-4-2-4-2-10-6-14-18-8-27l0 0 57-100 0 0c6-8 17-10 25-4 0 0 0 0 0 0l2 0 174 100 0-196c-2-2-2-4-2-5 0-10 10-20 19-20l0 0 116 0 0 0c9 2 15 10 15 20 0 0 0 0 0 0l2 0 0 201 170-98c0-2 2-2 4-2 8-6 22-4 27 6l0 0 55 96c0 0 0 0 0 0 0 0 0 0 0 0l2 4 0 0c2 9 0 19-10 23z" horiz-adv-x="1000" />

<glyph glyph-name="asterisk-1" unicode="&#xe81c;" d="M938 475l-366-14 213 327-117 62-168-344-168 344-117-62 213-327-365 14 0-125 363 20-203-332 109-63 168 344 168-344 109 63-203 332 364-20z" horiz-adv-x="1000" />

<glyph glyph-name="asterisk-2" unicode="&#xe81d;" d="M863 327c16-10 28-24 34-43 3-20 1-37-8-55l-35-61c-10-17-24-29-43-33-20-6-38-4-55 6l-149 86 0-172c0-19-7-35-21-51-14-13-31-19-51-19l-70 0c-20 0-37 6-51 19-14 16-21 32-21 51l0 172-149-86c-17-10-35-12-54-6-20 4-34 16-43 33l-36 61c-9 18-11 35-7 55 5 19 17 33 33 43l148 86-148 85c-16 10-28 24-33 43-4 20-2 38 7 55l36 61c9 17 23 29 43 33 19 6 37 4 54-6l149-86 0 172c0 20 7 35 21 51 14 13 31 19 51 19l70 0c20 0 37-6 51-19 14-16 21-31 21-51l0-172 149 86c17 10 35 12 55 6 19-4 33-16 43-33l35-61c9-17 11-35 8-55-6-19-18-33-34-43l-148-85z" horiz-adv-x="1000" />

<glyph glyph-name="info" unicode="&#xe81e;" d="M557 266c-24-27-39-37-51-37-8 0-10 6-8 21 4 40 33 165 43 211 8 37 6 57-6 57-21 0-72-33-105-68-2-2-4-16-4-22 0-2 4-2 4-2 19 16 35 26 45 26 4 0 6-8 4-20-12-49-28-127-41-191-12-55-4-78 13-78 18 0 67 23 106 76 2 4 4 19 2 23 0 2-2 4-2 4z m-8 397c-14 0-31-6-39-16-4-4-8-16-8-24 0-13 4-23 14-27 4-4 31-2 37 2 10 6 19 20 21 35 0 8-2 18-4 24-2 2-9 6-21 6z m-49 250c-275 0-500-225-500-500 0-276 225-501 500-501 275 0 500 225 500 501 0 275-225 500-500 500z m0-922c-232 0-422 189-422 422 0 232 190 421 422 421 232 0 422-189 422-421 0-233-190-422-422-422z" horiz-adv-x="1000" />

<glyph glyph-name="info-circled" unicode="&#xe81f;" d="M494 873c127 0 235-42 326-130 90-88 137-196 141-323 0-127-43-236-133-326-88-92-195-139-322-142-127 0-236 42-326 132-92 88-139 196-141 323-2 127 41 236 131 326 90 92 197 139 324 140m53-152c-29 0-51-8-66-25-16-16-24-31-24-49 0-20 4-33 16-45 11-10 27-16 49-16 25 0 46 8 60 22 16 15 24 33 24 55 0 39-20 58-59 58m-121-594c19 0 49 8 84 26 37 17 72 43 105 78 0 0-17 23-17 23-32-23-55-35-73-35-7 0-9 12-3 37 0 0 43 160 43 160 17 65 9 96-22 96-21 0-51-10-90-29-39-20-78-43-115-74 0 0 16-26 16-26 35 22 60 33 74 33 8 0 8-11 0-33 0 0-35-152-35-152-18-70-6-104 33-104" horiz-adv-x="1000" />

<glyph glyph-name="left-open-big" unicode="&#xe820;" d="M719 43c17-17 17-35 0-49-16-17-33-17-47 0 0 0-393 395-393 395-15 16-15 31 0 49 0 0 393 394 393 394 14 18 31 18 47 0 17-13 17-31 0-48 0 0-358-371-358-371 0 0 358-370 358-370" horiz-adv-x="1000" />

<glyph glyph-name="right-open-big" unicode="&#xe821;" d="M281 43c0 0 358 370 358 370 0 0-358 371-358 371-17 17-17 35 0 48 16 18 34 18 47 0 0 0 393-394 393-394 15-18 15-33 0-49 0 0-393-395-393-395-13-17-31-17-47 0-17 14-17 32 0 49" horiz-adv-x="1000" />

<glyph glyph-name="twitter" unicode="&#xe822;" d="M961 698c-25-35-57-69-96-98 0 0 0-23 0-23 0-86-19-170-58-250-41-80-104-149-188-204-84-54-179-82-289-82-107 0-203 28-291 84 10-2 26-2 47-2 88 0 166 26 234 79-41 2-78 15-109 39-33 23-55 54-66 93 5-2 17-3 33-3 17 0 35 1 51 5-45 10-81 32-110 67-27 35-41 74-41 119 0 0 0 2 0 2 24-12 53-22 84-24-56 40-84 92-84 159 0 31 8 62 26 93 103-125 232-191 390-195-4 12-6 25-6 41 0 53 18 98 55 133 37 37 82 55 135 55 54 0 99-18 137-57 39 8 80 21 119 43-14-43-41-78-82-104 37 6 74 16 109 30" horiz-adv-x="1000" />

<glyph glyph-name="circle" unicode="&#xe823;" d="M307 883c-102-39-258-199-285-301-28-97-28-234 0-332 25-95 154-236 263-291 110-50 309-52 420-2 90 43 219 176 260 274 35 84 35 287 0 373-41 96-170 228-260 271-96 43-285 47-398 8z m275-68c340-78 434-531 150-729-244-168-570-41-634 250-47 202 99 430 302 477 90 21 96 21 182 2z" horiz-adv-x="1000" />

<glyph glyph-name="up" unicode="&#xe824;" d="M242 469l-242-242 119-115 188 185 189 190 188-190 189-185 119 115-242 242c-135 137-248 244-254 244-6 0-119-107-254-244z" horiz-adv-x="1000" />

<glyph glyph-name="google-plus" unicode="&#xe825;" d="M445 469c0-13 6-27 18-41 14-12 27-25 45-37 15-12 33-25 49-41 17-16 31-35 43-59 13-23 19-48 19-78 0-33-10-66-27-97-27-45-67-78-117-100-53-22-108-31-168-31-49 0-94 8-137 21-43 16-74 41-96 78-13 22-21 47-21 73 0 31 10 58 25 84 18 25 39 47 67 64 48 29 123 49 224 55-12 15-19 29-25 43-6 12-10 25-10 39 0 14 4 29 12 49-16-2-30-2-37-2-55 0-102 17-139 52-39 38-57 82-57 137 0 31 6 61 20 88 14 29 31 55 55 74 29 24 62 43 101 55 41 12 80 18 123 18l233 0-77-49-74 0c28-24 49-49 63-74 13-26 21-57 21-90 0-28-4-51-13-73-10-21-20-39-34-50-11-14-25-26-39-37-11-12-23-22-33-36-8-11-14-23-14-35z m-80 53c14 0 28 4 43 10 14 6 28 13 37 23 20 22 30 51 30 90 0 21-4 45-10 68-6 26-16 49-27 73-12 23-28 43-47 58-20 16-41 24-65 24-15 0-31-4-47-12-15-8-27-18-37-29-17-22-25-51-25-90 0-16 2-35 6-55 4-17 9-37 17-57 8-19 18-37 30-50 9-16 25-30 41-39 15-10 35-14 54-14z m0-486c22 0 43 2 63 5 19 6 39 12 54 22 18 10 32 23 41 41 10 18 16 39 16 61 0 9-2 19-4 27-2 10-6 17-8 23-4 8-7 16-15 24-8 9-12 15-16 19-4 4-12 12-21 20-12 10-18 13-22 15-2 4-10 8-23 18-12 10-18 14-20 14-6 2-15 2-27 2-20 0-39-2-59-4-19-2-39-8-58-14-22-8-39-16-55-25-16-12-29-26-39-43-10-16-14-35-14-59 0-25 6-49 20-68 12-20 29-35 51-47 19-10 43-20 66-24 23-5 47-7 70-7z m453 488l118 0 0-61-118 0 0-123-58 0 0 123-119 0 0 61 119 0 0 121 58 0z" horiz-adv-x="1000" />

<glyph glyph-name="rss" unicode="&#xe826;" d="M262 262c-47 0-88-39-88-88 0-47 41-86 88-86 49 0 88 39 88 86 0 49-39 88-88 88z m-26 242c-2 0-2 0-2 0l0 0-35 0 0 0c-17-2-29-15-31-33l0 0 0-62 2 0c2-16 14-28 29-30l0 0 35 0 0 0c0 0 0 0 2 0 127 0 231-103 233-230l0 0 0-35 0 0c2-18 15-30 33-32l0 0 63 0 0 2c15 2 27 14 29 30l0 0 0 35 0 0c-2 195-162 355-358 355z m596-355c-2 326-269 594-596 594-2 0-2 0-2 0l0 0-35 0 0-2c-17-2-29-16-31-34l0 0 0-60 2 0c2-16 14-29 29-31l0 0 35 0 0 0c0 0 0 0 2 0 258 0 469-209 469-467l0 0 0-35 0 0c2-18 18-30 33-32l0 0 63 0 0 2c15 2 27 14 29 30l2 0 0 35 0 0z" horiz-adv-x="1000" />

<glyph glyph-name="left" unicode="&#xe827;" d="M436 665l-246-249 494-496 119 120-377 376 377 377-119 120z" horiz-adv-x="1000" />

<glyph glyph-name="instagram" unicode="&#xf31e;" d="M749 849h-498c-138 0-249-111-249-248v-502c0-137 111-248 249-248h498c138 0 250 111 250 248v502c0 137-112 248-250 248z m157-750c0-86-70-156-157-156h-498c-87 0-157 70-157 156v324h197c-14-30-23-64-23-100 0-130 107-236 237-236 131 0 237 106 237 236 0 36-8 70-23 100h187v-324z m-499 224c0 54 44 98 98 98 54 0 98-44 98-98 0-54-44-98-98-98-54 0-98 44-98 98z m499 192h-264c-39 28-86 44-137 44-51 0-98-16-137-44h-274v86c0 86 70 156 157 156h498c87 0 157-70 157-156v-86h0z m-100 186h-85c-15 0-28-12-28-27v-86c0-15 13-27 28-27h85c16 0 28 12 28 27v86c0 15-12 27-28 27z" horiz-adv-x="1000" />
</font>
</defs>
</svg>
