<svg id="Layer_1" data-name="Layer 1" xmlns="http://www.w3.org/2000/svg" viewBox="0 0 408.16 22.68"><defs><style>.cls-1{fill:black;}</style></defs><title>logo</title><path class="cls-1" d="M17.81,18.42l3,3.26H17.4l-1.68-1.79a12.24,12.24,0,0,1-5.17,1.27,10.28,10.28,0,0,1-7.48-3A9.85,9.85,0,0,1,0,10.83a9.45,9.45,0,0,1,3.11-7.1,10.48,10.48,0,0,1,7.49-3A10.42,10.42,0,0,1,18,3.72a9.33,9.33,0,0,1,3.11,7A10,10,0,0,1,17.81,18.42Zm-4-.64-4.2-4.49H13l2.94,3.15a7.38,7.38,0,0,0,2.43-5.51A7,7,0,0,0,16.08,5.6a7.85,7.85,0,0,0-5.63-2.15A7.51,7.51,0,0,0,5,5.64a7.15,7.15,0,0,0-2.24,5.31,7,7,0,0,0,2.3,5.29,7.84,7.84,0,0,0,5.6,2.17A9,9,0,0,0,13.76,17.78Z" transform="translate(0 0.03)"/><path class="cls-1" d="M33.7.79h2.76V13.22a6.27,6.27,0,0,0,1.33,4.27A4.74,4.74,0,0,0,41.55,19a5,5,0,0,0,3.76-1.39,5.41,5.41,0,0,0,1.34-3.92V.79h2.76V13.51a8.25,8.25,0,0,1-2.12,5.94,7.44,7.44,0,0,1-5.65,2.22,7.64,7.64,0,0,1-5.77-2.26q-2.17-2.26-2.17-6.66Z" transform="translate(0 0.03)"/><path class="cls-1" d="M65.56.78h2.74v20.9H65.56Z" transform="translate(0 0.03)"/><path class="cls-1" d="M84.77,0,100.2,15.82V.8H103V22.63L87.62,6.85V21.66H84.77Z" transform="translate(0 0.03)"/><path class="cls-1" d="M115.24.78H128V3.63h-5v18h-2.82v-18h-5Z" transform="translate(0 0.03)"/><path class="cls-1" d="M142,.78h11.58V3.63h-8.76V8.85h8.76v2.82h-8.76v7.18h8.76v2.82H142Z" transform="translate(0 0.03)"/><path class="cls-1" d="M179.94,3.58l-2.17,1.74A8.69,8.69,0,0,0,176.21,4a3.82,3.82,0,0,0-2-.44,3.91,3.91,0,0,0-2.34.65,2,2,0,0,0-.9,1.68,2,2,0,0,0,.79,1.57A10.7,10.7,0,0,0,174.41,9a19,19,0,0,1,2.94,1.51A7.5,7.5,0,0,1,179.09,12a6.11,6.11,0,0,1,1,1.78,5.93,5.93,0,0,1,.33,2,5.6,5.6,0,0,1-1.78,4.17,6,6,0,0,1-4.3,1.72A7.29,7.29,0,0,1,170,20.32a8.45,8.45,0,0,1-2.9-4l2.68-.75q1.46,3.31,4.48,3.31a3.5,3.5,0,0,0,2.43-.87,2.84,2.84,0,0,0,1-2.21,3,3,0,0,0-.51-1.6,4.54,4.54,0,0,0-1.26-1.33,13.66,13.66,0,0,0-2.4-1.2,16.88,16.88,0,0,1-2.54-1.24A6.55,6.55,0,0,1,169.4,9a5.69,5.69,0,0,1-1-1.55,4.49,4.49,0,0,1-.3-1.64,4.61,4.61,0,0,1,1.69-3.59A6,6,0,0,1,174,.78a8.34,8.34,0,0,1,3.25.69A6.67,6.67,0,0,1,179.94,3.58Z" transform="translate(0 0.03)"/><path class="cls-1" d="M205.57,3.58,203.4,5.32A8.69,8.69,0,0,0,201.84,4a3.82,3.82,0,0,0-2-.44,3.91,3.91,0,0,0-2.34.65,2,2,0,0,0-.9,1.68,2,2,0,0,0,.79,1.57A10.7,10.7,0,0,0,200,9,19,19,0,0,1,203,10.46,7.5,7.5,0,0,1,204.71,12a6.11,6.11,0,0,1,1,1.78,5.93,5.93,0,0,1,.33,2,5.6,5.6,0,0,1-1.78,4.17,6,6,0,0,1-4.3,1.72,7.29,7.29,0,0,1-4.35-1.35,8.45,8.45,0,0,1-2.9-4l2.68-.75q1.46,3.31,4.48,3.31a3.5,3.5,0,0,0,2.43-.87,2.84,2.84,0,0,0,1-2.21,3,3,0,0,0-.51-1.6,4.54,4.54,0,0,0-1.26-1.33,13.66,13.66,0,0,0-2.4-1.2,16.88,16.88,0,0,1-2.54-1.24A6.55,6.55,0,0,1,195,9a5.69,5.69,0,0,1-1-1.55,4.49,4.49,0,0,1-.3-1.64,4.61,4.61,0,0,1,1.69-3.59A6,6,0,0,1,199.58.78a8.34,8.34,0,0,1,3.25.69A6.67,6.67,0,0,1,205.57,3.58Z" transform="translate(0 0.03)"/><path class="cls-1" d="M219.65.79h11.57V3.64h-8.75V8.85h8.75v2.82h-8.75v7.18h8.75v2.82H219.65Z" transform="translate(0 0.03)"/><path class="cls-1" d="M244.77,0l15.41,15.84V.83H263V22.64L247.62,6.87V21.68h-2.85Z" transform="translate(0 0.03)"/><path class="cls-1" d="M275.43.8h12.75V3.65h-5v18h-2.82v-18h-5Z" transform="translate(0 0.03)"/><path class="cls-1" d="M302.48.78h2.73V21.67h-2.73Z" transform="translate(0 0.03)"/><path class="cls-1" d="M326.84.77l9.51,20.92h-2.88l-2.34-5.16h-8.55l-2.31,5.16H317.4Zm0,6.29-3.22,7.19h6.48Z" transform="translate(0 0.03)"/><path class="cls-1" d="M349.41.81h2.82V18.88H359V21.7h-9.62Z" transform="translate(0 0.03)"/><path class="cls-1" d="M370.75.87h2.81v18h6.78V21.7h-9.6Z" transform="translate(0 0.03)"/><path class="cls-1" d="M391.63.78h3.16l5.13,8.41L405,.78h3.16L401.3,12.1v9.58h-2.85V12.13Z" transform="translate(0 0.03)"/></svg>