<?xml version="1.0" encoding="utf-8"?>
<!-- Generator: Adobe Illustrator 17.0.0, SVG Export Plug-In . SVG Version: 6.00 Build 0)  -->
<!DOCTYPE svg PUBLIC "-//W3C//DTD SVG 1.1//EN" "http://www.w3.org/Graphics/SVG/1.1/DTD/svg11.dtd">
<svg version="1.1" id="Layer_1" xmlns="http://www.w3.org/2000/svg" xmlns:xlink="http://www.w3.org/1999/xlink" x="0px" y="0px"
	 width="408.2px" height="22.7px" viewBox="0 0 408.2 22.7" style="enable-background:new 0 0 408.2 22.7;" xml:space="preserve">
<g>
	<g>
		<g>
			<path class="logotype" d="M17.8,18.4l3,3.3h-3.4l-1.7-1.8c-1.8,0.8-3.5,1.3-5.2,1.3c-2.9,0-5.4-1-7.5-3S0,13.7,0,10.9
				c0-2.8,1-5.1,3.1-7.1c2.1-2,4.6-3,7.5-3c2.9,0,5.3,1,7.4,2.9s3.1,4.3,3.1,7C21.1,13.9,20,16.4,17.8,18.4z M13.8,17.8l-4.2-4.5H13
				l2.9,3.2c1.6-1.6,2.4-3.4,2.4-5.5c0-2.1-0.8-3.9-2.3-5.3s-3.4-2.2-5.6-2.2C8.3,3.5,6.5,4.2,5,5.7C3.5,7.1,2.8,8.9,2.8,11
				s0.8,3.8,2.3,5.3c1.5,1.4,3.4,2.2,5.6,2.2C11.6,18.4,12.6,18.2,13.8,17.8z"/>
			<path class="logotype" d="M33.7,0.8h2.8v12.4c0,1.8,0.4,3.3,1.3,4.3c0.9,1,2.1,1.5,3.8,1.5c1.6,0,2.9-0.5,3.8-1.4
				c0.9-0.9,1.3-2.2,1.3-3.9V0.8h2.8v12.7c0,2.5-0.7,4.5-2.1,5.9s-3.3,2.2-5.6,2.2c-2.4,0-4.3-0.8-5.8-2.3c-1.4-1.5-2.2-3.7-2.2-6.7
				V0.8z"/>
			<path class="logotype" d="M65.6,0.8h2.7v20.9h-2.7V0.8z"/>
			<path class="logotype" d="M84.8,0l15.4,15.9v-15h2.8v21.8L87.6,6.9v14.8h-2.8V0z"/>
			<path class="logotype" d="M115.2,0.8H128v2.9h-5v18h-2.8v-18h-5V0.8z"/>
			<path class="logotype" d="M142,0.8h11.6v2.9h-8.8v5.2h8.8v2.8h-8.8v7.2h8.8v2.8H142V0.8z"/>
			<path class="logotype" d="M179.9,3.6l-2.2,1.7c-0.6-0.6-1.1-1-1.6-1.3c-0.5-0.3-1.1-0.4-2-0.4c-1,0-1.7,0.2-2.3,0.7
				c-0.6,0.4-0.9,1-0.9,1.7c0,0.6,0.3,1.1,0.8,1.6c0.5,0.5,1.4,1,2.7,1.5c1.3,0.5,2.2,1,2.9,1.5c0.7,0.5,1.3,1,1.7,1.5
				s0.8,1.2,1,1.8c0.2,0.6,0.3,1.3,0.3,2c0,1.6-0.6,3-1.8,4.2c-1.2,1.1-2.6,1.7-4.3,1.7c-1.6,0-3.1-0.4-4.3-1.3s-2.2-2.2-2.9-4
				l2.7-0.8c1,2.2,2.5,3.3,4.5,3.3c1,0,1.8-0.3,2.4-0.9c0.6-0.6,1-1.3,1-2.2c0-0.5-0.2-1.1-0.5-1.6c-0.3-0.5-0.8-1-1.3-1.3
				c-0.5-0.3-1.3-0.7-2.4-1.2c-1.1-0.4-1.9-0.9-2.5-1.2s-1.1-0.8-1.5-1.3c-0.4-0.5-0.7-1-1-1.5c-0.2-0.5-0.3-1.1-0.3-1.6
				c0-1.4,0.6-2.6,1.7-3.6c1.1-1,2.5-1.5,4.1-1.5c1.1,0,2.2,0.2,3.2,0.7C178.3,2,179.2,2.7,179.9,3.6z"/>
			<path class="logotype" d="M205.6,3.6l-2.2,1.7c-0.6-0.6-1.1-1-1.6-1.3c-0.5-0.3-1.1-0.4-2-0.4c-1,0-1.7,0.2-2.3,0.7
				c-0.6,0.4-0.9,1-0.9,1.7c0,0.6,0.3,1.1,0.8,1.6c0.5,0.5,1.4,1,2.7,1.5c1.3,0.5,2.2,1,2.9,1.5c0.7,0.5,1.3,1,1.7,1.5
				s0.8,1.2,1,1.8c0.2,0.6,0.3,1.3,0.3,2c0,1.6-0.6,3-1.8,4.2c-1.2,1.1-2.6,1.7-4.3,1.7c-1.6,0-3.1-0.4-4.3-1.3s-2.2-2.2-2.9-4
				l2.7-0.8c1,2.2,2.5,3.3,4.5,3.3c1,0,1.8-0.3,2.4-0.9c0.6-0.6,1-1.3,1-2.2c0-0.5-0.2-1.1-0.5-1.6c-0.3-0.5-0.8-1-1.3-1.3
				c-0.5-0.3-1.3-0.7-2.4-1.2c-1.1-0.4-1.9-0.9-2.5-1.2s-1.1-0.8-1.5-1.3c-0.4-0.5-0.7-1-1-1.5c-0.2-0.5-0.3-1.1-0.3-1.6
				c0-1.4,0.6-2.6,1.7-3.6c1.1-1,2.5-1.5,4.1-1.5c1.1,0,2.2,0.2,3.2,0.7C203.9,2,204.8,2.7,205.6,3.6z"/>
			<path class="logotype" d="M219.7,0.8h11.6v2.9h-8.8v5.2h8.8v2.8h-8.8v7.2h8.8v2.8h-11.6V0.8z"/>
			<path class="logotype" d="M244.8,0l15.4,15.8v-15h2.8v21.8L247.6,6.9v14.8h-2.8V0z"/>
			<path class="logotype" d="M275.4,0.8h12.8v2.8h-5v18h-2.8v-18h-5V0.8z"/>
			<path class="logotype" d="M302.5,0.8h2.7v20.9h-2.7V0.8z"/>
			<path class="logotype" d="M326.8,0.8l9.5,20.9h-2.9l-2.3-5.2h-8.6l-2.3,5.2h-2.9L326.8,0.8z M326.8,7.1l-3.2,7.2h6.5L326.8,7.1z"/>
			<path class="logotype" d="M349.4,0.8h2.8v18.1h6.8v2.8h-9.6V0.8z"/>
			<path class="logotype" d="M370.7,0.9h2.8v18h6.8v2.8h-9.6V0.9z"/>
			<path class="logotype" d="M391.6,0.8h3.2l5.1,8.4l5.1-8.4h3.2l-6.9,11.3v9.6h-2.9v-9.5L391.6,0.8z"/>
		</g>
	</g>
</g>
</svg>