<?xml version="1.0" encoding="utf-8"?>
<!-- Generator: Adobe Illustrator 17.0.0, SVG Export Plug-In . SVG Version: 6.00 Build 0)  -->
<!DOCTYPE svg PUBLIC "-//W3C//DTD SVG 1.1//EN" "http://www.w3.org/Graphics/SVG/1.1/DTD/svg11.dtd">
<svg version="1.1" id="Layer_1" xmlns="http://www.w3.org/2000/svg" xmlns:xlink="http://www.w3.org/1999/xlink" x="0px" y="0px"
	 width="308.2px" height="16.2px" viewBox="0 0 308.2 16.2" style="enable-background:new 0 0 308.2 16.2;" xml:space="preserve">
<style type="text/css">
	.logotype{clip-path:url(#SVGID_2_);fill:#FFF;}
</style>
		<defs>
			<rect id="SVGID_1_" y="0" width="308.2" height="16.2"/>
		</defs>
		<clipPath id="SVGID_2_">
			<use xlink:href="#SVGID_1_"  style="overflow:visible;"/>
		</clipPath>
		<path class="logotype" d="M10.4,13.2L7.2,9.7h2.6l2.2,2.4c1.2-1.2,1.8-2.6,1.8-4.2c0-1.6-0.6-3-1.7-4.1C11,2.7,9.6,2.2,7.9,2.2
			c-1.6,0-3,0.6-4.1,1.7C2.6,5,2.1,6.3,2.1,7.9s0.6,3,1.7,4.1C5,13.1,6.4,13.7,8,13.7C8.7,13.7,9.5,13.5,10.4,13.2 M13.4,13.7
			l2.3,2.5h-2.6l-1.3-1.4c-1.4,0.6-2.7,1-3.9,1c-2.2,0-4.1-0.8-5.6-2.3C0.8,11.9,0,10,0,7.9c0-2.1,0.8-3.9,2.3-5.5
			C3.9,0.9,5.8,0.1,8,0.1c2.2,0,4,0.8,5.6,2.3C15.2,3.9,16,5.7,16,7.8C16,10.2,15.1,12.1,13.4,13.7"/>
		<path class="logotype" d="M25.9,0.6h2v9c0,1.3,0.3,2.4,0.9,3.1c0.6,0.7,1.5,1.1,2.7,1.1c1.1,0,2-0.3,2.7-1c0.6-0.7,1-1.6,1-2.8V0.6h2
			v9.2c0,1.8-0.5,3.2-1.5,4.3c-1,1.1-2.4,1.6-4,1.6c-1.7,0-3.1-0.5-4.1-1.6c-1-1.1-1.5-2.7-1.5-4.8V0.6z"/>
		<rect x="49.7" y="0.6" class="logotype" width="2" height="14.7"/>
		<polygon class="logotype" points="64.9,0 64.9,15.3 66.9,15.3 66.9,4.8 77.6,16 77.6,0.6 75.6,0.6 75.6,11.2 		"/>
		<polygon class="logotype" points="87.6,0.6 96.4,0.6 96.4,2.6 92.9,2.6 92.9,15.3 91,15.3 91,2.6 87.6,2.6 		"/>
		<polygon class="logotype" points="107.7,0.6 115.7,0.6 115.7,2.6 109.7,2.6 109.7,6.3 115.7,6.3 115.7,8.3 109.7,8.3 109.7,13.3 
			115.7,13.3 115.7,15.3 107.7,15.3 		"/>
		<path class="logotype" d="M136,2.2l-1.6,1.3c-0.4-0.4-0.8-0.8-1.1-1c-0.3-0.2-0.8-0.3-1.5-0.3c-0.7,0-1.3,0.2-1.7,0.5
			c-0.4,0.3-0.7,0.7-0.7,1.3c0,0.4,0.2,0.8,0.6,1.2c0.4,0.3,1,0.7,2,1.1c0.9,0.4,1.7,0.8,2.2,1.1c0.5,0.4,0.9,0.7,1.3,1.2
			c0.3,0.4,0.6,0.9,0.7,1.3c0.2,0.5,0.2,1,0.2,1.5c0,1.2-0.4,2.3-1.3,3.1c-0.9,0.9-1.9,1.3-3.2,1.3c-1.2,0-2.3-0.3-3.2-1
			c-0.9-0.7-1.6-1.7-2.1-3l2-0.6c0.7,1.7,1.8,2.5,3.3,2.5c0.7,0,1.3-0.2,1.8-0.7c0.5-0.4,0.7-1,0.7-1.7c0-0.4-0.1-0.8-0.4-1.2
			c-0.3-0.4-0.6-0.7-0.9-1c-0.4-0.3-1-0.6-1.8-0.9c-0.8-0.3-1.4-0.6-1.9-0.9c-0.4-0.3-0.8-0.6-1.1-1c-0.3-0.4-0.6-0.8-0.7-1.2
			c-0.1-0.4-0.2-0.8-0.2-1.2c0-1.1,0.4-2,1.2-2.7c0.8-0.7,1.8-1.1,3-1.1c0.8,0,1.6,0.2,2.4,0.5C134.7,1,135.4,1.5,136,2.2"/>
		<path class="logotype" d="M155.3,2.2l-1.6,1.3c-0.4-0.4-0.8-0.8-1.1-1c-0.3-0.2-0.8-0.3-1.5-0.3c-0.7,0-1.3,0.2-1.7,0.5
			c-0.4,0.3-0.7,0.7-0.7,1.3c0,0.4,0.2,0.8,0.6,1.2c0.4,0.3,1,0.7,2,1.1c0.9,0.4,1.7,0.8,2.2,1.1c0.5,0.4,0.9,0.7,1.3,1.2
			c0.3,0.4,0.6,0.9,0.7,1.3c0.2,0.5,0.2,1,0.2,1.5c0,1.2-0.4,2.3-1.3,3.1c-0.9,0.9-1.9,1.3-3.2,1.3c-1.2,0-2.3-0.3-3.2-1
			c-0.9-0.7-1.6-1.7-2.1-3l2-0.6c0.7,1.7,1.8,2.5,3.3,2.5c0.7,0,1.3-0.2,1.8-0.7c0.5-0.4,0.7-1,0.7-1.7c0-0.4-0.1-0.8-0.4-1.2
			c-0.3-0.4-0.6-0.7-0.9-1c-0.4-0.3-1-0.6-1.8-0.9c-0.8-0.3-1.4-0.6-1.9-0.9c-0.4-0.3-0.8-0.6-1.1-1c-0.3-0.4-0.6-0.8-0.7-1.2
			c-0.1-0.4-0.2-0.8-0.2-1.2c0-1.1,0.4-2,1.2-2.7c0.8-0.7,1.8-1.1,3-1.1c0.8,0,1.6,0.2,2.4,0.5C154.1,1,154.8,1.5,155.3,2.2"/>
		<polygon class="logotype" points="166.6,0.6 174.6,0.6 174.6,2.6 168.5,2.6 168.5,6.3 174.6,6.3 174.6,8.3 168.5,8.3 168.5,13.3 
			174.6,13.3 174.6,15.3 166.6,15.3 		"/>
		<polygon class="logotype" points="186.1,0 186.1,15.3 188,15.3 188,4.8 198.7,16 198.7,0.6 196.8,0.6 196.8,11.2 		"/>
		<polygon class="logotype" points="208.7,0.6 217.5,0.6 217.5,2.6 214.1,2.6 214.1,15.3 212.1,15.3 212.1,2.6 208.7,2.6 		"/>
		<rect x="229" y="0.6" class="logotype" width="2" height="14.7"/>
		<path class="logotype" d="M247.4,4.6l2.3,5.2h-4.6L247.4,4.6z M240.6,15.3h2.1l1.7-3.8h6.1l1.7,3.8h2.1L247.4,0L240.6,15.3z"/>
		<polygon class="logotype" points="264.5,0.6 266.4,0.6 266.4,13.3 271.1,13.3 271.1,15.3 264.5,15.3 		"/>
		<polygon class="logotype" points="282,0.6 283.9,0.6 283.9,13.3 288.6,13.3 288.6,15.3 282,15.3 		"/>
		<polygon class="logotype" points="296.8,0.6 298.9,0.6 302.5,6.5 306,0.6 308.2,0.6 303.4,8.5 303.4,15.3 301.5,15.3 301.5,8.6 		"/>

</svg>
