<?xml version="1.0" standalone="no"?>
<!DOCTYPE svg PUBLIC "-//W3C//DTD SVG 1.1//EN" "http://www.w3.org/Graphics/SVG/1.1/DTD/svg11.dtd" >
<svg>
<metadata>
Created by FontForge 20090622 at Mon Oct 10 10:48:23 2016
 By ffonts
Created by Fabian De Smet
</metadata>
<defs>
<font id="Butler-Light" horiz-adv-x="473" >
  <font-face 
    font-family="Butler"
    font-weight="300"
    font-stretch="normal"
    units-per-em="1000"
    panose-1="2 7 8 3 8 7 6 2 3 3"
    ascent="735"
    descent="-265"
    x-height="462"
    cap-height="704"
    bbox="-147 -265.094 1055 976"
    underline-thickness="50"
    underline-position="-50"
    stemh="18"
    stemv="138"
    unicode-range="U+0020-U+FB02"
  />
<missing-glyph horiz-adv-x="507" 
d="M278 352l186 -272v544zM67 661l186 -271l185 271h-371zM-1 704h508v-704h-508v704zM226 352l-185 272v-544zM253 314l-186 -272h371z" />
    <glyph glyph-name="f_i" unicode="fi" horiz-adv-x="491" 
d="M453 9v-9h-149v9c38 11 40 16 40 67v318c0 35 -10 57 -50 57h-142v-379c0 -55 16 -59 52 -64v-8h-160v8c38 7 39 13 39 64v379h-64l-1 11h65v6c0 219 78 277 203 277c54 0 116 -24 123 -92c1 -16 -3 -37 -15 -48c-18 -17 -47 -15 -63 2c-17 19 -16 46 3 63
c9 9 19 13 31 11c24 -3 -2 54 -79 54c-50 0 -134 -13 -134 -261v-12h142h118v-386c0 -55 5 -58 41 -67z" />
    <glyph glyph-name="f_l" unicode="fl" horiz-adv-x="475" 
d="M464 11v-11h-150v11c38 11 40 14 40 65v578c0 50 -36 69 -86 73c-52 4 -125 -20 -125 -255v-10h107l-2 -11h-105v-379c0 -55 17 -57 52 -62v-10h-160v10c38 7 39 11 39 62v379h-64l-1 11h65v20c0 190 63 263 166 263c44 0 74 -8 96 -22l87 23v-670c0 -55 5 -56 41 -65z
" />
    <glyph glyph-name=".notdef" horiz-adv-x="507" 
d="M278 352l186 -272v544zM67 661l186 -271l185 271h-371zM-1 704h508v-704h-508v704zM226 352l-185 272v-544zM253 314l-186 -272h371z" />
    <glyph glyph-name="space" unicode=" " horiz-adv-x="242" 
 />
    <glyph glyph-name="exclam" unicode="!" horiz-adv-x="285" 
d="M159 171h-40l-17 574h74zM189 42c0 28 -23 50 -51 50s-51 -22 -51 -50s23 -51 51 -51s51 23 51 51z" />
    <glyph glyph-name="quotedbl" unicode="&#x22;" horiz-adv-x="444" 
d="M298 376l-21 328h79l-20 -328h-38zM121 376l-20 328h77l-18 -328h-39z" />
    <glyph glyph-name="numbersign" unicode="#" horiz-adv-x="692" 
d="M445 486h-172l-43 -193h171zM642 486h-148l-44 -193h129v-45h-139l-56 -248h-49l56 248h-172l-56 -248h-49l56 248h-136v45h147l43 193h-127v44h137l50 216h49l-50 -216h172l50 216h49l-50 -216h138v-44z" />
    <glyph glyph-name="dollar" unicode="$" horiz-adv-x="512" 
d="M269 2c174 9 175 186 67 261l-67 44v-305zM235 422v280c-107 -2 -209 -143 -50 -247zM356 343c135 -89 141 -201 100 -270c-11 -12 -51 -77 -187 -82v-122h-34v122c-128 7 -192 54 -192 54v192h8c5 -145 41 -224 184 -235v327l-70 47c-72 50 -182 136 -108 259
c0 0 50 77 178 78v122h34v-122c113 -6 181 -46 181 -46v-168h-9c-5 111 -32 194 -172 202v-301z" />
    <glyph glyph-name="percent" unicode="%" horiz-adv-x="959" 
d="M692 36c46 0 81 23 81 165s-38 172 -81 172c-44 0 -80 -30 -80 -172s37 -165 80 -165zM692 384c110 0 132 -104 132 -183s-22 -176 -132 -176s-131 97 -131 176s21 183 131 183zM192 495c0 -141 37 -165 80 -165c46 0 81 24 81 165c0 142 -38 173 -81 173
c-44 0 -80 -31 -80 -173zM404 495c0 -79 -22 -176 -132 -176s-131 97 -131 176s21 184 131 184s132 -105 132 -184zM733 704l-456 -704h-47l456 704h47z" />
    <glyph glyph-name="ampersand" unicode="&#x26;" horiz-adv-x="764" 
d="M280 723c-71 -27 -70 -120 -22 -191l70 -102c135 82 129 196 74 264c-29 31 -79 45 -122 29zM169 86c70 -82 219 -72 273 57l-170 243l-61 -37c-61 -39 -134 -157 -42 -263zM700 87h10c-2 -66 -52 -94 -89 -96c0 0 -72 -6 -110 50l-61 91c-32 -112 -229 -209 -339 -78
c-108 128 11 259 92 304l62 38l-47 68c-103 138 -61 258 51 277c64 11 114 -7 143 -40c47 -53 80 -180 -77 -280l143 -210c38 105 97 122 122 128c20 4 42 2 57 -10s24 -40 5 -61c-16 -18 -43 -21 -62 -5c-12 10 -15 17 -16 29c0 23 -69 8 -98 -91l79 -113
c32 -47 76 -48 76 -48c28 0 57 13 59 47z" />
    <glyph glyph-name="quotesingle" unicode="'" horiz-adv-x="225" 
d="M96 376l-21 328h78l-19 -328h-38z" />
    <glyph glyph-name="parenleft" unicode="(" horiz-adv-x="314" 
d="M303 745l11 -10c-171 -202 -163 -458 -163 -484c0 -27 -7 -294 160 -445l-10 -12c-59 33 -222 219 -222 460s164 450 224 491z" />
    <glyph glyph-name="parenright" unicode=")" horiz-adv-x="314" 
d="M-2 735l11 10c60 -41 224 -250 224 -491s-163 -427 -222 -460l-10 12c167 151 160 418 160 445c0 26 8 282 -163 484z" />
    <glyph glyph-name="asterisk" unicode="*" horiz-adv-x="545" 
d="M474 531l-185 -39l127 -139l-53 -40l-94 165l-94 -165l-53 40l127 139l-185 39l21 63l172 -79l-21 189h66l-21 -189l173 79z" />
    <glyph glyph-name="plus" unicode="+" horiz-adv-x="715" 
d="M657 338v-55h-273v-283h-55v283h-273v55h273v281h55v-281h273z" />
    <glyph glyph-name="comma" unicode="," horiz-adv-x="208" 
d="M69 -124l-5 6c72 49 58 107 42 110c-11 2 -22 5 -32 14c-18 18 -19 47 -1 65c19 19 48 19 66 0c28 -28 21 -89 -4 -131c-11 -19 -24 -42 -66 -64z" />
    <glyph glyph-name="hyphen" unicode="-" horiz-adv-x="444" 
d="M379 227h-315v55h315v-55z" />
    <glyph glyph-name="period" unicode="." horiz-adv-x="202" 
d="M101 -5c-26 0 -46 21 -46 46c0 27 20 47 46 47c25 0 46 -20 46 -47c0 -25 -21 -46 -46 -46z" />
    <glyph glyph-name="slash" unicode="/" horiz-adv-x="408" 
d="M383 725l-308 -746h-61l308 746h61z" />
    <glyph glyph-name="zero" unicode="0" horiz-adv-x="602" 
d="M480 346c0 285 -95 356 -181 356c-90 0 -182 -71 -182 -356c0 -284 94 -344 182 -344c91 0 181 60 181 344zM563 346c0 -158 -44 -355 -264 -355c-221 0 -265 197 -265 355c0 159 44 367 265 367c220 0 264 -208 264 -367z" />
    <glyph glyph-name="one" unicode="1" horiz-adv-x="365" 
d="M293 10v-10h-219v10c41 0 77 4 77 78v498c0 65 -37 46 -93 2l-6 9l134 116h32v-625c0 -77 40 -78 75 -78z" />
    <glyph glyph-name="two" unicode="2" horiz-adv-x="466" 
d="M420 124h10l-34 -124h-357l217 332c230 333 -179 417 -201 190l-14 3c4 196 182 188 182 188c100 0 172 -76 172 -167c0 -66 -43 -120 -121 -228c-47 -65 -168 -251 -168 -251h220c34 0 72 17 94 57z" />
    <glyph glyph-name="three" unicode="3" horiz-adv-x="495" 
d="M51 51c-9 12 -10 33 -2 48c11 22 40 30 61 18c22 -12 30 -39 18 -61c-5 -11 -14 -18 -25 -20c-6 -1 30 -34 110 -34c102 0 163 52 153 183c-5 71 -49 163 -193 168v13c146 13 200 179 99 267c-73 63 -209 17 -215 -83l-14 1c6 162 162 162 187 162
c171 0 241 -254 41 -333c111 -21 170 -103 171 -180c3 -173 -138 -209 -229 -209c-85 0 -141 33 -162 60z" />
    <glyph glyph-name="four" unicode="4" horiz-adv-x="521" 
d="M314 251v368l-225 -333c-25 -34 -17 -35 13 -35h212zM483 208h-93v-99c0 -96 28 -98 70 -98v-11h-216v11c42 0 70 4 70 93v104h-284v13l327 486l33 -3v-453h93v-43z" />
    <glyph glyph-name="five" unicode="5" horiz-adv-x="535" 
d="M482 255c26 -193 -132 -264 -256 -264c-103 0 -156 50 -166 63s-15 34 -7 51c10 23 38 34 62 23c23 -10 33 -39 23 -62c-6 -13 -17 -19 -28 -22s30 -42 116 -42c119 0 232 95 189 235c-31 100 -154 164 -360 110l53 357h346l-18 -73h-324l-31 -211
c227 64 384 -33 401 -165z" />
    <glyph glyph-name="six" unicode="6" horiz-adv-x="527" 
d="M406 202c0 159 -68 198 -127 198c-103 0 -158 -75 -158 -139c0 -185 50 -259 146 -259c75 0 139 45 139 200zM481 218c0 -155 -75 -227 -214 -227c-169 0 -225 128 -225 327c0 206 94 395 252 395c111 0 127 -51 132 -64c6 -14 3 -36 -9 -49c-18 -18 -48 -19 -66 -1
c-18 17 -19 47 -1 65c8 8 19 15 31 14c8 -1 -6 19 -65 23c-116 8 -194 -115 -195 -399c25 79 79 128 173 128c142 0 187 -113 187 -212z" />
    <glyph glyph-name="seven" unicode="7" horiz-adv-x="549" 
d="M63 704h451l-40 -66c-139 -248 -185 -469 -185 -638h-85c18 203 77 380 257 638h-320c-54 0 -67 -17 -84 -58h-11z" />
    <glyph glyph-name="eight" unicode="8" horiz-adv-x="532" 
d="M395 550c-3 123 -70 152 -133 152s-128 -43 -128 -116c0 -100 57 -141 160 -183c33 8 103 65 101 147zM272 -9c-148 0 -235 51 -235 172c0 86 80 162 175 195c-104 60 -135 104 -135 187c0 110 87 168 185 168c120 0 183 -66 183 -161c0 -58 -65 -138 -137 -157
c100 -50 187 -109 187 -212c0 -135 -96 -192 -223 -192zM258 333c-17 9 -19 9 -34 18c-40 -17 -126 -65 -126 -186c0 -124 88 -163 174 -163c54 0 159 28 156 151c-1 72 -43 113 -170 180z" />
    <glyph glyph-name="nine" unicode="9" horiz-adv-x="514" 
d="M113 506c0 -159 68 -199 127 -199c103 0 153 73 153 138c0 184 -46 257 -142 257c-75 0 -138 -54 -138 -196zM37 490c0 146 75 223 214 223c169 0 221 -113 221 -312c0 -257 -72 -410 -240 -410c-116 0 -136 59 -142 71c-6 15 -2 37 10 49c18 19 47 19 66 2
c18 -18 18 -48 1 -65c-9 -9 -20 -15 -32 -14c-7 1 15 -28 74 -31c130 -9 183 85 184 400c-27 -80 -75 -126 -169 -126c-142 0 -187 114 -187 213z" />
    <glyph glyph-name="colon" unicode=":" horiz-adv-x="197" 
d="M101 314c-27 0 -47 21 -47 46c0 27 20 48 47 48c25 0 47 -21 47 -48c0 -25 -22 -46 -47 -46zM101 55c-27 0 -47 21 -47 46c0 27 20 48 47 48c25 0 47 -21 47 -48c0 -25 -22 -46 -47 -46z" />
    <glyph glyph-name="semicolon" unicode=";" horiz-adv-x="201" 
d="M101 313c-27 0 -47 21 -47 46c0 27 20 48 47 48c25 0 47 -21 47 -48c0 -25 -22 -46 -47 -46zM64 -61c42 22 55 45 66 64c25 42 32 103 4 131c-18 19 -47 19 -66 0c-18 -18 -17 -47 1 -65c10 -9 21 -12 32 -14c16 -3 30 -61 -42 -110z" />
    <glyph glyph-name="less" unicode="&#x3c;" horiz-adv-x="600" 
d="M119 266l434 -226v-56l-507 260v43l507 260v-58z" />
    <glyph glyph-name="equal" unicode="=" horiz-adv-x="613" 
d="M567 353h-511v53h511v-53zM567 128h-511v53h511v-53z" />
    <glyph glyph-name="greater" unicode="&#x3e;" horiz-adv-x="600" 
d="M47 40l434 226l-434 223v58l507 -260v-43l-507 -260v56z" />
    <glyph glyph-name="question" unicode="?" horiz-adv-x="566" 
d="M315 48c0 -30 -24 -53 -53 -53s-53 23 -53 53c0 29 24 52 53 52s53 -23 53 -52zM326 322c-50 -23 -68 -74 -63 -134l-17 -3c-6 39 -12 103 52 156c43 37 107 80 96 209c-15 172 -145 183 -231 149c-48 -18 -44 -47 -31 -49c12 0 21 -7 28 -18c14 -20 9 -49 -11 -63
s-48 -8 -63 12c-10 15 -9 32 -5 47c5 17 28 59 75 79c160 71 318 2 326 -153c7 -145 -102 -205 -156 -232z" />
    <glyph glyph-name="at" unicode="@" horiz-adv-x="857" 
d="M520 69c6 25 41 176 44 193c4 16 7 104 -62 104c-64 0 -125 -62 -143 -171c-20 -123 31 -162 82 -168c54 -5 79 42 79 42zM522 595c172 -7 314 -136 283 -357c-29 -207 -165 -247 -229 -247c-44 0 -65 19 -60 57c-9 -16 -47 -57 -114 -57c-77 0 -125 70 -120 158
c7 111 83 231 208 230c73 -1 92 -37 92 -37c1 4 8 26 8 26h55l-66 -299c-4 -20 -6 -53 31 -53c43 0 147 39 173 224c17 120 -22 302 -252 320c-233 19 -386 -147 -413 -369c0 0 -58 -350 302 -381c113 -10 201 41 222 57l6 -8s-71 -69 -236 -69c-146 0 -391 89 -373 386
c18 282 246 428 483 419z" />
    <glyph glyph-name="A" unicode="A" horiz-adv-x="674" 
d="M175 233h263l-136 351zM660 11v-11h-199v11c42 0 53 32 17 116l-36 95h-270c-42 -120 -76 -213 54 -211v-11h-212v11c44 0 69 11 150 238l165 455h7l243 -607c32 -80 52 -84 81 -86z" />
    <glyph glyph-name="B" unicode="B" horiz-adv-x="560" 
d="M223 693h-47v-331h71c65 0 127 18 127 171c0 146 -83 160 -151 160zM513 179c0 -173 -125 -179 -298 -179h-178v9c43 0 58 34 58 102v485c0 62 -14 99 -58 99v9h178c139 0 251 -15 251 -172c0 -158 -141 -171 -161 -171c65 0 208 -14 208 -182zM419 183
c0 164 -94 168 -172 168h-71v-340h47c100 0 196 -2 196 172z" />
    <glyph glyph-name="C" unicode="C" horiz-adv-x="660" 
d="M597 206h11l10 -153c-74 -49 -124 -62 -231 -62c-204 0 -347 127 -347 361c0 238 143 361 347 361c103 0 168 -10 231 -61l-10 -153h-11c-14 180 -146 203 -210 203c-101 0 -245 -34 -245 -350c0 -323 147 -350 245 -350c61 0 204 30 210 204z" />
    <glyph glyph-name="D" unicode="D" horiz-adv-x="670" 
d="M526 351c0 329 -176 342 -292 342h-44v-682h44c112 0 292 -2 292 340zM620 351c0 -308 -187 -351 -386 -351h-191v11c43 0 64 31 64 99v486c0 62 -20 97 -64 97v11h191c199 0 386 -60 386 -353z" />
    <glyph glyph-name="E" unicode="E" horiz-adv-x="578" 
d="M492 203h11v-203h-472v11c42 0 51 28 51 96v506c0 62 -7 80 -51 80v11h459v-175h-11c-5 162 -129 164 -251 164h-64v-332h80c40 0 124 1 127 99h11v-210h-11c-3 99 -89 100 -127 100h-80v-339h51c134 0 267 -7 277 192z" />
    <glyph glyph-name="F" unicode="F" horiz-adv-x="507" 
d="M30 704h461v-175h-11c-8 167 -136 164 -254 164h-63v-332h79c40 0 125 0 129 99h11v-210h-11c-4 100 -89 100 -129 100h-79v-237c0 -91 26 -102 71 -102v-11h-204v11c42 0 51 28 51 96v506c0 62 -7 80 -51 80v11z" />
    <glyph glyph-name="G" unicode="G" horiz-adv-x="698" 
d="M461 280h212v-11c-60 0 -65 -5 -65 -236c-62 -24 -143 -42 -250 -42c-216 0 -320 162 -320 361s104 361 320 361c128 0 189 -18 251 -59l-9 -157h-16c-7 172 -108 205 -226 205c-114 0 -219 -75 -219 -350s107 -350 219 -350c117 0 181 30 181 107c0 158 -7 160 -78 160
v11z" />
    <glyph glyph-name="H" unicode="H" horiz-adv-x="594" 
d="M521 568v-432c0 -82 -1 -111 51 -125v-11h-160v11c27 10 31 32 31 125v194h-291v-194c0 -112 4 -115 32 -125v-11h-162v11c53 14 53 23 53 125v432c0 96 -5 117 -53 126v10h162v-10c-28 -9 -32 -19 -32 -126v-222h291v222c0 107 -3 117 -31 126v10h160v-10
c-47 -9 -51 -19 -51 -126z" />
    <glyph glyph-name="I" unicode="I" horiz-adv-x="292" 
d="M49 704h206v-10c-43 0 -62 -12 -62 -74v-520c0 -68 20 -89 62 -89v-11h-206v11c43 0 63 21 63 89v520c0 62 -19 74 -63 74v10z" />
    <glyph glyph-name="J" unicode="J" horiz-adv-x="364" 
d="M98 704h227v-10c-45 0 -76 -28 -76 -92v-420c0 -226 -83 -325 -246 -349l-3 10c86 31 169 103 169 320v317c0 187 0 214 -71 214v10z" />
    <glyph glyph-name="K" unicode="K" horiz-adv-x="679" 
d="M664 11v-11h-82c-106 0 -128 30 -234 181l-116 160l120 146c86 100 174 206 39 207v10h248v-10c-76 0 -124 -35 -340 -312l238 -320c44 -56 120 -51 127 -51zM40 704h215v-10c-44 0 -75 -1 -75 -74v-523c0 -68 21 -86 64 -86v-11h-204v11c42 0 60 18 60 86v523
c0 62 -17 74 -60 74v10z" />
    <glyph glyph-name="L" unicode="L" horiz-adv-x="592" 
d="M502 217h10v-217h-464v11c43 0 47 35 47 103v497c0 61 -12 83 -55 83v10h198v-10c-43 0 -64 -17 -64 -89v-594h36c161 -1 283 0 292 206z" />
    <glyph glyph-name="M" unicode="M" horiz-adv-x="866" 
d="M759 115c0 -88 39 -104 82 -104v-11h-233v11c42 0 72 16 72 104v555l-229 -679h-11l-278 618v-362c0 -173 26 -236 125 -236v-11h-273v11c110 0 137 67 137 236v381c-37 64 -87 64 -111 65v11h173l268 -596l199 596h156v-11c-43 0 -77 -17 -77 -88v-490z" />
    <glyph glyph-name="N" unicode="N" horiz-adv-x="771" 
d="M478 704h277v-10c-141 0 -138 -97 -138 -236v-458h-21l-420 548v-300c0 -133 0 -237 129 -237v-11h-282v11c141 0 142 102 142 237v313l-42 55c-64 80 -93 76 -119 78v10h155l447 -588v342c0 139 0 236 -128 236v10z" />
    <glyph glyph-name="O" unicode="O" horiz-adv-x="726" 
d="M583 347c0 274 -109 355 -227 355c-119 0 -229 -81 -229 -355c0 -275 110 -345 229 -345c118 0 227 70 227 345zM671 347c0 -199 -95 -356 -315 -356s-315 157 -315 356c0 198 95 366 315 366s315 -168 315 -366z" />
    <glyph glyph-name="P" unicode="P" horiz-adv-x="550" 
d="M173 313h9c135 0 246 0 246 189c0 196 -119 192 -246 192h-9v-381zM173 302v-165c0 -124 17 -126 90 -126v-11h-231v11c52 0 66 14 66 122v477c0 73 -7 84 -61 84v10h145c199 0 328 -19 328 -202c0 -182 -129 -200 -328 -200h-9z" />
    <glyph glyph-name="Q" unicode="Q" horiz-adv-x="727" 
d="M583 347c0 274 -109 355 -227 355c-119 0 -229 -81 -229 -355c0 -275 110 -345 229 -345c118 0 227 70 227 345zM671 347c0 -199 -95 -356 -315 -356s-315 157 -315 356c0 198 95 366 315 366s315 -168 315 -366zM389 -84l141 -51c74 -24 116 4 143 24l8 -8l-60 -47
c-76 -57 -127 -42 -286 29l-73 32c-58 23 -132 -9 -156 -25l-10 9c129 106 293 37 293 37z" />
    <glyph glyph-name="R" unicode="R" horiz-adv-x="585" 
d="M395 513c0 187 -98 180 -210 180h-31v-358h31c122 0 210 -1 210 178zM584 11v-11h-68c-104 0 -94 1 -145 218c-25 106 -131 106 -170 106h-47v-228c0 -70 18 -85 60 -85v-11h-191v11c43 0 57 12 57 105v507c0 62 -13 70 -57 70v11h162c199 0 295 -24 295 -191
c0 -142 -80 -181 -182 -184c67 -7 129 4 183 -234c17 -77 77 -82 103 -84z" />
    <glyph glyph-name="S" unicode="S" horiz-adv-x="544" 
d="M459 73c0 0 -41 -82 -193 -82c-147 0 -220 54 -220 54v192h10c5 -153 44 -235 210 -235c174 0 188 181 73 261l-171 113c-72 50 -182 135 -108 259c0 0 49 78 179 78c132 0 214 -47 214 -47v-168h-12c-4 122 -32 204 -202 204c-108 0 -212 -143 -51 -247l171 -112
c135 -89 141 -201 100 -270z" />
    <glyph glyph-name="T" unicode="T" horiz-adv-x="627" 
d="M19 704h589v-164h-11c-2 153 -146 154 -167 154h-79v-609c0 -65 24 -74 66 -74v-11h-208v11c42 0 66 9 66 74v609h-79c-46 0 -165 -1 -167 -154h-10v164z" />
    <glyph glyph-name="U" unicode="U" horiz-adv-x="684" 
d="M308 -9c-126 0 -224 83 -224 246v370c0 71 -22 86 -66 86v11h215v-11c-43 0 -73 -6 -73 -88v-377c0 -128 74 -200 190 -200c115 0 188 76 188 206v259c0 142 -4 200 -110 200v11h238v-11c-121 0 -117 -58 -117 -200v-259c1 -162 -100 -243 -241 -243z" />
    <glyph glyph-name="V" unicode="V" horiz-adv-x="720" 
d="M467 704h231v-11c-76 0 -90 1 -176 -239l-169 -454h-12c-61 148 -235 624 -235 624c-26 68 -56 69 -94 69v11h243v-11c-82 0 -71 -64 -67 -74l190 -525l133 362c48 139 90 237 -44 237v11z" />
    <glyph glyph-name="W" unicode="W" horiz-adv-x="1019" 
d="M772 704h234v-11c-87 0 -98 -24 -175 -239l-160 -454h-12l-160 451l-147 -451h-13l-229 616c-26 68 -60 77 -98 77v11h245v-11c-88 0 -72 -61 -68 -71l186 -520l118 365l-50 149c-26 68 -60 77 -97 77v11h244v-11c-89 0 -71 -61 -68 -71l175 -523l122 357
c43 143 78 237 -47 237v11z" />
    <glyph glyph-name="X" unicode="X" horiz-adv-x="682" 
d="M537 102c54 -88 74 -89 121 -92v-10h-221v10c68 4 28 72 2 113l-119 200l-55 -86c-92 -173 -130 -227 -15 -227v-10h-237v10c66 0 90 1 242 236l57 88l-171 265c-58 90 -81 94 -121 94v11h236v-11c-36 0 -71 -16 -9 -116l106 -179l49 78c81 147 116 217 0 217v11h253v-11
c-79 0 -102 0 -243 -225l-51 -81c24 -34 176 -285 176 -285z" />
    <glyph glyph-name="Y" unicode="Y" horiz-adv-x="652" 
d="M403 704h236v-11c-52 0 -81 1 -191 -219l-83 -167v-199c0 -88 30 -97 72 -97v-11h-209v11c42 0 70 9 70 97v186l-185 322c-45 77 -67 75 -103 78v10h225v-10c-31 0 -91 2 -23 -113l150 -258l81 165c51 103 91 205 -40 205v11z" />
    <glyph glyph-name="Z" unicode="Z" horiz-adv-x="504" 
d="M126 12h12c237 0 296 42 324 222h15l-24 -234h-429l371 693h-50c-213 0 -271 -26 -297 -191h-16l17 202h427z" />
    <glyph glyph-name="bracketleft" unicode="[" horiz-adv-x="297" 
d="M113 735h168v-12c-54 0 -106 -1 -106 -85v-696c0 -73 54 -76 106 -76v-12h-168v881z" />
    <glyph glyph-name="backslash" unicode="\" horiz-adv-x="402" 
d="M323 -16l-308 748h58l308 -748h-58z" />
    <glyph glyph-name="bracketright" unicode="]" horiz-adv-x="298" 
d="M11 735h168v-881h-168v12c52 0 106 3 106 76v696c0 84 -52 85 -106 85v12z" />
    <glyph glyph-name="asciicircum" unicode="^" horiz-adv-x="559" 
d="M288 704l177 -328h-22l-167 231l-164 -231h-23l176 328h23z" />
    <glyph glyph-name="underscore" unicode="_" horiz-adv-x="560" 
d="M0 -81h560v-38h-560v38z" />
    <glyph glyph-name="grave" unicode="`" horiz-adv-x="313" 
d="M69 718l181 -161h-15l-231 142z" />
    <glyph glyph-name="a" unicode="a" horiz-adv-x="466" 
d="M295 251c-125 -30 -185 -73 -185 -138c0 -43 27 -85 86 -85c62 0 88 44 99 68v155zM410 31c0 0 25 0 32 31l10 -4c-6 -30 -33 -67 -80 -67c0 0 -74 -3 -77 86c-14 -50 -71 -86 -141 -86c0 0 -113 0 -113 104c0 95 85 123 254 167v56c0 103 -49 164 -134 126
c-43 -20 -50 -41 -44 -42c10 -2 20 -6 27 -15c15 -18 11 -44 -7 -59c-17 -14 -43 -12 -57 7c-10 13 -12 30 -6 43c6 14 25 45 78 74c42 21 90 19 90 19c98 0 125 -81 125 -200v-180s-1 -60 43 -60z" />
    <glyph glyph-name="b" unicode="b" horiz-adv-x="544" 
d="M403 212c0 154 -59 231 -150 231c-74 0 -120 -52 -120 -131v-164c0 -92 51 -146 124 -146c63 0 146 47 146 210zM488 228c0 -151 -97 -237 -228 -237c-57 0 -103 19 -137 49c-22 -25 -58 -51 -58 -35v644c0 34 -9 48 -51 52v11l119 22v-340c30 51 94 77 147 77
c144 0 208 -116 208 -243z" />
    <glyph glyph-name="c" unicode="c" 
d="M431 127l8 -3c-9 -49 -56 -133 -178 -133c-101 0 -216 76 -216 238c0 126 91 242 235 242c112 0 135 -52 139 -69c4 -13 3 -29 -8 -40c-14 -14 -41 -16 -55 -2c-16 16 -17 40 -1 55c8 8 19 13 26 11c10 -2 -21 34 -101 34c-42 0 -158 -30 -158 -223
c0 -147 83 -204 155 -207c85 -4 138 53 154 97z" />
    <glyph glyph-name="d" unicode="d" horiz-adv-x="522" 
d="M391 134v192c0 82 -59 134 -121 134c-63 0 -147 -42 -147 -207c0 -157 59 -236 149 -236c65 0 119 47 119 117zM510 19v-10l-91 -17c-28 -5 -28 18 -28 18v51c-30 -47 -93 -70 -144 -70c-144 0 -209 115 -209 245c0 153 99 235 229 235c50 0 92 -16 124 -40v216
c0 35 -10 50 -51 54v11l119 22v-665c0 -49 11 -52 51 -50z" />
    <glyph glyph-name="e" unicode="e" 
d="M113 252h252c0 155 -77 208 -121 208c-57 0 -131 -68 -131 -208zM409 120l8 -3c-7 -45 -61 -126 -171 -126c-121 0 -210 95 -210 235c0 151 93 245 209 245c103 0 188 -73 188 -231h-320c2 -153 67 -209 151 -213c64 -3 129 42 145 93z" />
    <glyph glyph-name="f" unicode="f" horiz-adv-x="287" 
d="M319 663c-8 -22 -33 -34 -56 -26c-22 9 -34 32 -25 56c4 11 12 19 21 22c8 3 -8 18 -33 18c-52 0 -80 -44 -80 -271h114l-2 -11h-112v-379c0 -52 16 -56 52 -62v-10h-160v10c38 7 39 14 39 62v379h-64l-1 11h65c0 211 37 281 149 281c41 0 75 -20 84 -32s14 -32 9 -48z
" />
    <glyph glyph-name="g" unicode="g" horiz-adv-x="528" 
d="M360 317c0 112 -71 143 -114 143c-50 0 -112 -31 -112 -143s68 -145 112 -145c46 0 114 33 114 145zM507 405c-17 -14 -42 -11 -56 6c-6 9 -9 20 -6 30c2 8 -33 5 -52 -24c26 -25 39 -64 39 -100c0 -81 -73 -156 -186 -156c-39 0 -70 6 -97 18c-56 -6 -102 -119 23 -119
h110c69 0 192 9 175 -112c0 0 -3 -75 -108 -134c-134 -76 -280 -58 -322 15c-38 65 -1 136 68 179c-30 15 -41 42 -41 73c0 0 -6 81 85 103c-54 24 -77 80 -77 133c0 81 73 154 184 154c56 0 108 -18 140 -48c25 37 65 53 88 54c16 1 32 -4 41 -16c14 -18 10 -43 -8 -56z
M87 -153c43 -51 170 -77 256 -23c84 53 78 116 78 116s-1 51 -93 51h-140c-11 0 -49 -1 -82 11c-97 -68 -16 -158 -19 -155z" />
    <glyph glyph-name="h" unicode="h" horiz-adv-x="485" 
d="M471 10v-10h-149v10c38 11 40 18 40 69v224c0 80 -38 129 -114 129c-60 0 -100 -59 -113 -90v-263c0 -55 5 -59 41 -68v-11h-150v11c38 11 40 17 40 68v569c0 35 -8 48 -50 52v11l119 23v-379c14 59 83 116 151 116c83 0 144 -44 144 -164v-228c0 -55 6 -60 41 -69z" />
    <glyph glyph-name="i" unicode="i" horiz-adv-x="226" 
d="M103 556c-24 0 -42 19 -42 42c0 24 18 43 42 43c23 0 43 -19 43 -43c0 -23 -20 -42 -43 -42zM188 11v-11h-149v11c38 11 40 16 40 67v306c0 34 -8 48 -50 54v10l118 23v-393c0 -55 5 -58 41 -67z" />
    <glyph glyph-name="j" unicode="j" horiz-adv-x="225" 
d="M102 556c-24 0 -42 19 -42 42c0 25 18 43 42 43c23 0 43 -18 43 -43c0 -23 -20 -42 -43 -42zM77 27v352c0 34 -6 53 -49 59v10l118 23v-421c0 -189 -60 -253 -159 -278v10c90 30 90 192 90 245z" />
    <glyph glyph-name="k" unicode="k" horiz-adv-x="493" 
d="M476 11v-11h-63c-69 0 -93 19 -168 118c-8 11 -86 103 -86 103l94 96s152 136 16 135v10h217v-10c-61 -1 -95 -15 -271 -199c37 -52 183 -207 183 -207c28 -32 52 -35 78 -35zM170 11v-11h-150v11c38 11 40 16 40 67v570c0 35 -8 49 -50 53v11l119 22v-656
c0 -55 5 -58 41 -67z" />
    <glyph glyph-name="l" unicode="l" horiz-adv-x="211" 
d="M183 11v-11h-150v11c38 11 40 16 40 67v570c0 35 -8 49 -50 53v11l119 22v-656c0 -55 5 -58 41 -67z" />
    <glyph glyph-name="m" unicode="m" horiz-adv-x="721" 
d="M707 10v-10h-149v10c38 11 40 17 40 68v226c0 80 -28 129 -100 129c-58 0 -90 -56 -100 -90v-37v-228c0 -55 6 -59 41 -68v-10h-149v10c38 11 40 17 40 68v226c0 80 -26 129 -99 129c-58 0 -92 -55 -102 -88v-267c0 -55 5 -58 41 -67v-11h-150v11c38 11 40 16 40 67v304
c0 35 -8 50 -50 56v10l119 23v-102c19 56 74 102 137 102c70 0 115 -31 128 -108c18 59 74 108 138 108c83 0 134 -43 134 -163v-230c0 -55 5 -59 41 -68z" />
    <glyph glyph-name="n" unicode="n" horiz-adv-x="486" 
d="M462 10v-10h-149v10c38 11 40 17 40 68v226c0 78 -40 129 -114 129c-57 0 -98 -54 -110 -88v-267c0 -55 5 -58 41 -67v-11h-150v11c38 11 40 16 40 67v305c0 35 -8 49 -50 55v10l119 23v-103c20 56 85 103 148 103c82 0 144 -43 144 -163v-230c0 -55 5 -59 41 -68z" />
    <glyph glyph-name="o" unicode="o" horiz-adv-x="534" 
d="M414 231c0 181 -67 229 -146 229s-147 -48 -147 -229s68 -229 147 -229s146 48 146 229zM495 231c0 -131 -74 -240 -227 -240c-152 0 -227 109 -227 240c0 132 75 240 227 240c153 0 227 -108 227 -240z" />
    <glyph glyph-name="p" unicode="p" horiz-adv-x="547" 
d="M405 210c0 158 -61 234 -150 234c-71 0 -116 -48 -120 -120v-191c4 -83 54 -131 123 -131c64 0 147 44 147 208zM490 227c0 -153 -98 -236 -228 -236c-53 0 -95 16 -127 41v-221c0 -55 5 -56 41 -65v-11h-150v11c38 11 40 14 40 65v575c0 35 -8 48 -50 52v10l119 23v-76
c29 50 93 76 146 76c144 0 209 -115 209 -244z" />
    <glyph glyph-name="q" unicode="q" horiz-adv-x="530" 
d="M389 122v214c-5 78 -59 124 -119 124c-63 0 -146 -42 -146 -207c0 -157 59 -239 149 -239c62 0 111 43 116 108zM499 -254v-11h-150v11c38 11 40 14 40 65v243c-32 -42 -90 -63 -138 -63c-144 0 -209 116 -209 246c0 152 98 234 228 234c52 0 96 -16 129 -42
c18 26 59 46 59 30v-648c0 -55 5 -56 41 -65z" />
    <glyph glyph-name="r" unicode="r" horiz-adv-x="336" 
d="M276 469c16 0 34 -7 45 -22c14 -22 8 -50 -14 -64c-21 -14 -50 -8 -65 14c-6 10 -8 22 -5 33c5 20 -75 -11 -104 -81v-271c0 -55 5 -58 41 -67v-11h-150v11c38 11 40 16 40 67v306c0 34 -8 49 -50 54v10l119 23v-100c29 59 94 98 143 98z" />
    <glyph glyph-name="s" unicode="s" horiz-adv-x="417" 
d="M338 38c0 0 -32 -47 -120 -47c-121 0 -172 37 -172 37v141h10c4 -80 25 -167 162 -167c123 0 97 115 21 165l-101 61c-95 66 -115 116 -82 182c0 0 26 61 128 61c115 0 163 -32 163 -32v-127h-10c-4 70 -30 148 -153 148c-109 0 -106 -102 -19 -157l101 -63
c91 -56 119 -135 72 -202z" />
    <glyph glyph-name="t" unicode="t" horiz-adv-x="298" 
d="M276 75l8 -4c-11 -42 -49 -80 -102 -80c-69 0 -113 32 -113 153v307h-50l-2 11h52v147l69 9v-156h118l-2 -11h-116v-304c0 -91 31 -118 77 -118c29 0 53 22 61 46z" />
    <glyph glyph-name="u" unicode="u" horiz-adv-x="501" 
d="M484 18v-10l-97 -16c-23 -5 -23 13 -23 13v83c-14 -51 -71 -97 -140 -97s-151 23 -151 150v230c0 67 0 71 -56 71v11l123 18v-327c0 -85 55 -115 113 -115c60 0 96 40 111 83v264c0 61 1 65 -47 66v11l116 18v-392c0 -48 9 -56 51 -61z" />
    <glyph glyph-name="v" unicode="v" horiz-adv-x="515" 
d="M324 462h192v-10c-45 0 -69 -1 -116 -116l-126 -345h-8l-192 411c-25 49 -54 48 -70 50v10h193v-10c-72 0 -37 -67 -37 -67l137 -300l88 242s49 125 -61 125v10z" />
    <glyph glyph-name="w" unicode="w" horiz-adv-x="716" 
d="M540 462h169v-10c-29 0 -63 -6 -97 -108l-118 -353h-7l-126 305l-104 -305h-8l-167 403c-21 50 -51 56 -66 58v10h170v-10c-55 0 -29 -58 -29 -58l122 -304l76 222l-35 82c-21 50 -45 56 -60 58v10h171v-10c-66 0 -35 -62 -35 -62l121 -300l85 260s34 102 -62 102v10z
" />
    <glyph glyph-name="x" unicode="x" horiz-adv-x="504" 
d="M405 66c38 -55 76 -54 94 -56v-10h-181v10c53 0 0 71 0 71l-80 116l-34 -48c-66 -100 -89 -139 -2 -139v-10h-191v10c36 0 79 -7 185 146l35 50l-131 190c-40 50 -54 55 -85 56v10h185v-10c-25 0 -48 -15 -7 -74l76 -111l32 45c49 79 93 140 -12 140v10h207v-10
c-46 -1 -85 4 -187 -148l-34 -47z" />
    <glyph glyph-name="y" unicode="y" horiz-adv-x="531" 
d="M323 462h192v-10c-42 0 -71 -12 -126 -162l-156 -433c-18 -53 -43 -74 -55 -84c-12 -9 -35 -13 -51 -6c-23 11 -32 37 -23 59c11 23 37 33 59 23c12 -5 20 -16 23 -27c4 -15 24 2 37 37l49 139l-186 397c-22 49 -59 55 -75 57v10h193v-10c-71 0 -32 -79 -32 -79l133 -286
l73 205s61 161 -55 160v10z" />
    <glyph glyph-name="z" unicode="z" horiz-adv-x="397" 
d="M368 462l-249 -452c150 0 219 28 232 142h12l-9 -152h-325l258 452c-134 0 -228 -14 -240 -122h-12l5 132h328z" />
    <glyph glyph-name="braceleft" unicode="{" horiz-adv-x="319" 
d="M263 -157l-1 -7c-79 11 -134 52 -134 167v117c0 148 -39 143 -79 156v7c40 14 79 10 79 168v117c0 115 55 156 134 167l1 -7c-41 -15 -75 -56 -75 -160v-144c0 -110 -69 -144 -102 -144c33 0 102 -24 102 -133v-144c0 -104 34 -146 75 -160z" />
    <glyph glyph-name="bar" unicode="|" horiz-adv-x="194" 
d="M73 -164v899h49v-899h-49z" />
    <glyph glyph-name="braceright" unicode="}" horiz-adv-x="320" 
d="M53 -164l-1 7c41 14 75 56 75 160v144c0 109 69 133 102 133c-33 0 -102 34 -102 144v144c0 104 -34 145 -75 160l1 7c79 -11 134 -52 134 -167v-117c0 -158 39 -154 79 -168v-7c-40 -13 -79 -8 -79 -156v-117c0 -115 -55 -156 -134 -167z" />
    <glyph glyph-name="asciitilde" unicode="~" horiz-adv-x="567" 
d="M329 221l-111 43c-33 12 -122 15 -150 -44l-6 2c55 141 180 97 180 97l113 -43c32 -13 124 -11 148 44l6 -2c-55 -142 -180 -97 -180 -97z" />
    <glyph glyph-name="uni007F" horiz-adv-x="0" 
 />
    <glyph glyph-name="uni00A0" unicode="&#xa0;" horiz-adv-x="242" 
 />
    <glyph glyph-name="exclamdown" unicode="&#xa1;" horiz-adv-x="263" 
d="M114 390h39l17 -565h-74zM134 569c28 0 51 -22 51 -50s-23 -50 -51 -50s-50 22 -50 50s22 50 50 50z" />
    <glyph glyph-name="cent" unicode="&#xa2;" horiz-adv-x="513" 
d="M152 237c0 -135 70 -195 138 -207v429c-50 -8 -138 -54 -138 -222zM461 128l8 -3c-9 -48 -51 -127 -160 -134v-109h-19v109c-110 3 -215 80 -215 238c0 120 82 232 215 242v122h19v-122c112 0 136 -52 140 -69c4 -13 3 -28 -8 -40c-15 -14 -41 -16 -55 -2
c-16 16 -17 40 -1 55c8 8 19 11 26 11c10 -1 -22 34 -102 34v-431c84 -1 136 55 152 99z" />
    <glyph glyph-name="sterling" unicode="&#xa3;" horiz-adv-x="635" 
d="M294 89c-34 25 -66 44 -95 56c-102 43 -165 -34 -153 -78c17 -64 80 -65 93 -65c68 0 126 30 155 87zM248 172c0 0 39 -18 58 -33c7 46 -5 82 -42 141l-54 83h-97v11h91c-155 294 65 416 206 354c57 -25 72 -68 78 -89c4 -15 -3 -35 -18 -47c-20 -17 -50 -14 -67 6
c-18 21 -14 51 6 68c11 9 23 12 35 10c12 -1 -2 29 -39 42c-149 52 -280 -65 -110 -344h177v-11h-169l34 -49c44 -72 32 -146 11 -194c51 -34 103 -55 103 -55c52 -20 121 -1 124 59l12 -1c1 -104 -80 -130 -110 -132c-46 -2 -94 35 -159 83c-46 -69 -109 -83 -178 -83
c-10 0 -82 5 -105 74c-14 47 39 174 213 107z" />
    <glyph glyph-name="currency" unicode="&#xa4;" horiz-adv-x="530" 
d="M137 471c-34 -34 -52 -80 -52 -126s18 -91 52 -125c33 -33 78 -52 125 -52c48 0 92 19 125 52s52 78 52 126c0 47 -19 91 -52 125c-33 33 -77 52 -125 52c-47 0 -92 -19 -125 -52zM437 204l69 -70l-32 -32l-71 69c-39 -32 -88 -51 -141 -51s-101 19 -141 51l-70 -69
l-33 32l69 70c-32 40 -50 89 -50 142c0 52 18 101 50 141l-69 69l33 34l70 -70c40 33 88 50 141 50s102 -17 141 -50l71 70l32 -34l-69 -69c32 -40 50 -89 50 -141c0 -53 -18 -102 -50 -142z" />
    <glyph glyph-name="yen" unicode="&#xa5;" horiz-adv-x="571" 
d="M366 694v10h236v-10c-52 0 -81 1 -191 -219l-79 -159h173v-14h-175v-67h175v-14h-175v-114c0 -87 28 -96 70 -96v-11h-209v11c42 0 70 9 70 96v114h-195v14h195v58l-5 9h-190v14h183l-173 300c-45 77 -66 76 -103 79v9h225v-9c-31 0 -91 1 -23 -114l149 -256l80 162
c51 103 93 207 -38 207z" />
    <glyph glyph-name="brokenbar" unicode="&#xa6;" horiz-adv-x="198" 
d="M119 735v-375h-48v375h48zM119 186v-377h-48v377h48z" />
    <glyph glyph-name="section" unicode="&#xa7;" horiz-adv-x="517" 
d="M185 414c-149 -96 -83 -201 -1 -259c36 -25 93 -63 119 -82c19 -13 33 -23 35 -25c148 97 81 202 -2 260c-37 27 -99 69 -124 86c-15 11 -26 18 -27 20zM347 40c52 -44 84 -86 74 -163c-16 -130 -139 -136 -193 -132c-51 3 -101 42 -113 76c-5 14 -2 33 9 45
c16 18 43 19 62 3c18 -16 20 -45 3 -62c-9 -9 -19 -15 -31 -14c-13 1 27 -31 66 -37c64 -8 138 20 147 93c9 60 -10 94 -87 151l-129 89c-115 82 -158 218 20 333c-54 47 -83 87 -74 164c16 129 135 136 189 133c53 -3 102 -43 114 -77c5 -14 3 -33 -7 -45
c-16 -18 -44 -19 -63 -2c-17 16 -19 43 -3 61c8 8 18 14 28 13c13 -1 -19 33 -59 38c-78 7 -143 -19 -153 -93c-8 -59 12 -92 90 -152l128 -88c116 -81 160 -221 -18 -334z" />
    <glyph glyph-name="dieresis" unicode="&#xa8;" horiz-adv-x="207" 
d="M136 646c0 23 18 41 40 41s40 -18 40 -41c0 -21 -18 -39 -40 -39s-40 18 -40 39zM-9 646c0 23 17 41 40 41c21 0 40 -18 40 -41c0 -21 -19 -39 -40 -39c-23 0 -40 18 -40 39z" />
    <glyph glyph-name="copyright" unicode="&#xa9;" horiz-adv-x="792" 
d="M515 276h8l5 -86c-42 -28 -70 -35 -130 -35c-115 0 -196 71 -196 204s81 202 196 202c58 0 95 -5 130 -34l-5 -86h-8c-4 105 -85 109 -117 109c-53 0 -137 -14 -137 -191c0 -182 91 -193 137 -193c31 0 113 4 117 110zM392 43c178 0 325 146 325 325s-147 326 -325 326
c-179 0 -325 -147 -325 -326s146 -325 325 -325zM392 730c201 0 364 -162 364 -362c0 -201 -163 -362 -364 -362c-202 0 -363 161 -363 362c0 200 161 362 363 362z" />
    <glyph glyph-name="ordfeminine" unicode="&#xaa;" horiz-adv-x="283" 
d="M153 583c-65 -15 -97 -33 -97 -66c0 -24 14 -44 46 -44s46 22 51 37v73zM228 490l10 -3c-2 -21 -19 -34 -45 -34c0 0 -39 0 -39 36c-7 -21 -38 -36 -75 -36c0 0 -59 -1 -59 54c0 50 44 65 133 88v29c0 54 -25 81 -70 61c-21 -9 -26 -17 -23 -17c6 0 10 -3 14 -8
c7 -9 5 -23 -4 -30c-9 -8 -22 -7 -30 3c-4 6 -5 15 -2 23c2 7 13 24 40 38c22 11 48 10 48 10c51 0 64 -42 64 -105v-94s0 -32 23 -31c0 0 13 0 15 16z" />
    <glyph glyph-name="guillemotleft" unicode="&#xab;" horiz-adv-x="610" 
d="M522 505v-20l-161 -219l161 -214v-19l-231 233zM318 505v-20l-162 -219l162 -214v-19l-231 233z" />
    <glyph glyph-name="logicalnot" unicode="&#xac;" horiz-adv-x="638" 
d="M41 388h550v-302h-52v253h-498v49z" />
    <glyph glyph-name="uni00AD" unicode="&#xad;" horiz-adv-x="444" 
d="M379 227h-315v55h315v-55z" />
    <glyph glyph-name="registered" unicode="&#xae;" horiz-adv-x="802" 
d="M352 357c68 0 117 -1 117 98c0 94 -54 94 -117 94h-17v-192h17zM516 222c6 -41 43 -41 57 -41v-11h-42c-57 0 -46 1 -75 121c-13 55 -95 55 -95 55h-26v-118c0 -39 10 -47 33 -47v-11h-105v11c24 0 32 6 32 57v274c0 35 -8 37 -32 37v11h89c111 0 163 -13 163 -105
c0 -80 -45 -102 -93 -104c26 -1 76 -6 94 -129zM393 730c201 0 364 -161 364 -362c0 -200 -163 -362 -364 -362c-202 0 -363 162 -363 362c0 201 161 362 363 362zM393 44c178 0 325 145 325 324c0 180 -147 326 -325 326c-179 0 -325 -146 -325 -326
c0 -179 146 -324 325 -324z" />
    <glyph glyph-name="macron" unicode="&#xaf;" horiz-adv-x="360" 
d="M377 601h-393v42h393v-42z" />
    <glyph glyph-name="degree" unicode="&#xb0;" horiz-adv-x="381" 
d="M85 607c0 -56 46 -101 103 -101c55 0 101 45 101 101c0 55 -46 101 -101 101c-57 0 -103 -46 -103 -101zM57 607c0 72 59 130 130 130s130 -58 130 -130c0 -71 -59 -128 -130 -128s-130 57 -130 128z" />
    <glyph glyph-name="plusminus" unicode="&#xb1;" horiz-adv-x="608" 
d="M326 363h234v-52h-234v-171h-52v171h-233v52h233v173h52v-173zM41 0v52h519v-52h-519z" />
    <glyph glyph-name="twosuperior" unicode="&#xb2;" horiz-adv-x="256" 
d="M199 434h11l-15 -56h-164l100 152c104 151 -77 188 -87 87l-12 1c1 89 83 86 83 86c46 0 79 -35 79 -77c0 -29 -17 -55 -53 -103l-76 -115h95c15 0 29 8 39 25z" />
    <glyph glyph-name="threesuperior" unicode="&#xb3;" horiz-adv-x="257" 
d="M217 469c1 -79 -64 -95 -104 -95c-39 0 -64 15 -74 27c-5 6 -5 17 -2 22c6 10 18 14 28 9s14 -18 9 -28c-3 -5 -6 -8 -10 -9c-3 0 12 -11 49 -11c45 0 74 20 69 79c-3 33 -22 72 -87 74v10c66 6 91 80 45 120c-34 29 -91 7 -95 -38l-12 1c2 74 80 74 87 74
c79 0 113 -119 22 -154c51 -9 75 -46 75 -81z" />
    <glyph glyph-name="acute" unicode="&#xb4;" horiz-adv-x="338" 
d="M87 557l181 161l65 -19l-231 -142h-15z" />
    <glyph glyph-name="mu" unicode="&#xb5;" horiz-adv-x="497" 
d="M478 18v-10l-97 -16c-23 -5 -23 13 -23 13v83c-16 -68 -125 -131 -224 -74v-189c0 -48 9 -58 51 -63v-10l-96 -16c-23 -5 -22 13 -22 13v622c0 67 1 69 -56 71v11l123 18v-338c5 -77 57 -104 113 -104c60 0 96 40 111 83v264c0 61 1 65 -47 66v11l116 18v-392
c0 -48 9 -56 51 -61z" />
    <glyph glyph-name="paragraph" unicode="&#xb6;" horiz-adv-x="613" 
d="M449 588v-727c0 -78 27 -115 75 -115v-11h-129v969h136v-12c-50 0 -82 -34 -82 -104zM288 704h51v-969h-157v11c48 0 105 18 105 88v466c-136 0 -250 34 -250 200c0 165 130 203 250 204h1z" />
    <glyph glyph-name="periodcentered" unicode="&#xb7;" horiz-adv-x="241" 
d="M118 259c-22 0 -40 18 -40 40s18 40 40 40s41 -18 41 -40s-19 -40 -41 -40z" />
    <glyph glyph-name="cedilla" unicode="&#xb8;" horiz-adv-x="261" 
d="M106 -4h12l-23 -64c93 21 135 -29 128 -80c-9 -71 -67 -79 -101 -79c-42 0 -59 17 -63 22c-4 6 -5 15 -2 22c5 11 18 15 29 10c10 -5 14 -18 9 -28c-3 -6 -7 -8 -11 -9c-3 0 8 -10 38 -11c36 0 64 21 64 62c0 30 -20 90 -109 69z" />
    <glyph glyph-name="onesuperior" unicode="&#xb9;" horiz-adv-x="191" 
d="M117 426c0 -35 18 -35 34 -35v-11h-102v11c19 0 36 2 36 35v212c0 28 -17 21 -39 5l-7 9l63 52h15v-278z" />
    <glyph glyph-name="ordmasculine" unicode="&#xba;" horiz-adv-x="322" 
d="M160 384c42 0 86 23 86 153c0 132 -46 159 -86 159c-41 0 -86 -27 -86 -159c0 -130 46 -153 86 -153zM160 707c104 0 126 -94 126 -170c0 -74 -22 -164 -126 -164c-105 0 -126 90 -126 164c0 76 21 170 126 170z" />
    <glyph glyph-name="guillemotright" unicode="&#xbb;" horiz-adv-x="609" 
d="M84 485v20l231 -239l-231 -233v19l161 214zM288 485v20l231 -239l-231 -233v19l162 214z" />
    <glyph glyph-name="onequarter" unicode="&#xbc;" horiz-adv-x="611" 
d="M148 674c0 32 -19 23 -44 3l-7 9l69 60h17v-320c0 -40 20 -40 38 -40v-11h-112v11c21 0 39 2 39 40v248zM453 131v182l-110 -164c-11 -18 -8 -18 8 -18h102zM493 366v-235h48v-22h-48v-47c0 -50 14 -51 36 -51v-11h-112v11c21 0 36 2 36 49v49h-148v6l170 252zM571 709
h43l-558 -673h-42z" />
    <glyph glyph-name="onehalf" unicode="&#xbd;" horiz-adv-x="638" 
d="M587 65h7l-18 -65h-186l113 174c120 174 -92 217 -103 99l-9 2c2 102 95 98 95 98c53 0 89 -40 89 -87c0 -34 -20 -64 -61 -119c-25 -35 -88 -131 -88 -131h110c18 0 39 9 51 29zM147 674c0 31 -18 22 -43 3l-7 9l69 60h17v-320c0 -40 20 -40 37 -40v-11h-111v11
c21 0 38 2 38 40v248zM571 709h43l-558 -673h-42z" />
    <glyph glyph-name="threequarters" unicode="&#xbe;" horiz-adv-x="606" 
d="M454 130v182l-110 -163c-12 -19 -8 -19 8 -19h102zM542 108h-48v-47c0 -49 14 -50 36 -50v-11h-112v11c21 0 36 2 36 48v49h-148v7l170 251l18 -1v-235h48v-22zM262 481c0 -91 -73 -108 -118 -108c-44 0 -73 17 -84 30c-6 7 -6 19 -2 25c7 12 20 16 31 10
c12 -7 16 -20 10 -32c-3 -5 -6 -8 -9 -8c-4 -1 12 -14 54 -14c53 0 84 22 78 90c-3 36 -25 83 -99 85v9c75 7 103 91 51 136c-38 32 -103 7 -107 -43l-13 2c2 83 90 83 97 83c90 0 128 -135 26 -175c57 -9 84 -50 85 -90zM571 709h43l-558 -673h-42z" />
    <glyph glyph-name="questiondown" unicode="&#xbf;" horiz-adv-x="584" 
d="M268 419c0 30 24 53 54 53c29 0 52 -23 52 -53c0 -29 -23 -53 -52 -53c-30 0 -54 24 -54 53zM257 147c50 24 68 75 63 135l17 2c6 -39 12 -102 -52 -156c-43 -37 -107 -79 -96 -209c15 -171 146 -181 232 -148c48 18 43 47 30 48c-11 1 -21 8 -28 18c-14 21 -9 49 11 64
c20 14 49 8 63 -13c11 -14 9 -31 5 -46c-4 -17 -29 -59 -76 -79c-161 -72 -317 0 -325 152c-7 145 102 206 156 232z" />
    <glyph glyph-name="Agrave" unicode="&#xc0;" horiz-adv-x="674" 
d="M438 233h-263l127 351zM660 11c-29 2 -49 6 -81 86l-243 607h-7l-165 -455c-81 -227 -106 -238 -150 -238v-11h212v11c-130 -2 -96 91 -54 211h270l36 -95c36 -84 25 -116 -17 -116v-11h199v11zM263 895l181 -161h-15l-231 142z" />
    <glyph glyph-name="Aacute" unicode="&#xc1;" horiz-adv-x="674" 
d="M175 233h263l-136 351zM660 11v-11h-199v11c42 0 53 32 17 116l-36 95h-270c-42 -120 -76 -213 54 -211v-11h-212v11c44 0 69 11 150 238l165 455h7l243 -607c32 -80 52 -84 81 -86zM216 734l181 161l65 -19l-231 -142h-15z" />
    <glyph glyph-name="Acircumflex" unicode="&#xc2;" horiz-adv-x="674" 
d="M438 233h-263l127 351zM660 11c-29 2 -49 6 -81 86l-243 607h-7l-165 -455c-81 -227 -106 -238 -150 -238v-11h212v11c-130 -2 -96 91 -54 211h270l36 -95c36 -84 25 -116 -17 -116v-11h199v11zM448 735l-119 115l-119 -115h-17l136 188l136 -188h-17z" />
    <glyph glyph-name="Atilde" unicode="&#xc3;" horiz-adv-x="674" 
d="M377 775l-112 44c-32 12 -121 15 -148 -45l-6 2c54 142 179 98 179 98l112 -43c32 -13 125 -10 148 45l7 -3c-55 -143 -180 -98 -180 -98zM175 233h263l-136 351zM660 11v-11h-199v11c42 0 53 32 17 116l-36 95h-270c-42 -120 -76 -213 54 -211v-11h-212v11
c44 0 69 11 150 238l165 455h7l243 -607c32 -80 52 -84 81 -86z" />
    <glyph glyph-name="Adieresis" unicode="&#xc4;" horiz-adv-x="674" 
d="M366 824c0 23 17 41 39 41s41 -18 41 -41c0 -22 -19 -40 -41 -40s-39 18 -39 40zM220 824c0 23 18 41 40 41s40 -18 40 -41c0 -22 -18 -40 -40 -40s-40 18 -40 40zM175 233h263l-136 351zM660 11v-11h-199v11c42 0 53 32 17 116l-36 95h-270c-42 -120 -76 -213 54 -211
v-11h-212v11c44 0 69 11 150 238l165 455h7l243 -607c32 -80 52 -84 81 -86z" />
    <glyph glyph-name="Aring" unicode="&#xc5;" horiz-adv-x="674" 
d="M266 880c0 -37 29 -67 67 -67c37 0 67 30 67 67c0 38 -30 68 -67 68c-38 0 -67 -30 -67 -68zM238 880c0 53 42 96 95 96s95 -43 95 -96c0 -52 -42 -95 -95 -95s-95 43 -95 95zM175 233h263l-136 351zM660 11v-11h-199v11c42 0 53 32 17 116l-36 95h-270
c-42 -120 -76 -213 54 -211v-11h-212v11c44 0 69 11 150 238l165 455h7l243 -607c32 -80 52 -84 81 -86z" />
    <glyph glyph-name="AE" unicode="&#xc6;" horiz-adv-x="926" 
d="M223 244h226v369c0 5 -1 31 -1 35zM839 202h11v-202h-457v11c42 0 56 19 56 96v126h-232c-98 -178 -98 -222 2 -222v-11h-214v11c44 0 85 19 210 245l228 410c-8 25 -25 27 -54 27v11h448v-175h-11c-6 162 -125 164 -246 164h-49v-333h64c41 0 119 -3 122 100h11v-210
h-11c-3 103 -83 99 -122 99h-64v-338h36c133 0 262 -7 272 191z" />
    <glyph glyph-name="Ccedilla" unicode="&#xc7;" horiz-adv-x="660" 
d="M597 206h11l10 -153c-74 -49 -124 -62 -231 -62c-9 0 -12 0 -26 1l-20 -56c93 21 135 -29 128 -80c-9 -71 -67 -79 -101 -79c-42 0 -59 17 -63 22c-4 6 -5 15 -2 22c5 11 18 15 29 10c10 -5 14 -18 9 -28c-3 -6 -7 -8 -11 -9c-3 0 8 -10 38 -11c36 0 64 21 64 62
c0 30 -20 90 -109 69l26 79c-184 14 -309 139 -309 359c0 238 143 361 347 361c103 0 168 -10 231 -61l-10 -153h-11c-14 180 -146 203 -210 203c-101 0 -245 -34 -245 -350c0 -323 147 -350 245 -350c61 0 204 30 210 204z" />
    <glyph glyph-name="Egrave" unicode="&#xc8;" horiz-adv-x="578" 
d="M503 203h-11c-10 -199 -143 -192 -277 -192h-51v339h80c38 0 124 -1 127 -100h11v210h-11c-3 -98 -87 -99 -127 -99h-80v332h64c122 0 246 -2 251 -164h11v175h-459v-11c44 0 51 -18 51 -80v-506c0 -68 -9 -96 -51 -96v-11h472v203zM233 895l181 -161h-15l-231 142z" />
    <glyph glyph-name="Eacute" unicode="&#xc9;" horiz-adv-x="578" 
d="M492 203h11v-203h-472v11c42 0 51 28 51 96v506c0 62 -7 80 -51 80v11h459v-175h-11c-5 162 -129 164 -251 164h-64v-332h80c40 0 124 1 127 99h11v-210h-11c-3 99 -89 100 -127 100h-80v-339h51c134 0 267 -7 277 192zM148 734l181 161l65 -19l-231 -142h-15z" />
    <glyph glyph-name="Ecircumflex" unicode="&#xca;" horiz-adv-x="578" 
d="M503 203h-11c-10 -199 -143 -192 -277 -192h-51v339h80c38 0 124 -1 127 -100h11v210h-11c-3 -98 -87 -99 -127 -99h-80v332h64c122 0 246 -2 251 -164h11v175h-459v-11c44 0 51 -18 51 -80v-506c0 -68 -9 -96 -51 -96v-11h472v203zM393 735l-119 115l-119 -115h-17
l136 188l136 -188h-17z" />
    <glyph glyph-name="Edieresis" unicode="&#xcb;" horiz-adv-x="578" 
d="M304 824c0 23 17 41 40 41c21 0 40 -18 40 -41c0 -22 -19 -40 -40 -40c-23 0 -40 18 -40 40zM159 824c0 23 17 41 39 41s41 -18 41 -41c0 -22 -19 -40 -41 -40s-39 18 -39 40zM492 203h11v-203h-472v11c42 0 51 28 51 96v506c0 62 -7 80 -51 80v11h459v-175h-11
c-5 162 -129 164 -251 164h-64v-332h80c40 0 124 1 127 99h11v-210h-11c-3 99 -89 100 -127 100h-80v-339h51c134 0 267 -7 277 192z" />
    <glyph glyph-name="Igrave" unicode="&#xcc;" horiz-adv-x="292" 
d="M255 704h-206v-10c44 0 63 -12 63 -74v-520c0 -68 -20 -89 -63 -89v-11h206v11c-42 0 -62 21 -62 89v520c0 62 19 74 62 74v10zM87 895l181 -161h-15l-231 142z" />
    <glyph glyph-name="Iacute" unicode="&#xcd;" horiz-adv-x="292" 
d="M49 704h206v-10c-43 0 -62 -12 -62 -74v-520c0 -68 20 -89 62 -89v-11h-206v11c43 0 63 21 63 89v520c0 62 -19 74 -63 74v10zM43 734l181 161l65 -19l-231 -142h-15z" />
    <glyph glyph-name="Icircumflex" unicode="&#xce;" horiz-adv-x="292" 
d="M255 704h-206v-10c44 0 63 -12 63 -74v-520c0 -68 -20 -89 -63 -89v-11h206v11c-42 0 -62 21 -62 89v520c0 62 19 74 62 74v10zM272 735l-119 115l-119 -115h-17l136 188l136 -188h-17z" />
    <glyph glyph-name="Idieresis" unicode="&#xcf;" horiz-adv-x="292" 
d="M225 785c-22 0 -40 17 -40 39c0 23 18 41 40 41s40 -18 40 -41c0 -22 -18 -39 -40 -39zM120 824c0 -22 -19 -39 -40 -39c-23 0 -40 17 -40 39c0 23 17 41 40 41c21 0 40 -18 40 -41zM49 694v10h207v-10c-43 0 -63 -12 -63 -74v-520c0 -68 21 -89 63 -89v-11h-207v11
c43 0 63 21 63 89v520c0 62 -19 74 -63 74z" />
    <glyph glyph-name="Eth" unicode="&#xd0;" horiz-adv-x="670" 
d="M532 351c0 329 -177 343 -293 343h-44v-332h142v-21h-142v-330h44c112 0 293 -2 293 340zM625 351c0 -308 -187 -351 -386 -351h-190v11c43 0 63 31 63 99v231h-100v21h100v234c0 62 -19 98 -63 98v10h190c199 0 386 -60 386 -353z" />
    <glyph glyph-name="Ntilde" unicode="&#xd1;" horiz-adv-x="771" 
d="M425 775l-112 44c-32 12 -121 15 -148 -45l-6 2c54 142 179 98 179 98l112 -43c32 -13 124 -10 148 45l7 -3c-56 -143 -180 -98 -180 -98zM478 704h277v-10c-141 0 -138 -97 -138 -236v-458h-21l-420 548v-300c0 -133 0 -237 129 -237v-11h-282v11c141 0 142 102 142 237
v313l-42 55c-64 80 -93 76 -119 78v10h155l447 -588v342c0 139 0 236 -128 236v10z" />
    <glyph glyph-name="Ograve" unicode="&#xd2;" horiz-adv-x="726" 
d="M583 347c0 -275 -109 -345 -227 -345c-119 0 -229 70 -229 345c0 274 110 355 229 355c118 0 227 -81 227 -355zM671 347c0 198 -95 366 -315 366s-315 -168 -315 -366c0 -199 95 -356 315 -356s315 157 315 356zM291 895l181 -161h-15l-231 142z" />
    <glyph glyph-name="Oacute" unicode="&#xd3;" horiz-adv-x="726" 
d="M583 347c0 274 -109 355 -227 355c-119 0 -229 -81 -229 -355c0 -275 110 -345 229 -345c118 0 227 70 227 345zM671 347c0 -199 -95 -356 -315 -356s-315 157 -315 356c0 198 95 366 315 366s315 -168 315 -366zM235 734l181 161l65 -19l-231 -142h-15z" />
    <glyph glyph-name="Ocircumflex" unicode="&#xd4;" horiz-adv-x="726" 
d="M583 347c0 -275 -109 -345 -227 -345c-119 0 -229 70 -229 345c0 274 110 355 229 355c118 0 227 -81 227 -355zM671 347c0 198 -95 366 -315 366s-315 -168 -315 -366c0 -199 95 -356 315 -356s315 157 315 356zM472 735l-119 115l-119 -115h-17l136 188l136 -188h-17z
" />
    <glyph glyph-name="Otilde" unicode="&#xd5;" horiz-adv-x="726" 
d="M292 818c-33 13 -121 16 -149 -44l-6 2c55 142 179 98 179 98l113 -44c32 -12 124 -9 148 46l6 -3c-55 -143 -180 -98 -180 -98zM583 347c0 -275 -109 -345 -227 -345c-119 0 -229 70 -229 345c0 274 110 355 229 355c118 0 227 -81 227 -355zM671 347
c0 198 -95 366 -315 366s-315 -168 -315 -366c0 -199 95 -356 315 -356s315 157 315 356z" />
    <glyph glyph-name="Odieresis" unicode="&#xd6;" horiz-adv-x="726" 
d="M390 824c0 23 17 41 39 41s41 -18 41 -41c0 -22 -19 -40 -41 -40s-39 18 -39 40zM245 824c0 23 17 41 39 41s40 -18 40 -41c0 -22 -18 -40 -40 -40s-39 18 -39 40zM583 347c0 274 -109 355 -227 355c-119 0 -229 -81 -229 -355c0 -275 110 -345 229 -345
c118 0 227 70 227 345zM671 347c0 -199 -95 -356 -315 -356s-315 157 -315 356c0 198 95 366 315 366s315 -168 315 -366z" />
    <glyph glyph-name="multiply" unicode="&#xd7;" horiz-adv-x="600" 
d="M343 254l198 -198l-43 -44l-198 199l-197 -199l-44 44l198 198l-198 198l44 44l197 -198l198 197l43 -43z" />
    <glyph glyph-name="Oslash" unicode="&#xd8;" horiz-adv-x="727" 
d="M357 2c118 0 227 70 227 346c0 120 -23 203 -57 258l-320 -541c41 -47 93 -63 150 -63zM128 348c0 -131 27 -215 67 -267l322 543c-42 59 -99 78 -160 78c-119 0 -229 -79 -229 -354zM553 650c82 -66 119 -179 119 -302c0 -200 -95 -357 -315 -357c-68 0 -124 15 -169 42
l-40 -68h-21l46 78c-90 61 -131 174 -131 305c0 199 95 365 315 365c75 0 135 -18 182 -51l50 83h21z" />
    <glyph glyph-name="Ugrave" unicode="&#xd9;" horiz-adv-x="684" 
d="M265 895l181 -161h-15l-231 142zM308 -9c141 0 242 81 241 243v259c0 142 -4 200 117 200v11h-238v-11c106 0 110 -58 110 -200v-259c0 -130 -73 -206 -188 -206c-116 0 -190 72 -190 200v377c0 82 30 88 73 88v11h-215v-11c44 0 66 -15 66 -86v-370
c0 -163 98 -246 224 -246z" />
    <glyph glyph-name="Uacute" unicode="&#xda;" horiz-adv-x="684" 
d="M308 -9c-126 0 -224 83 -224 246v370c0 71 -22 86 -66 86v11h215v-11c-43 0 -73 -6 -73 -88v-377c0 -128 74 -200 190 -200c115 0 188 76 188 206v259c0 142 -4 200 -110 200v11h238v-11c-121 0 -117 -58 -117 -200v-259c1 -162 -100 -243 -241 -243zM225 734l181 161
l65 -19l-231 -142h-15z" />
    <glyph glyph-name="Ucircumflex" unicode="&#xdb;" horiz-adv-x="684" 
d="M456 735l-119 115l-119 -115h-17l136 188l136 -188h-17zM308 -9c141 0 242 81 241 243v259c0 142 -4 200 117 200v11h-238v-11c106 0 110 -58 110 -200v-259c0 -130 -73 -206 -188 -206c-116 0 -190 72 -190 200v377c0 82 30 88 73 88v11h-215v-11c44 0 66 -15 66 -86
v-370c0 -163 98 -246 224 -246z" />
    <glyph glyph-name="Udieresis" unicode="&#xdc;" horiz-adv-x="684" 
d="M373 824c0 23 17 41 39 41s41 -18 41 -41c0 -22 -19 -40 -41 -40s-39 18 -39 40zM228 824c0 23 17 41 39 41s40 -18 40 -41c0 -22 -18 -40 -40 -40s-39 18 -39 40zM308 -9c-126 0 -224 83 -224 246v370c0 71 -22 86 -66 86v11h215v-11c-43 0 -73 -6 -73 -88v-377
c0 -128 74 -200 190 -200c115 0 188 76 188 206v259c0 142 -4 200 -110 200v11h238v-11c-121 0 -117 -58 -117 -200v-259c1 -162 -100 -243 -241 -243z" />
    <glyph glyph-name="Yacute" unicode="&#xdd;" horiz-adv-x="652" 
d="M402 704h236v-11c-52 0 -78 -1 -190 -220l-83 -166v-199c0 -88 29 -96 71 -96v-12h-208v12c42 0 70 8 70 96v186l-186 322c-44 77 -67 75 -103 78v10h225v-10c-31 0 -91 2 -23 -113l149 -255l81 164c50 104 92 203 -39 203v11zM222 734l181 161l65 -19l-231 -142h-15z
" />
    <glyph glyph-name="Thorn" unicode="&#xde;" horiz-adv-x="525" 
d="M169 569v-380h9c134 0 245 -1 245 188c0 196 -119 192 -245 192h-9zM178 178h-9v-63c0 -68 17 -104 59 -104v-11h-190v11c42 0 58 36 58 104v490c0 62 -14 89 -58 89v10h190v-10c-43 0 -59 -27 -59 -89v-26h9c199 0 327 -19 327 -202c0 -182 -128 -199 -327 -199z" />
    <glyph glyph-name="germandbls" unicode="&#xdf;" horiz-adv-x="566" 
d="M541 201c0 -124 -66 -210 -216 -210c-55 0 -86 31 -92 53c-4 13 -3 31 6 42c13 17 38 18 54 7c16 -12 17 -41 5 -55c-6 -9 -17 -12 -24 -14c-11 -1 9 -22 51 -22c81 0 127 66 124 205c-3 176 -124 204 -200 204v10c53 0 130 16 130 155c0 166 -117 160 -135 160
c-104 0 -103 -172 -103 -172v-564h-112v10c38 12 40 54 40 105v395c0 153 53 237 175 237c111 0 209 -40 209 -174c0 -123 -123 -155 -143 -155c74 0 231 -42 231 -217z" />
    <glyph glyph-name="agrave" unicode="&#xe0;" horiz-adv-x="466" 
d="M295 251c-125 -30 -185 -73 -185 -138c0 -43 27 -85 86 -85c62 0 88 44 99 68v155zM410 31c0 0 25 0 32 31l10 -4c-6 -30 -33 -67 -80 -67c0 0 -74 -3 -77 86c-14 -50 -71 -86 -141 -86c0 0 -113 0 -113 104c0 95 85 123 254 167v56c0 103 -49 164 -134 126
c-43 -20 -50 -41 -44 -42c10 -2 20 -6 27 -15c15 -18 11 -44 -7 -59c-17 -14 -43 -12 -57 7c-10 13 -12 30 -6 43c6 14 25 45 78 74c42 21 90 19 90 19c98 0 125 -81 125 -200v-180s-1 -60 43 -60zM169 701l181 -161h-15l-231 142z" />
    <glyph glyph-name="aacute" unicode="&#xe1;" horiz-adv-x="466" 
d="M295 251c-125 -30 -185 -73 -185 -138c0 -43 27 -85 86 -85c62 0 88 44 99 68v155zM410 31c0 0 25 0 32 31l10 -4c-6 -30 -33 -67 -80 -67c0 0 -74 -3 -77 86c-14 -50 -71 -86 -141 -86c0 0 -113 0 -113 104c0 95 85 123 254 167v56c0 103 -49 164 -134 126
c-43 -20 -50 -41 -44 -42c10 -2 20 -6 27 -15c15 -18 11 -44 -7 -59c-17 -14 -43 -12 -57 7c-10 13 -12 30 -6 43c6 14 25 45 78 74c42 21 90 19 90 19c98 0 125 -81 125 -200v-180s-1 -60 43 -60zM115 540l181 161l65 -19l-231 -142h-15z" />
    <glyph glyph-name="acircumflex" unicode="&#xe2;" horiz-adv-x="466" 
d="M295 251c-125 -30 -185 -73 -185 -138c0 -43 27 -85 86 -85c62 0 88 44 99 68v155zM410 31c0 0 25 0 32 31l10 -4c-6 -30 -33 -67 -80 -67c0 0 -74 -3 -77 86c-14 -50 -71 -86 -141 -86c0 0 -113 0 -113 104c0 95 85 123 254 167v56c0 103 -49 164 -134 126
c-43 -20 -50 -41 -44 -42c10 -2 20 -6 27 -15c15 -18 11 -44 -7 -59c-17 -14 -43 -12 -57 7c-10 13 -12 30 -6 43c6 14 25 45 78 74c42 21 90 19 90 19c98 0 125 -81 125 -200v-180s-1 -60 43 -60zM360 517l-119 115l-119 -115h-17l136 188l136 -188h-17z" />
    <glyph glyph-name="atilde" unicode="&#xe3;" horiz-adv-x="466" 
d="M290 569l-111 43c-33 12 -121 16 -149 -44l-6 2c55 141 179 98 179 98l113 -44c32 -12 124 -9 148 45l6 -2c-55 -143 -180 -98 -180 -98zM295 251c-125 -30 -185 -73 -185 -138c0 -43 27 -85 86 -85c62 0 88 44 99 68v155zM410 31c0 0 25 0 32 31l10 -4
c-6 -30 -33 -67 -80 -67c0 0 -74 -3 -77 86c-14 -50 -71 -86 -141 -86c0 0 -113 0 -113 104c0 95 85 123 254 167v56c0 103 -49 164 -134 126c-43 -20 -50 -41 -44 -42c10 -2 20 -6 27 -15c15 -18 11 -44 -7 -59c-17 -14 -43 -12 -57 7c-10 13 -12 30 -6 43
c6 14 25 45 78 74c42 21 90 19 90 19c98 0 125 -81 125 -200v-180s-1 -60 43 -60z" />
    <glyph glyph-name="adieresis" unicode="&#xe4;" horiz-adv-x="466" 
d="M302 576c-22 0 -39 18 -39 40c0 23 17 41 39 41s40 -18 40 -41c0 -22 -18 -40 -40 -40zM117 616c0 23 17 41 40 41c22 0 40 -18 40 -41c0 -22 -18 -40 -40 -40c-23 0 -40 18 -40 40zM295 251c-125 -30 -185 -73 -185 -138c0 -43 27 -85 86 -85c62 0 88 44 99 68v155z
M410 31c0 0 25 0 32 31l10 -4c-6 -30 -33 -67 -80 -67c0 0 -74 -3 -77 86c-14 -50 -71 -86 -141 -86c0 0 -113 0 -113 104c0 95 85 123 254 167v56c0 103 -49 164 -134 126c-43 -20 -50 -41 -44 -42c10 -2 20 -6 27 -15c15 -18 11 -44 -7 -59c-17 -14 -43 -12 -57 7
c-10 13 -12 30 -6 43c6 14 25 45 78 74c42 21 90 19 90 19c98 0 125 -81 125 -200v-180s-1 -60 43 -60z" />
    <glyph glyph-name="aring" unicode="&#xe5;" horiz-adv-x="466" 
d="M229 705c-38 0 -67 -30 -67 -67s29 -67 67 -67c36 0 66 30 66 67s-30 67 -66 67zM229 543c-53 0 -96 43 -96 95c0 53 43 96 96 96c52 0 95 -43 95 -96c0 -52 -43 -95 -95 -95zM295 251c-125 -30 -185 -73 -185 -138c0 -43 27 -85 86 -85c62 0 88 44 99 68v155zM410 31
c0 0 25 0 32 31l10 -4c-6 -30 -33 -67 -80 -67c0 0 -74 -3 -77 86c-14 -50 -71 -86 -141 -86c0 0 -113 0 -113 104c0 95 85 123 254 167v56c0 103 -49 164 -134 126c-43 -20 -50 -41 -44 -42c10 -2 20 -6 27 -15c15 -18 11 -44 -7 -59c-17 -14 -43 -12 -57 7
c-10 13 -12 30 -6 43c6 14 25 45 78 74c42 21 90 19 90 19c98 0 125 -81 125 -200v-180s-1 -60 43 -60z" />
    <glyph glyph-name="ae" unicode="&#xe6;" horiz-adv-x="689" 
d="M472 460c-59 0 -118 -62 -118 -212h227c0 165 -63 212 -109 212zM196 28c54 0 87 42 99 80c-8 26 -13 79 -14 108v30c-32 -10 -170 -45 -170 -132c0 -45 26 -86 85 -86zM489 29c66 -3 116 50 131 93l9 -6c-9 -40 -50 -125 -164 -125c-79 0 -138 40 -164 106
c-15 -68 -73 -106 -146 -106c0 0 -114 0 -114 104c0 88 79 118 240 162v61c0 103 -39 164 -124 126c-43 -20 -49 -41 -43 -41c10 -2 19 -7 27 -16c14 -18 11 -44 -7 -59c-18 -14 -43 -12 -57 7c-10 13 -13 30 -6 43c6 14 22 44 76 73c42 21 81 20 81 20c53 0 85 -30 102 -76
c39 49 79 76 142 76c105 0 176 -66 176 -234h-295c1 -140 41 -204 136 -208z" />
    <glyph glyph-name="ccedilla" unicode="&#xe7;" 
d="M431 127l8 -3c-9 -49 -56 -133 -178 -133c-5 0 -7 0 -13 1l-20 -56c93 21 135 -29 128 -80c-9 -71 -67 -79 -101 -79c-42 0 -59 17 -63 22c-4 6 -5 15 -2 22c5 11 18 15 29 10c10 -5 14 -18 9 -28c-3 -6 -7 -8 -11 -9c-3 0 8 -10 38 -11c36 0 64 21 64 62
c0 30 -20 90 -109 69l26 79c-94 10 -191 87 -191 236c0 126 91 242 235 242c112 0 135 -52 139 -69c4 -13 3 -29 -8 -40c-14 -14 -41 -16 -55 -2c-16 16 -17 40 -1 55c8 8 19 13 26 11c10 -2 -21 34 -101 34c-42 0 -158 -30 -158 -223c0 -147 83 -204 155 -207
c85 -4 138 53 154 97z" />
    <glyph glyph-name="egrave" unicode="&#xe8;" 
d="M365 252h-252c0 140 74 208 131 208c44 0 121 -53 121 -208zM409 120c-16 -51 -81 -96 -145 -93c-84 4 -149 60 -151 213h320c0 158 -85 231 -188 231c-116 0 -209 -94 -209 -245c0 -140 89 -235 210 -235c110 0 164 81 171 126zM189 701l181 -161h-15l-231 142z" />
    <glyph glyph-name="eacute" unicode="&#xe9;" 
d="M113 252h252c0 155 -77 208 -121 208c-57 0 -131 -68 -131 -208zM409 120l8 -3c-7 -45 -61 -126 -171 -126c-121 0 -210 95 -210 235c0 151 93 245 209 245c103 0 188 -73 188 -231h-320c2 -153 67 -209 151 -213c64 -3 129 42 145 93zM113 540l181 161l65 -19l-231 -142
h-15z" />
    <glyph glyph-name="ecircumflex" unicode="&#xea;" 
d="M365 252h-252c0 140 74 208 131 208c44 0 121 -53 121 -208zM409 120c-16 -51 -81 -96 -145 -93c-84 4 -149 60 -151 213h320c0 158 -85 231 -188 231c-116 0 -209 -94 -209 -245c0 -140 89 -235 210 -235c110 0 164 81 171 126zM355 517l-119 115l-119 -115h-17l136 188
l136 -188h-17z" />
    <glyph glyph-name="edieresis" unicode="&#xeb;" 
d="M315 576c-22 0 -39 18 -39 40c0 23 17 41 39 41s41 -18 41 -41c0 -22 -19 -40 -41 -40zM170 576c-22 0 -40 18 -40 40c0 23 18 41 40 41s40 -18 40 -41c0 -22 -18 -40 -40 -40zM113 252h252c0 155 -77 208 -121 208c-57 0 -131 -68 -131 -208zM409 120l8 -3
c-7 -45 -61 -126 -171 -126c-121 0 -210 95 -210 235c0 151 93 245 209 245c103 0 188 -73 188 -231h-320c2 -153 67 -209 151 -213c64 -3 129 42 145 93z" />
    <glyph glyph-name="igrave" unicode="&#xec;" horiz-adv-x="226" 
d="M188 11c-36 9 -41 12 -41 67v393l-118 -23v-10c42 -6 50 -20 50 -54v-306c0 -51 -2 -56 -40 -67v-11h149v11zM44 701l181 -161h-15l-231 142z" />
    <glyph glyph-name="iacute" unicode="&#xed;" horiz-adv-x="226" 
d="M188 11v-11h-149v11c38 11 40 16 40 67v306c0 34 -8 48 -50 54v10l118 23v-393c0 -55 5 -58 41 -67zM-9 540l181 161l65 -19l-231 -142h-15z" />
    <glyph glyph-name="icircumflex" unicode="&#xee;" horiz-adv-x="226" 
d="M188 11c-36 9 -41 12 -41 67v393l-118 -23v-10c42 -6 50 -20 50 -54v-306c0 -51 -2 -56 -40 -67v-11h149v11zM233 517l-119 115l-119 -115h-17l136 188l136 -188h-17z" />
    <glyph glyph-name="idieresis" unicode="&#xef;" horiz-adv-x="226" 
d="M180 576c-23 0 -40 18 -40 40c0 23 17 41 40 41c22 0 40 -18 40 -41c0 -22 -18 -40 -40 -40zM35 576c-23 0 -40 18 -40 40c0 23 17 41 40 41c21 0 40 -18 40 -41c0 -22 -19 -40 -40 -40zM188 11v-11h-149v11c38 11 40 16 40 67v306c0 34 -9 48 -50 54v10l118 23v-393
c0 -55 5 -58 41 -67z" />
    <glyph glyph-name="eth" unicode="&#xf0;" horiz-adv-x="513" 
d="M397 331v2c-32 57 -89 80 -130 80c-87 0 -137 -76 -142 -207c-7 -154 48 -204 110 -204c114 0 162 96 162 329zM360 634c58 -63 116 -176 116 -300c0 -199 -70 -343 -241 -343c-98 0 -205 68 -196 222c7 118 75 224 207 224c51 0 118 -19 151 -84c-1 91 -33 203 -74 262
l-153 -78l-14 9l159 84c-39 47 -89 72 -153 72v11c78 0 133 -24 186 -67l100 53l14 -10z" />
    <glyph glyph-name="ntilde" unicode="&#xf1;" horiz-adv-x="486" 
d="M296 569l-111 43c-33 12 -121 16 -149 -44l-6 2c55 141 179 98 179 98l113 -44c32 -12 124 -9 148 45l6 -2c-55 -143 -180 -98 -180 -98zM462 10v-10h-149v10c38 11 40 17 40 68v226c0 78 -40 129 -114 129c-57 0 -98 -54 -110 -88v-267c0 -55 5 -58 41 -67v-11h-150v11
c38 11 40 16 40 67v305c0 35 -8 49 -50 55v10l119 23v-103c20 56 85 103 148 103c82 0 144 -43 144 -163v-230c0 -55 5 -59 41 -68z" />
    <glyph glyph-name="ograve" unicode="&#xf2;" horiz-adv-x="534" 
d="M414 231c0 -181 -67 -229 -146 -229s-147 48 -147 229s68 229 147 229s146 -48 146 -229zM495 231c0 132 -74 240 -227 240c-152 0 -227 -108 -227 -240c0 -131 75 -240 227 -240c153 0 227 109 227 240zM215 701l181 -161h-15l-231 142z" />
    <glyph glyph-name="oacute" unicode="&#xf3;" horiz-adv-x="534" 
d="M414 231c0 181 -67 229 -146 229s-147 -48 -147 -229s68 -229 147 -229s146 48 146 229zM495 231c0 -131 -74 -240 -227 -240c-152 0 -227 109 -227 240c0 132 75 240 227 240c153 0 227 -108 227 -240zM138 540l181 161l65 -19l-231 -142h-15z" />
    <glyph glyph-name="ocircumflex" unicode="&#xf4;" horiz-adv-x="534" 
d="M414 231c0 -181 -67 -229 -146 -229s-147 48 -147 229s68 229 147 229s146 -48 146 -229zM495 231c0 132 -74 240 -227 240c-152 0 -227 -108 -227 -240c0 -131 75 -240 227 -240c153 0 227 109 227 240zM384 517l-119 115l-119 -115h-17l136 188l136 -188h-17z" />
    <glyph glyph-name="otilde" unicode="&#xf5;" horiz-adv-x="534" 
d="M210 612c-32 12 -121 16 -148 -44l-6 2c54 141 179 98 179 98l112 -44c32 -12 124 -9 148 45l7 -2c-56 -143 -180 -98 -180 -98zM414 231c0 -181 -67 -229 -146 -229s-147 48 -147 229s68 229 147 229s146 -48 146 -229zM495 231c0 132 -74 240 -227 240
c-152 0 -227 -108 -227 -240c0 -131 75 -240 227 -240c153 0 227 109 227 240z" />
    <glyph glyph-name="odieresis" unicode="&#xf6;" horiz-adv-x="534" 
d="M343 576c-22 0 -39 18 -39 40c0 23 17 41 39 41s41 -18 41 -41c0 -22 -19 -40 -41 -40zM198 576c-22 0 -40 18 -40 40c0 23 18 41 40 41s40 -18 40 -41c0 -22 -18 -40 -40 -40zM414 231c0 181 -67 229 -146 229s-147 -48 -147 -229s68 -229 147 -229s146 48 146 229z
M495 231c0 -131 -74 -240 -227 -240c-152 0 -227 109 -227 240c0 132 75 240 227 240c153 0 227 -108 227 -240z" />
    <glyph glyph-name="divide" unicode="&#xf7;" horiz-adv-x="625" 
d="M313 445c-27 0 -49 22 -49 49s22 49 49 49s48 -22 48 -49s-21 -49 -48 -49zM581 251h-536v52h536v-52zM313 12c-27 0 -49 22 -49 49s22 49 49 49s48 -22 48 -49s-21 -49 -48 -49z" />
    <glyph glyph-name="oslash" unicode="&#xf8;" horiz-adv-x="534" 
d="M414 229c0 84 -18 139 -43 172l-199 -354c24 -34 58 -45 96 -45c79 0 146 46 146 227zM90 -67l52 91c-68 41 -101 118 -101 205c0 132 75 242 227 242c44 0 83 -10 114 -26l45 80h16l-49 -86c68 -41 101 -121 101 -210c0 -131 -74 -238 -227 -238c-45 0 -83 10 -114 26
l-48 -84h-16zM163 59l199 355c-24 34 -56 46 -94 46c-79 0 -147 -50 -147 -231c0 -83 16 -136 42 -170z" />
    <glyph glyph-name="ugrave" unicode="&#xf9;" horiz-adv-x="501" 
d="M484 18c-42 5 -51 13 -51 61v392l-116 -18v-11c48 -1 47 -5 47 -66v-264c-15 -43 -51 -83 -111 -83c-58 0 -113 30 -113 115v327l-123 -18v-11c56 0 56 -4 56 -71v-230c0 -127 82 -150 151 -150s126 46 140 97v-83s0 -18 23 -13l97 16v10zM199 701l181 -161h-15l-231 142
z" />
    <glyph glyph-name="uacute" unicode="&#xfa;" horiz-adv-x="501" 
d="M484 18v-10l-97 -16c-23 -5 -23 13 -23 13v83c-14 -51 -71 -97 -140 -97s-151 23 -151 150v230c0 67 0 71 -56 71v11l123 18v-327c0 -85 55 -115 113 -115c60 0 96 40 111 83v264c0 61 1 65 -47 66v11l116 18v-392c0 -48 9 -56 51 -61zM128 540l181 161l65 -19l-231 -142
h-15z" />
    <glyph glyph-name="ucircumflex" unicode="&#xfb;" horiz-adv-x="501" 
d="M484 18c-42 5 -51 13 -51 61v392l-116 -18v-11c48 -1 47 -5 47 -66v-264c-15 -43 -51 -83 -111 -83c-58 0 -113 30 -113 115v327l-123 -18v-11c56 0 56 -4 56 -71v-230c0 -127 82 -150 151 -150s126 46 140 97v-83s0 -18 23 -13l97 16v10zM364 517l-119 115l-119 -115
h-17l136 188l136 -188h-17z" />
    <glyph glyph-name="udieresis" unicode="&#xfc;" horiz-adv-x="501" 
d="M319 576c-23 0 -40 18 -40 40c0 23 17 41 40 41c21 0 40 -18 40 -41c0 -22 -19 -40 -40 -40zM173 576c-22 0 -39 18 -39 40c0 23 17 41 39 41s41 -18 41 -41c0 -22 -19 -40 -41 -40zM484 18v-10l-97 -16c-23 -5 -23 13 -23 13v83c-14 -51 -71 -97 -140 -97
s-151 23 -151 150v230c0 67 0 71 -56 71v11l123 18v-327c0 -85 55 -115 113 -115c60 0 96 40 111 83v264c0 61 1 65 -47 66v11l116 18v-392c0 -48 9 -56 51 -61z" />
    <glyph glyph-name="yacute" unicode="&#xfd;" horiz-adv-x="531" 
d="M323 462h192v-11c-42 0 -70 -11 -125 -162l-158 -433c-17 -52 -42 -73 -54 -83s-35 -14 -51 -6c-23 10 -33 37 -23 59c10 23 37 32 59 23c12 -5 20 -17 23 -27c3 -13 20 3 33 38l50 137l-184 398c-22 49 -58 55 -74 56v11h193v-11c-71 0 -32 -78 -32 -78l131 -284l75 204
s61 160 -55 158v11zM149 543l181 161l65 -19l-231 -142h-15z" />
    <glyph glyph-name="thorn" unicode="&#xfe;" horiz-adv-x="541" 
d="M404 210c0 158 -61 234 -150 234c-71 0 -116 -48 -120 -120v-191c4 -83 54 -131 123 -131c64 0 147 44 147 208zM489 227c0 -153 -98 -236 -228 -236c-53 0 -95 16 -127 41v-221c0 -55 5 -56 41 -65v-11h-150v11c38 11 40 14 40 65v835c0 35 -8 48 -50 51v11l119 23v-336
c29 50 93 76 146 76c144 0 209 -115 209 -244z" />
    <glyph glyph-name="ydieresis" unicode="&#xff;" horiz-adv-x="531" 
d="M340 576c-22 0 -39 18 -39 40c0 23 17 41 39 41s40 -18 40 -41c0 -22 -18 -40 -40 -40zM323 462h192v-11c-42 0 -70 -11 -125 -162l-158 -433c-17 -52 -42 -73 -54 -83s-35 -14 -51 -6c-23 10 -33 37 -23 59c10 23 36 32 59 23c12 -5 20 -17 23 -27c3 -13 20 3 33 38
l50 137l-184 398c-22 49 -58 55 -74 56v11h193v-11c-71 0 -32 -78 -32 -78l131 -284l75 204s61 160 -55 158v11zM195 576c-23 0 -40 18 -40 40c0 23 17 41 40 41c22 0 40 -18 40 -41c0 -22 -18 -40 -40 -40z" />
    <glyph glyph-name="Abreve" unicode="&#x102;" horiz-adv-x="674" 
d="M175 233h263l-136 351zM660 11v-11h-199v11c42 0 53 32 17 116l-36 95h-270c-42 -120 -76 -213 54 -211v-11h-212v11c44 0 69 11 150 238l165 455h7l243 -607c32 -80 52 -84 81 -86zM452 903h6c0 -76 -30 -137 -125 -137c-97 0 -129 61 -129 137h7c0 -37 20 -88 122 -88
c98 0 119 51 119 88z" />
    <glyph glyph-name="abreve" unicode="&#x103;" horiz-adv-x="466" 
d="M295 251c-125 -30 -185 -73 -185 -138c0 -43 27 -85 86 -85c62 0 88 44 99 68v155zM410 31c0 0 25 0 32 31l10 -4c-6 -30 -33 -67 -80 -67c0 0 -74 -3 -77 86c-14 -50 -71 -86 -141 -86c0 0 -113 0 -113 104c0 95 85 123 254 167v56c0 103 -49 164 -134 126
c-43 -20 -50 -41 -44 -42c10 -2 20 -6 27 -15c15 -18 11 -44 -7 -59c-17 -14 -43 -12 -57 7c-10 13 -12 30 -6 43c6 14 25 45 78 74c42 21 90 19 90 19c98 0 125 -81 125 -200v-180s-1 -60 43 -60zM364 704h6c0 -76 -30 -137 -125 -137c-97 0 -129 61 -129 137h7
c0 -37 20 -88 122 -88c98 0 119 51 119 88z" />
    <glyph glyph-name="Aogonek" unicode="&#x104;" horiz-adv-x="674" 
d="M660 11v-11h-45c-57 -26 -99 -88 -89 -126c12 -46 63 -42 63 -42c31 0 47 33 47 55h10c0 -46 -20 -80 -69 -80c-70 0 -88 41 -88 41c-27 69 24 120 104 152h-132v11c42 0 53 32 17 116l-36 95h-270c-42 -120 -76 -213 54 -211v-11h-212v11c44 0 69 11 150 238l165 455h7
l243 -607c32 -80 52 -84 81 -86zM175 233h263l-136 351z" />
    <glyph glyph-name="aogonek" unicode="&#x105;" horiz-adv-x="466" 
d="M382 -168c31 0 47 33 47 55h10c0 -46 -20 -80 -69 -80c-70 0 -88 41 -88 41c-24 63 16 111 84 143c-18 2 -69 13 -71 86c-14 -50 -71 -86 -141 -86c0 0 -113 0 -113 104c0 95 85 123 254 167v56c0 103 -49 164 -134 126c-43 -20 -50 -41 -44 -42c10 -2 20 -6 27 -15
c15 -18 11 -44 -7 -59c-17 -14 -43 -12 -57 7c-10 13 -12 30 -6 43c6 14 25 45 78 74c42 21 90 19 90 19c98 0 125 -81 125 -200v-180s-1 -60 43 -60c0 0 25 0 32 31l10 -4c-5 -24 -23 -52 -53 -62c-52 -28 -89 -86 -80 -122c12 -46 63 -42 63 -42zM295 96v155
c-125 -30 -185 -73 -185 -138c0 -43 27 -85 86 -85c62 0 88 44 99 68z" />
    <glyph glyph-name="Cacute" unicode="&#x106;" horiz-adv-x="660" 
d="M597 206h11l10 -153c-74 -49 -124 -62 -231 -62c-204 0 -347 127 -347 361c0 238 143 361 347 361c103 0 168 -10 231 -61l-10 -153h-11c-14 180 -146 203 -210 203c-101 0 -245 -34 -245 -350c0 -323 147 -350 245 -350c61 0 204 30 210 204zM223 734l181 161l65 -19
l-231 -142h-15z" />
    <glyph glyph-name="cacute" unicode="&#x107;" 
d="M431 127l8 -3c-9 -49 -56 -133 -178 -133c-101 0 -216 76 -216 238c0 126 91 242 235 242c112 0 135 -52 139 -69c4 -13 3 -29 -8 -40c-14 -14 -41 -16 -55 -2c-16 16 -17 40 -1 55c8 8 19 13 26 11c10 -2 -21 34 -101 34c-42 0 -158 -30 -158 -223
c0 -147 83 -204 155 -207c85 -4 138 53 154 97zM133 540l181 161l65 -19l-231 -142h-15z" />
    <glyph glyph-name="Ccaron" unicode="&#x10c;" horiz-adv-x="660" 
d="M597 206h11l10 -153c-74 -49 -124 -62 -231 -62c-204 0 -347 127 -347 361c0 238 143 361 347 361c103 0 168 -10 231 -61l-10 -153h-11c-14 180 -146 203 -210 203c-101 0 -245 -34 -245 -350c0 -323 147 -350 245 -350c61 0 204 30 210 204zM362 807l119 115h17
l-136 -188l-136 188h17z" />
    <glyph glyph-name="ccaron" unicode="&#x10d;" 
d="M431 127l8 -3c-9 -49 -56 -133 -178 -133c-101 0 -216 76 -216 238c0 126 91 242 235 242c112 0 135 -52 139 -69c4 -13 3 -29 -8 -40c-14 -14 -41 -16 -55 -2c-16 16 -17 40 -1 55c8 8 19 13 26 11c10 -2 -21 34 -101 34c-42 0 -158 -30 -158 -223
c0 -147 83 -204 155 -207c85 -4 138 53 154 97zM263 589l119 115h17l-136 -188l-136 188h17z" />
    <glyph glyph-name="Dcaron" unicode="&#x10e;" horiz-adv-x="670" 
d="M526 351c0 329 -176 342 -292 342h-44v-682h44c112 0 292 -2 292 340zM620 351c0 -308 -187 -351 -386 -351h-191v11c43 0 64 31 64 99v486c0 62 -20 97 -64 97v11h191c199 0 386 -60 386 -353zM280 807l119 115h17l-136 -188l-136 188h17z" />
    <glyph glyph-name="dcaron" unicode="&#x10f;" horiz-adv-x="628" 
d="M521 704h59c0 -120 -95 -181 -95 -181l-6 9s42 35 42 172zM510 19v-10l-91 -17c-28 -5 -28 18 -28 18v51c-30 -47 -93 -70 -144 -70c-144 0 -209 115 -209 245c0 153 99 235 229 235c50 0 92 -16 124 -40v216c0 35 -10 50 -51 54v11l119 22v-665c0 -49 11 -52 51 -50z
M391 134v192c0 82 -59 134 -121 134c-63 0 -147 -42 -147 -207c0 -157 59 -236 149 -236c65 0 119 47 119 117z" />
    <glyph glyph-name="Dcroat" unicode="&#x110;" horiz-adv-x="673" 
d="M532 351c0 329 -177 343 -293 343h-44v-332h142v-21h-142v-330h44c112 0 293 -2 293 340zM625 351c0 -308 -187 -351 -386 -351h-190v11c43 0 63 31 63 99v231h-100v21h100v234c0 62 -19 98 -63 98v10h190c199 0 386 -60 386 -353z" />
    <glyph glyph-name="dcroat" unicode="&#x111;" horiz-adv-x="547" 
d="M391 134v192c0 82 -59 134 -121 134c-63 0 -147 -42 -147 -207c0 -157 59 -236 149 -236c65 0 119 47 119 117zM265 556v20h126v71c0 35 -10 50 -51 54v11l119 22v-158h121v-20h-121v-487c0 -49 11 -52 51 -50v-10l-91 -17c-28 -5 -28 18 -28 18v51
c-30 -47 -93 -70 -144 -70c-144 0 -209 115 -209 245c0 153 99 235 229 235c50 0 92 -16 124 -40v125h-126z" />
    <glyph glyph-name="Eogonek" unicode="&#x118;" horiz-adv-x="578" 
d="M492 203h11v-203h-12c-57 -26 -99 -88 -89 -126c12 -46 63 -42 63 -42c31 0 47 33 47 55h10c0 -46 -20 -80 -69 -80c-70 0 -88 41 -88 41c-27 69 24 120 104 152h-438v11c42 0 51 28 51 96v506c0 62 -7 80 -51 80v11h459v-175h-11c-5 162 -129 164 -251 164h-64v-332h80
c40 0 124 1 127 99h11v-210h-11c-3 99 -89 100 -127 100h-80v-339h51c134 0 267 -7 277 192z" />
    <glyph glyph-name="eogonek" unicode="&#x119;" 
d="M214 -126c12 -46 63 -42 63 -42c31 0 47 33 47 55h10c0 -46 -20 -80 -69 -80c-70 0 -88 41 -88 41c-25 63 16 112 84 144c-5 -1 -10 -1 -15 -1c-121 0 -210 95 -210 235c0 151 93 245 209 245c103 0 188 -73 188 -231h-320c2 -153 67 -209 151 -213c64 -3 129 42 145 93
l8 -3c-6 -37 -44 -99 -119 -119c-54 -27 -94 -87 -84 -124zM113 252h252c0 155 -77 208 -121 208c-57 0 -131 -68 -131 -208z" />
    <glyph glyph-name="Ecaron" unicode="&#x11a;" horiz-adv-x="578" 
d="M492 203h11v-203h-472v11c42 0 51 28 51 96v506c0 62 -7 80 -51 80v11h459v-175h-11c-5 162 -129 164 -251 164h-64v-332h80c40 0 124 1 127 99h11v-210h-11c-3 99 -89 100 -127 100h-80v-339h51c134 0 267 -7 277 192zM288 807l119 115h17l-136 -188l-136 188h17z" />
    <glyph glyph-name="ecaron" unicode="&#x11b;" 
d="M113 252h252c0 155 -77 208 -121 208c-57 0 -131 -68 -131 -208zM409 120l8 -3c-7 -45 -61 -126 -171 -126c-121 0 -210 95 -210 235c0 151 93 245 209 245c103 0 188 -73 188 -231h-320c2 -153 67 -209 151 -213c64 -3 129 42 145 93zM237 589l119 115h17l-136 -188
l-136 188h17z" />
    <glyph glyph-name="dotlessi" unicode="&#x131;" horiz-adv-x="227" 
d="M189 11v-11h-150v11c38 11 40 16 40 67v306c0 34 -8 48 -50 54v10l119 23v-393c0 -55 5 -58 41 -67z" />
    <glyph glyph-name="Lacute" unicode="&#x139;" horiz-adv-x="592" 
d="M502 217h10v-217h-464v11c43 0 47 35 47 103v497c0 61 -12 83 -55 83v10h198v-10c-43 0 -64 -17 -64 -89v-594h36c161 -1 283 0 292 206zM143 734l181 161l65 -19l-231 -142h-15z" />
    <glyph glyph-name="lacute" unicode="&#x13a;" horiz-adv-x="211" 
d="M183 11v-11h-150v11c38 11 40 16 40 67v570c0 35 -8 49 -50 53v11l119 22v-656c0 -55 5 -58 41 -67zM-19 763l181 161l65 -19l-231 -142h-15z" />
    <glyph glyph-name="Lcaron" unicode="&#x13d;" horiz-adv-x="553" 
d="M277 704h59c0 -120 -95 -181 -95 -181l-7 9s43 35 43 172zM502 217h10v-217h-464v11c43 0 47 35 47 103v497c0 61 -12 83 -55 83v10h198v-10c-43 0 -64 -17 -64 -89v-594h36c161 -1 283 0 292 206z" />
    <glyph glyph-name="lcaron" unicode="&#x13e;" horiz-adv-x="331" 
d="M218 704h59c0 -120 -95 -181 -95 -181l-7 9s43 35 43 172zM183 11v-11h-150v11c38 11 40 16 40 67v570c0 35 -8 49 -50 53v11l119 22v-656c0 -55 5 -58 41 -67z" />
    <glyph glyph-name="Lslash" unicode="&#x141;" horiz-adv-x="606" 
d="M539 217h11v-217h-464v11c42 0 47 37 47 105v179l-125 -70v17l125 70v299c0 62 -12 83 -55 83v10h198v-10c-44 0 -64 -17 -64 -89v-247l208 116v-17l-208 -117v-329h36c229 -1 291 50 291 206z" />
    <glyph glyph-name="lslash" unicode="&#x142;" horiz-adv-x="272" 
d="M12 259v17l89 52v325c0 35 -8 50 -50 53v10l119 30v-377l82 50v-17l-82 -50v-274c0 -55 5 -58 41 -67v-11h-150v11c38 11 40 16 40 67v233z" />
    <glyph glyph-name="Nacute" unicode="&#x143;" horiz-adv-x="771" 
d="M478 704h277v-10c-141 0 -138 -97 -138 -236v-458h-21l-420 548v-300c0 -133 0 -237 129 -237v-11h-282v11c141 0 142 102 142 237v313l-42 55c-64 80 -93 76 -119 78v10h155l447 -588v342c0 139 0 236 -128 236v10zM244 734l181 161l65 -19l-231 -142h-15z" />
    <glyph glyph-name="nacute" unicode="&#x144;" horiz-adv-x="486" 
d="M462 10v-10h-149v10c38 11 40 17 40 68v226c0 78 -40 129 -114 129c-57 0 -98 -54 -110 -88v-267c0 -55 5 -58 41 -67v-11h-150v11c38 11 40 16 40 67v305c0 35 -8 49 -50 55v10l119 23v-103c20 56 85 103 148 103c82 0 144 -43 144 -163v-230c0 -55 5 -59 41 -68z
M125 540l181 161l65 -19l-231 -142h-15z" />
    <glyph glyph-name="Ncaron" unicode="&#x147;" horiz-adv-x="771" 
d="M478 704h277v-10c-141 0 -138 -97 -138 -236v-458h-21l-420 548v-300c0 -133 0 -237 129 -237v-11h-282v11c141 0 142 102 142 237v313l-42 55c-64 80 -93 76 -119 78v10h155l447 -588v342c0 139 0 236 -128 236v10zM358 807l119 115h17l-136 -188l-136 188h17z" />
    <glyph glyph-name="ncaron" unicode="&#x148;" horiz-adv-x="486" 
d="M462 10v-10h-149v10c38 11 40 17 40 68v226c0 78 -40 129 -114 129c-57 0 -98 -54 -110 -88v-267c0 -55 5 -58 41 -67v-11h-150v11c38 11 40 16 40 67v305c0 35 -8 49 -50 55v10l119 23v-103c20 56 85 103 148 103c82 0 144 -43 144 -163v-230c0 -55 5 -59 41 -68z
M253 589l119 115h17l-136 -188l-136 188h17z" />
    <glyph glyph-name="Ohungarumlaut" unicode="&#x150;" horiz-adv-x="716" 
d="M583 347c0 274 -109 355 -227 355c-119 0 -229 -81 -229 -355c0 -275 110 -345 229 -345c118 0 227 70 227 345zM671 347c0 -199 -95 -356 -315 -356s-315 157 -315 356c0 198 95 366 315 366s315 -168 315 -366zM387 735l173 161l72 -20l-230 -141h-15zM222 735l173 161
l72 -20l-230 -141h-15z" />
    <glyph glyph-name="ohungarumlaut" unicode="&#x151;" horiz-adv-x="534" 
d="M414 231c0 181 -67 229 -146 229s-147 -48 -147 -229s68 -229 147 -229s146 48 146 229zM495 231c0 -131 -74 -240 -227 -240c-152 0 -227 109 -227 240c0 132 75 240 227 240c153 0 227 -108 227 -240zM269 541l173 161l72 -20l-230 -141h-15zM104 541l173 161l72 -20
l-230 -141h-15z" />
    <glyph glyph-name="OE" unicode="&#x152;" horiz-adv-x="889" 
d="M432 81v532c0 72 -47 88 -95 88c-119 0 -209 -81 -209 -355c0 -275 90 -345 209 -345c49 0 95 19 95 80zM814 203h11v-203h-422c-25 -6 -36 -9 -66 -9c-220 0 -295 156 -295 355c0 198 75 366 295 366c29 0 39 -3 64 -8h411v-175h-11c-9 163 -117 165 -239 165h-48v-332
h49c41 0 114 -4 117 98h11v-210h-11c-3 104 -79 99 -117 99h-49v-338h36c133 0 254 -7 264 192z" />
    <glyph glyph-name="oe" unicode="&#x153;" horiz-adv-x="789" 
d="M456 244h226c0 165 -65 216 -109 216c-59 0 -117 -66 -117 -216zM723 122l9 -4c-9 -41 -46 -127 -157 -127c-76 0 -122 36 -159 96c-35 -58 -78 -96 -168 -96c-152 0 -207 108 -207 239c0 132 55 241 207 241c90 0 136 -43 170 -103c38 65 85 103 155 103
c103 0 176 -71 176 -239h-293c1 -141 47 -199 134 -203c66 -3 121 53 133 93zM248 460c-77 0 -127 -49 -127 -230s50 -228 127 -228c76 0 126 47 126 228s-50 230 -126 230z" />
    <glyph glyph-name="Racute" unicode="&#x154;" horiz-adv-x="585" 
d="M395 513c0 187 -98 180 -210 180h-31v-358h31c122 0 210 -1 210 178zM584 11v-11h-68c-104 0 -94 1 -145 218c-25 106 -131 106 -170 106h-47v-228c0 -70 18 -85 60 -85v-11h-191v11c43 0 57 12 57 105v507c0 62 -13 70 -57 70v11h162c199 0 295 -24 295 -191
c0 -142 -80 -181 -182 -184c67 -7 129 4 183 -234c17 -77 77 -82 103 -84zM145 734l181 161l65 -19l-231 -142h-15z" />
    <glyph glyph-name="racute" unicode="&#x155;" horiz-adv-x="336" 
d="M276 469c16 0 34 -7 45 -22c14 -22 8 -50 -14 -64c-21 -14 -50 -8 -65 14c-6 10 -8 22 -5 33c5 20 -75 -11 -104 -81v-271c0 -55 5 -58 41 -67v-11h-150v11c38 11 40 16 40 67v306c0 34 -8 49 -50 54v10l119 23v-100c29 59 94 98 143 98zM48 540l181 161l65 -19
l-231 -142h-15z" />
    <glyph glyph-name="Rcaron" unicode="&#x158;" horiz-adv-x="585" 
d="M395 513c0 187 -98 180 -210 180h-31v-358h31c122 0 210 -1 210 178zM584 11v-11h-68c-104 0 -94 1 -145 218c-25 106 -131 106 -170 106h-47v-228c0 -70 18 -85 60 -85v-11h-191v11c43 0 57 12 57 105v507c0 62 -13 70 -57 70v11h162c199 0 295 -24 295 -191
c0 -142 -80 -181 -182 -184c67 -7 129 4 183 -234c17 -77 77 -82 103 -84zM241 807l119 115h17l-136 -188l-136 188h17z" />
    <glyph glyph-name="rcaron" unicode="&#x159;" horiz-adv-x="336" 
d="M276 469c16 0 34 -7 45 -22c14 -22 8 -50 -14 -64c-21 -14 -50 -8 -65 14c-6 10 -8 22 -5 33c5 20 -75 -11 -104 -81v-271c0 -55 5 -58 41 -67v-11h-150v11c38 11 40 16 40 67v306c0 34 -8 49 -50 54v10l119 23v-100c29 59 94 98 143 98zM161 590l119 115h17l-136 -188
l-136 188h17z" />
    <glyph glyph-name="Sacute" unicode="&#x15a;" horiz-adv-x="544" 
d="M459 73c0 0 -41 -82 -193 -82c-147 0 -220 54 -220 54v192h10c5 -153 44 -235 210 -235c174 0 188 181 73 261l-171 113c-72 50 -182 135 -108 259c0 0 49 78 179 78c132 0 214 -47 214 -47v-168h-12c-4 122 -32 204 -202 204c-108 0 -212 -143 -51 -247l171 -112
c135 -89 141 -201 100 -270zM138 734l181 161l65 -19l-231 -142h-15z" />
    <glyph glyph-name="sacute" unicode="&#x15b;" horiz-adv-x="417" 
d="M338 38c0 0 -32 -47 -120 -47c-121 0 -172 37 -172 37v141h10c4 -80 25 -167 162 -167c123 0 97 115 21 165l-101 61c-95 66 -115 116 -82 182c0 0 26 61 128 61c115 0 163 -32 163 -32v-127h-10c-4 70 -30 148 -153 148c-109 0 -106 -102 -19 -157l101 -63
c91 -56 119 -135 72 -202zM71 540l181 161l65 -19l-231 -142h-15z" />
    <glyph glyph-name="Scedilla" unicode="&#x15e;" horiz-adv-x="544" 
d="M459 73c0 0 -41 -82 -193 -82c-7 0 -14 1 -20 1l-20 -56c93 21 135 -29 128 -80c-9 -71 -67 -79 -101 -79c-42 0 -59 17 -63 22c-4 6 -5 15 -2 22c5 11 18 15 29 10c10 -5 14 -18 9 -28c-3 -6 -7 -8 -11 -9c-3 0 8 -10 38 -11c36 0 64 21 64 62c0 30 -20 90 -109 69
l26 78c-125 7 -188 53 -188 53v192h10c5 -153 44 -235 210 -235c174 0 188 181 73 261l-171 113c-72 50 -182 135 -108 259c0 0 49 78 179 78c132 0 214 -47 214 -47v-168h-12c-4 122 -32 204 -202 204c-108 0 -212 -143 -51 -247l171 -112c135 -89 141 -201 100 -270z" />
    <glyph glyph-name="scedilla" unicode="&#x15f;" horiz-adv-x="417" 
d="M338 38c0 0 -32 -47 -120 -47c-13 0 -25 0 -36 1l-20 -56c93 21 135 -29 128 -80c-9 -71 -67 -79 -101 -79c-42 0 -59 17 -63 22c-4 6 -5 15 -2 22c5 11 18 15 29 10c10 -5 14 -18 9 -28c-3 -6 -7 -8 -11 -9c-3 0 8 -10 38 -11c36 0 64 21 64 62c0 30 -20 90 -109 69
l26 79c-86 8 -124 35 -124 35v141h10c4 -80 25 -167 162 -167c123 0 97 115 21 165l-101 61c-95 66 -115 116 -82 182c0 0 26 61 128 61c115 0 163 -32 163 -32v-127h-10c-4 70 -30 148 -153 148c-109 0 -106 -102 -19 -157l101 -63c91 -56 119 -135 72 -202z" />
    <glyph glyph-name="Scaron" unicode="&#x160;" horiz-adv-x="544" 
d="M459 73c0 0 -41 -82 -193 -82c-147 0 -220 54 -220 54v192h10c5 -153 44 -235 210 -235c174 0 188 181 73 261l-171 113c-72 50 -182 135 -108 259c0 0 49 78 179 78c132 0 214 -47 214 -47v-168h-12c-4 122 -32 204 -202 204c-108 0 -212 -143 -51 -247l171 -112
c135 -89 141 -201 100 -270zM247 807l119 115h17l-136 -188l-136 188h17z" />
    <glyph glyph-name="scaron" unicode="&#x161;" horiz-adv-x="417" 
d="M191 567l119 115h17l-136 -188l-136 188h17zM338 38c0 0 -32 -47 -120 -47c-121 0 -172 37 -172 37v141h10c4 -80 25 -167 162 -167c123 0 97 115 21 165l-101 61c-95 66 -115 116 -82 182c0 0 26 61 128 61c115 0 163 -32 163 -32v-127h-10c-4 70 -30 148 -153 148
c-109 0 -106 -102 -19 -157l101 -63c91 -56 119 -135 72 -202z" />
    <glyph glyph-name="uni0162" unicode="&#x162;" horiz-adv-x="627" 
d="M19 704h589v-164h-11c-2 153 -146 154 -167 154h-79v-609c0 -65 24 -74 66 -74v-11h-114l-23 -64c93 21 135 -29 128 -80c-9 -71 -67 -79 -101 -79c-42 0 -59 17 -63 22c-4 6 -5 15 -2 22c5 11 18 15 29 10c10 -5 14 -18 9 -28c-3 -6 -7 -8 -11 -9c-3 0 8 -10 38 -11
c36 0 64 21 64 62c0 30 -20 90 -109 69l29 86h-82v11c42 0 66 9 66 74v609h-79c-46 0 -165 -1 -167 -154h-10v164z" />
    <glyph glyph-name="uni0163" unicode="&#x163;" horiz-adv-x="297" 
d="M279 74l6 -2c-11 -43 -52 -81 -104 -81c-10 0 -18 1 -27 2l-20 -57c93 21 135 -29 128 -80c-9 -71 -67 -79 -101 -79c-42 0 -59 17 -63 22c-4 6 -5 15 -2 22c5 11 18 15 29 10c10 -5 14 -18 9 -28c-3 -6 -7 -8 -11 -9c-3 0 8 -10 38 -11c36 0 64 21 64 62
c0 30 -20 90 -109 69l27 81c-46 12 -74 52 -74 149v305h-51l-2 13h53v145l68 10v-155h119l-3 -13h-116v-302c0 -91 31 -118 80 -118c29 0 54 22 62 45z" />
    <glyph glyph-name="Tcaron" unicode="&#x164;" horiz-adv-x="627" 
d="M19 704h589v-164h-11c-2 153 -146 154 -167 154h-79v-609c0 -65 24 -74 66 -74v-11h-208v11c42 0 66 9 66 74v609h-79c-46 0 -165 -1 -167 -154h-10v164zM313 807l119 115h17l-136 -188l-136 188h17z" />
    <glyph glyph-name="tcaron" unicode="&#x165;" horiz-adv-x="299" 
d="M276 75l8 -4c-11 -42 -49 -80 -102 -80c-69 0 -113 32 -113 153v307h-50l-2 11h52v147l69 9v-156h118l-2 -11h-116v-304c0 -91 31 -118 77 -118c29 0 53 22 61 46zM207 704h58c0 -120 -95 -181 -95 -181l-6 9s43 35 43 172z" />
    <glyph glyph-name="Uring" unicode="&#x16e;" horiz-adv-x="684" 
d="M308 -9c-126 0 -224 83 -224 246v370c0 71 -22 86 -66 86v11h215v-11c-43 0 -73 -6 -73 -88v-377c0 -128 74 -200 190 -200c115 0 188 76 188 206v259c0 142 -4 200 -110 200v11h238v-11c-121 0 -117 -58 -117 -200v-259c1 -162 -100 -243 -241 -243zM266 880
c0 -36 28 -66 65 -66c36 0 66 30 66 66c0 37 -30 66 -66 66c-37 0 -65 -29 -65 -66zM238 880c0 51 42 93 93 93c52 0 93 -42 93 -93s-41 -93 -93 -93c-51 0 -93 42 -93 93z" />
    <glyph glyph-name="uring" unicode="&#x16f;" horiz-adv-x="501" 
d="M484 18v-10l-97 -16c-23 -5 -23 13 -23 13v83c-14 -51 -71 -97 -140 -97s-151 23 -151 150v230c0 67 0 71 -56 71v11l123 18v-327c0 -85 55 -115 113 -115c60 0 96 40 111 83v264c0 61 1 65 -47 66v11l116 18v-392c0 -48 9 -56 51 -61zM189 615c0 -36 28 -66 65 -66
c36 0 66 30 66 66c0 37 -30 66 -66 66c-37 0 -65 -29 -65 -66zM161 615c0 51 42 93 93 93c52 0 93 -42 93 -93s-41 -93 -93 -93c-51 0 -93 42 -93 93z" />
    <glyph glyph-name="Uhungarumlaut" unicode="&#x170;" horiz-adv-x="684" 
d="M308 -9c-126 0 -224 83 -224 246v370c0 71 -22 86 -66 86v11h215v-11c-43 0 -73 -6 -73 -88v-377c0 -128 74 -200 190 -200c115 0 188 76 188 206v259c0 142 -4 200 -110 200v11h238v-11c-121 0 -117 -58 -117 -200v-259c1 -162 -100 -243 -241 -243zM355 735l173 161
l72 -20l-230 -141h-15zM190 735l173 161l72 -20l-230 -141h-15z" />
    <glyph glyph-name="uhungarumlaut" unicode="&#x171;" horiz-adv-x="501" 
d="M484 18v-10l-97 -16c-23 -5 -23 13 -23 13v83c-14 -51 -71 -97 -140 -97s-151 23 -151 150v230c0 67 0 71 -56 71v11l123 18v-327c0 -85 55 -115 113 -115c60 0 96 40 111 83v264c0 61 1 65 -47 66v11l116 18v-392c0 -48 9 -56 51 -61zM271 541l173 161l72 -20l-230 -141
h-15zM106 541l173 161l72 -20l-230 -141h-15z" />
    <glyph glyph-name="Ydieresis" unicode="&#x178;" horiz-adv-x="652" 
d="M364 825c0 23 18 41 40 41s40 -18 40 -41c0 -22 -18 -40 -40 -40s-40 18 -40 40zM402 705h236v-10c-52 0 -78 -3 -190 -222l-83 -166v-199c0 -88 29 -96 71 -96v-12h-208v12c42 0 70 8 70 96v186l-186 322c-44 77 -67 76 -103 79v10h225v-10c-31 0 -91 1 -23 -114
l149 -255l79 164c50 104 94 205 -37 205v10zM219 825c0 23 17 41 40 41c21 0 40 -18 40 -41c0 -22 -19 -40 -40 -40c-23 0 -40 18 -40 40z" />
    <glyph glyph-name="Zacute" unicode="&#x179;" horiz-adv-x="504" 
d="M126 12h12c237 0 296 42 324 222h15l-24 -234h-429l371 693h-50c-213 0 -271 -26 -297 -191h-16l17 202h427zM149 734l181 161l65 -19l-231 -142h-15z" />
    <glyph glyph-name="zacute" unicode="&#x17a;" horiz-adv-x="397" 
d="M368 462l-249 -452c150 0 219 28 232 142h12l-9 -152h-325l258 452c-134 0 -228 -14 -240 -122h-12l5 132h328zM80 540l181 161l65 -19l-231 -142h-15z" />
    <glyph glyph-name="Zdotaccent" unicode="&#x17b;" horiz-adv-x="504" 
d="M126 12h12c237 0 296 42 324 222h15l-24 -234h-429l371 693h-50c-213 0 -271 -26 -297 -191h-16l17 202h427zM278 797c-29 0 -51 22 -51 50s22 50 51 50c27 0 50 -22 50 -50s-23 -50 -50 -50z" />
    <glyph glyph-name="zdotaccent" unicode="&#x17c;" horiz-adv-x="397" 
d="M368 462l-249 -452c150 0 219 28 232 142h12l-9 -152h-325l258 452c-134 0 -228 -14 -240 -122h-12l5 132h328zM211 577c-29 0 -51 22 -51 50s22 50 51 50c27 0 50 -22 50 -50s-23 -50 -50 -50z" />
    <glyph glyph-name="Zcaron" unicode="&#x17d;" horiz-adv-x="504" 
d="M126 12h12c237 0 296 42 324 222h15l-24 -234h-429l371 693h-50c-213 0 -271 -26 -297 -191h-16l17 202h427zM264 807l119 115h17l-136 -188l-136 188h17z" />
    <glyph glyph-name="zcaron" unicode="&#x17e;" horiz-adv-x="397" 
d="M204 567l119 115h17l-136 -188l-136 188h17zM368 462l-249 -452c150 0 219 28 232 142h12l-9 -152h-325l258 452c-134 0 -228 -14 -240 -122h-12l5 132h328z" />
    <glyph glyph-name="florin" unicode="&#x192;" horiz-adv-x="589" 
d="M544 645c-9 -20 -34 -27 -53 -18c-21 10 -29 34 -19 54c4 10 13 17 23 20c4 1 3 24 -40 24c-60 0 -82 -138 -82 -138l-29 -207h105l-5 -14h-101l-37 -268c-32 -242 -50 -338 -186 -337c-61 0 -81 32 -89 44c-7 12 -10 31 -3 45c10 21 35 29 55 19c19 -9 28 -34 18 -54
c-5 -10 -14 -17 -22 -20c-6 -1 -6 -24 42 -24c64 0 85 151 85 151l64 444h-76l1 14h75c24 193 52 355 185 355c53 0 80 -31 87 -43c7 -13 9 -32 2 -47z" />
    <glyph glyph-name="circumflex" unicode="&#x2c6;" horiz-adv-x="272" 
d="M136 645l-119 -114h-17l136 188l136 -188h-17z" />
    <glyph glyph-name="caron" unicode="&#x2c7;" horiz-adv-x="274" 
d="M136 605l119 115h17l-136 -188l-136 188h17z" />
    <glyph glyph-name="uni02C9" unicode="&#x2c9;" horiz-adv-x="305" 
d="M330 598h-355v46h355v-46z" />
    <glyph glyph-name="breve" unicode="&#x2d8;" horiz-adv-x="252" 
d="M247 704h6c0 -76 -30 -137 -125 -137c-97 0 -129 61 -129 137h7c0 -37 20 -88 122 -88c98 0 119 51 119 88z" />
    <glyph glyph-name="dotaccent" unicode="&#x2d9;" horiz-adv-x="258" 
d="M131 596c-29 0 -51 22 -51 50s22 50 51 50c27 0 50 -22 50 -50s-23 -50 -50 -50z" />
    <glyph glyph-name="ring" unicode="&#x2da;" horiz-adv-x="271" 
d="M73 637c0 -36 28 -66 65 -66c36 0 66 30 66 66c0 37 -30 66 -66 66c-37 0 -65 -29 -65 -66zM45 637c0 51 42 93 93 93c52 0 93 -42 93 -93s-41 -93 -93 -93c-51 0 -93 42 -93 93z" />
    <glyph glyph-name="ogonek" unicode="&#x2db;" horiz-adv-x="267" 
d="M147 -134c12 -46 63 -42 63 -42c31 0 47 33 47 55h10c0 -46 -20 -80 -69 -80c-70 0 -88 41 -88 41c-29 75 34 129 126 160v-8c-57 -26 -99 -88 -89 -126z" />
    <glyph glyph-name="tilde" unicode="&#x2dc;" horiz-adv-x="412" 
d="M248 573l-111 43c-33 12 -121 15 -149 -44l-6 2c55 141 179 97 179 97l113 -43c32 -13 124 -10 148 45l6 -3c-55 -142 -180 -97 -180 -97z" />
    <glyph glyph-name="hungarumlaut" unicode="&#x2dd;" horiz-adv-x="501" 
d="M252 557l173 161l72 -20l-230 -141h-15zM87 557l173 161l72 -20l-230 -141h-15z" />
    <glyph glyph-name="uni03A9" unicode="&#x3a9;" horiz-adv-x="690" 
d="M618 120h11l-24 -120h-235c25 132 156 179 156 445c0 253 -122 280 -196 280s-196 -27 -196 -280c0 -266 130 -313 156 -445h-235l-24 120h10c19 -47 44 -56 98 -56h110c-10 38 -53 70 -87 106c-84 89 -111 191 -111 280c0 157 92 286 279 286c186 0 279 -129 279 -286
c0 -89 -28 -191 -112 -280c-34 -36 -77 -68 -86 -106h110c54 0 78 9 97 56z" />
    <glyph glyph-name="uni03BC" unicode="&#x3bc;" horiz-adv-x="497" 
d="M478 18v-10l-97 -16c-23 -5 -23 13 -23 13v83c-16 -68 -125 -131 -224 -74v-189c0 -48 9 -58 51 -63v-10l-96 -16c-23 -5 -22 13 -22 13v622c0 67 1 69 -56 71v11l123 18v-338c5 -77 57 -104 113 -104c60 0 96 40 111 83v264c0 61 1 65 -47 66v11l116 18v-392
c0 -48 9 -56 51 -61z" />
    <glyph glyph-name="pi" unicode="&#x3c0;" horiz-adv-x="575" 
d="M500 44l9 -2c-8 -29 -33 -51 -75 -51c-81 0 -80 72 -80 72v338h-134l-10 -226c-7 -156 -136 -217 -136 -217l-5 7c62 48 96 125 101 216l9 220h-13c-42 -1 -113 -10 -147 -61l-7 5s45 110 169 111h241c85 0 128 6 130 61h7c0 -86 -35 -116 -124 -116h-21v-313
c0 -44 21 -63 54 -63c25 0 32 19 32 19z" />
    <glyph glyph-name="uni2010" unicode="&#x2010;" horiz-adv-x="447" 
d="M64 281h315v-50h-315v50z" />
    <glyph glyph-name="endash" unicode="&#x2013;" horiz-adv-x="561" 
d="M0 274h561v-43h-561v43z" />
    <glyph glyph-name="emdash" unicode="&#x2014;" horiz-adv-x="1055" 
d="M0 274h1055v-43h-1055v43z" />
    <glyph glyph-name="quoteleft" unicode="&#x2018;" horiz-adv-x="204" 
d="M148 689l5 -5c-72 -50 -58 -108 -42 -111c11 -2 22 -5 32 -14c18 -18 19 -47 1 -65c-19 -19 -48 -18 -66 0c-28 28 -22 89 4 131c11 20 24 42 66 64z" />
    <glyph glyph-name="quoteright" unicode="&#x2019;" horiz-adv-x="207" 
d="M65 477l-5 5c72 50 58 108 42 111c-11 2 -22 5 -32 14c-18 18 -19 47 -1 65c19 19 48 18 66 0c28 -28 22 -89 -4 -131c-11 -20 -24 -42 -66 -64z" />
    <glyph glyph-name="quotesinglbase" unicode="&#x201a;" horiz-adv-x="204" 
d="M64 -122l-5 5c72 50 58 108 42 111c-11 2 -22 5 -32 14c-18 18 -19 47 -1 65c19 19 48 18 66 0c28 -28 22 -89 -4 -131c-11 -20 -24 -42 -66 -64z" />
    <glyph glyph-name="quotedblleft" unicode="&#x201c;" horiz-adv-x="383" 
d="M314 693l5 -5c-72 -50 -58 -108 -42 -111c11 -2 22 -5 32 -14c18 -18 19 -47 1 -65c-19 -19 -48 -18 -66 0c-28 28 -22 89 4 131c11 20 24 42 66 64zM141 693l4 -5c-72 -50 -57 -108 -41 -111c11 -2 22 -5 31 -14c19 -18 19 -47 1 -65c-18 -19 -48 -18 -66 0
c-28 28 -21 89 4 131c12 20 25 42 67 64z" />
    <glyph glyph-name="quotedblright" unicode="&#x201d;" horiz-adv-x="378" 
d="M64 485l-5 5c72 50 58 108 42 111c-11 2 -22 5 -32 14c-18 18 -19 47 -1 65c19 19 48 18 66 0c28 -28 22 -89 -4 -131c-11 -20 -24 -42 -66 -64zM237 485l-4 5c72 50 57 108 41 111c-11 2 -22 5 -31 14c-19 18 -19 47 -1 65c18 19 48 18 66 0c28 -28 21 -89 -4 -131
c-12 -20 -25 -42 -67 -64z" />
    <glyph glyph-name="quotedblbase" unicode="&#x201e;" horiz-adv-x="378" 
d="M64 -121l-5 5c72 50 58 108 42 111c-11 2 -22 5 -32 14c-18 18 -19 47 -1 65c19 19 48 18 66 0c28 -28 22 -89 -4 -131c-11 -20 -24 -42 -66 -64zM237 -121l-4 5c72 50 57 108 41 111c-11 2 -22 5 -31 14c-19 18 -19 47 -1 65c18 19 48 18 66 0c28 -28 21 -89 -4 -131
c-12 -20 -25 -42 -67 -64z" />
    <glyph glyph-name="dagger" unicode="&#x2020;" horiz-adv-x="374" 
d="M186 645c-22 0 -39 18 -39 39c0 22 17 40 39 40s40 -18 40 -40c0 -21 -18 -39 -40 -39zM103 445c7 -5 20 -17 31 -36l-4 -3c-17 22 -46 27 -46 22c-1 -8 -3 -17 -10 -23c-13 -14 -34 -14 -48 -1c-13 14 -13 35 0 48c20 21 56 7 77 -7zM194 403c0 0 -3 -51 33 -111
c-37 -234 -38 -513 -38 -557h-6c0 45 -1 323 -37 557c35 61 32 111 32 111c0 63 -17 99 -17 142c0 0 -7 61 25 61s25 -61 25 -61c0 -43 -17 -78 -17 -142zM346 452c14 -13 14 -34 0 -48c-13 -13 -35 -13 -48 1c-7 6 -9 15 -10 23c0 5 -29 0 -46 -22l-4 3c11 19 24 30 32 36
c20 14 56 28 76 7z" />
    <glyph glyph-name="daggerdbl" unicode="&#x2021;" horiz-adv-x="426" 
d="M221 357c0 -74 43 -103 57 -112c-14 -9 -56 -37 -56 -110c0 -68 20 -99 20 -145c0 0 7 -65 -27 -65c-35 0 -28 65 -28 65c0 46 19 76 19 145c0 73 -42 102 -57 110c15 10 56 38 56 112c0 68 -18 98 -18 145c0 0 -9 65 26 65s28 -65 28 -65c0 -47 -20 -76 -20 -145z
M324 393c0 6 -32 0 -50 -24l-5 3c12 21 26 33 35 39c22 16 60 31 83 8c14 -14 14 -37 0 -52c-15 -14 -39 -14 -53 1c-7 7 -9 17 -10 25zM213 609c-23 0 -43 20 -43 43c0 24 20 44 43 44c25 0 43 -20 43 -44c0 -23 -18 -43 -43 -43zM215 -117c23 0 42 -20 42 -43
c0 -24 -19 -43 -42 -43c-25 0 -44 19 -44 43c0 23 19 43 44 43zM93 368c-15 -15 -38 -15 -53 -1c-14 15 -14 38 0 52c22 23 61 8 83 -8c9 -6 23 -18 35 -39l-5 -3c-18 24 -49 30 -49 24c-1 -8 -4 -18 -11 -25zM335 125c14 15 37 15 53 1c14 -16 14 -39 0 -53
c-23 -22 -62 -7 -84 8c-8 7 -22 19 -34 40l4 3c19 -24 50 -30 50 -24c1 8 3 18 11 25zM104 100c0 -6 31 0 50 24l4 -3c-12 -21 -26 -33 -34 -40c-22 -15 -61 -30 -84 -8c-14 14 -14 37 0 53c16 14 39 14 53 -1c7 -7 10 -17 11 -25z" />
    <glyph glyph-name="bullet" unicode="&#x2022;" horiz-adv-x="410" 
d="M195 255c-48 0 -88 39 -88 86c0 50 40 88 88 88s87 -38 87 -88c0 -47 -39 -86 -87 -86z" />
    <glyph glyph-name="ellipsis" unicode="&#x2026;" horiz-adv-x="625" 
d="M530 38c0 -26 -22 -46 -47 -46c-26 0 -46 20 -46 46s20 47 46 47c25 0 47 -21 47 -47zM353 38c0 -26 -21 -46 -46 -46c-26 0 -46 20 -46 46s20 47 46 47c25 0 46 -21 46 -47zM178 38c0 -26 -21 -46 -47 -46c-25 0 -45 20 -45 46s20 47 45 47c26 0 47 -21 47 -47z" />
    <glyph glyph-name="perthousand" unicode="&#x2030;" horiz-adv-x="1050" 
d="M69 495c0 -141 37 -165 80 -165c46 0 81 24 81 165c0 142 -38 173 -81 173c-44 0 -80 -31 -80 -173zM281 495c0 -79 -22 -176 -132 -176s-132 97 -132 176s22 184 132 184s132 -105 132 -184zM569 36c45 0 80 23 80 165s-37 172 -80 172c-45 0 -81 -30 -81 -172
s37 -165 81 -165zM569 384c109 0 132 -104 132 -183s-23 -176 -132 -176c-110 0 -132 97 -132 176s22 183 132 183zM107 0l456 704h47l-456 -704h-47zM881 36c46 0 81 23 81 165s-38 172 -81 172c-44 0 -80 -30 -80 -172s37 -165 80 -165zM881 384c110 0 132 -104 132 -183
s-22 -176 -132 -176s-131 97 -131 176s21 183 131 183z" />
    <glyph glyph-name="guilsinglleft" unicode="&#x2039;" horiz-adv-x="339" 
d="M281 505v-20l-162 -219l162 -214v-19l-231 233z" />
    <glyph glyph-name="guilsinglright" unicode="&#x203a;" horiz-adv-x="339" 
d="M48 485v20l231 -239l-231 -233v19l161 214z" />
    <glyph glyph-name="fraction" unicode="&#x2044;" horiz-adv-x="324" 
d="M457 734h35l-605 -734h-34z" />
    <glyph glyph-name="Euro" unicode="&#x20ac;" horiz-adv-x="583" 
d="M201 412h216l-8 -14h-209c0 -10 -1 -34 -1 -46c0 -11 1 -33 1 -43h201l-8 -13h-193c12 -268 110 -294 161 -294c31 0 153 8 153 177h11v-132c-66 -44 -88 -56 -165 -56c-144 0 -226 107 -239 305h-107l9 13h97c0 14 -1 29 -1 43s1 31 1 46h-106l9 14h98
c14 198 95 301 240 301c76 0 106 -10 164 -56v-132h-11c0 168 -117 177 -153 177c-52 0 -148 -31 -160 -290z" />
    <glyph glyph-name="afii61289" unicode="&#x2113;" horiz-adv-x="332" 
d="M156 549l-1 -244l52 49c97 93 90 282 44 341c-13 17 -95 71 -95 -146zM293 99l9 -4c-10 -62 -53 -104 -99 -104c-77 0 -118 56 -118 214v29l-63 -48v27l63 50v272c0 212 116 237 174 168c66 -77 57 -281 -45 -371l-60 -56l-1 -108c-2 -87 24 -150 73 -142
c19 3 48 14 67 73z" />
    <glyph glyph-name="trademark" unicode="&#x2122;" horiz-adv-x="649" 
d="M589 470c0 -35 16 -42 33 -42v-11h-95v11c17 0 29 7 29 42v200l-91 -257h-6l-108 241v-130c0 -71 6 -96 45 -96v-11h-110v11c44 0 54 27 54 96v148c-14 21 -34 21 -45 21v11h71l107 -236l83 236h64v-11c-18 0 -31 -6 -31 -36v-187zM13 704h241v-82h-11
c0 71 -53 71 -62 71h-32v-235c0 -26 10 -30 26 -30v-11h-84v11c17 0 27 4 27 30v235h-32c-19 0 -62 0 -62 -71h-11v82z" />
    <glyph glyph-name="Omega" unicode="&#x2126;" horiz-adv-x="690" 
d="M618 120h11l-24 -120h-235c25 132 156 179 156 445c0 253 -122 280 -196 280s-196 -27 -196 -280c0 -266 130 -313 156 -445h-235l-24 120h10c19 -47 44 -56 98 -56h110c-10 38 -53 70 -87 106c-84 89 -111 191 -111 280c0 157 92 286 279 286c186 0 279 -129 279 -286
c0 -89 -28 -191 -112 -280c-34 -36 -77 -68 -86 -106h110c54 0 78 9 97 56z" />
    <glyph glyph-name="estimated" unicode="&#x212e;" horiz-adv-x="892" 
d="M167 613v-225h560v222c-72 65 -172 105 -282 105c-109 0 -207 -39 -278 -102zM445 735c228 0 413 -165 413 -368h-691v-245c71 -63 169 -102 278 -102c119 0 225 46 297 120h27c-76 -85 -192 -140 -324 -140c-228 0 -413 164 -413 367s185 368 413 368z" />
    <glyph glyph-name="partialdiff" unicode="&#x2202;" horiz-adv-x="472" 
d="M214 2c68 0 121 109 142 338c-13 47 -49 82 -91 82c-55 0 -130 -47 -148 -210c-19 -173 28 -210 97 -210zM241 743c158 0 204 -164 189 -406c-12 -177 -79 -346 -216 -346c-126 0 -185 87 -173 232c10 115 97 228 195 228c35 0 102 -20 121 -91c23 287 -25 372 -116 372
c-67 0 -157 -78 -138 -159l-9 -3l-24 74c22 58 102 99 171 99z" />
    <glyph glyph-name="Delta" unicode="&#x2206;" horiz-adv-x="714" 
d="M63 32h514l-256 613zM375 738l294 -706l-15 -32h-616l-6 26l1 2l287 692z" />
    <glyph glyph-name="product" unicode="&#x220f;" horiz-adv-x="604" 
d="M506 594v-551c0 -77 12 -117 60 -117v-11h-201v11c48 0 60 40 60 117v547c0 70 -11 102 -60 102h-138c-48 0 -53 -32 -53 -102v-547c0 -77 6 -117 53 -117v-11h-195v11c48 0 63 40 63 117v551c0 69 -13 99 -63 99v11h534v-11c-49 0 -60 -30 -60 -99z" />
    <glyph glyph-name="summation" unicode="&#x2211;" horiz-adv-x="655" 
d="M132 693l224 -388l-239 -391h159c289 0 306 93 328 214h16l-27 -226h-517l202 338l-257 464h560l19 -191h-18c-28 145 -140 180 -287 180h-163z" />
    <glyph glyph-name="minus" unicode="&#x2212;" horiz-adv-x="626" 
d="M581 233h-533v47h533v-47z" />
    <glyph glyph-name="uni2215" unicode="&#x2215;" horiz-adv-x="329" 
d="M458 734h41l-605 -734h-40z" />
    <glyph glyph-name="uni2219" unicode="&#x2219;" horiz-adv-x="238" 
d="M120 256c-24 0 -42 19 -42 42s18 42 42 42c23 0 42 -19 42 -42s-19 -42 -42 -42z" />
    <glyph glyph-name="radical" unicode="&#x221a;" horiz-adv-x="565" 
d="M362 -50l155 909l25 -7l-180 -1031l-18 -7l-200 469c-22 52 -58 73 -96 58l-3 9l125 52z" />
    <glyph glyph-name="infinity" unicode="&#x221e;" horiz-adv-x="755" 
d="M607 220c18 19 28 44 28 72c0 27 -10 52 -28 72c-18 19 -42 29 -67 29c-24 0 -49 -10 -66 -29c-3 -3 -62 -73 -62 -73s58 -66 62 -71c17 -18 41 -29 66 -29s49 11 67 29zM271 220l61 72l-62 72c-18 19 -42 29 -67 29s-49 -10 -67 -29s-28 -45 -28 -72
c1 -28 10 -53 29 -72c16 -18 41 -29 66 -29c26 0 49 11 68 29zM650 404c59 -61 59 -163 0 -225c-29 -30 -68 -47 -110 -47s-80 17 -109 47c-3 3 -59 68 -59 68s-57 -65 -60 -68c-29 -30 -67 -47 -109 -47c-41 0 -80 17 -110 47c-58 61 -57 164 0 226c30 30 69 47 110 47
c42 0 80 -17 109 -48c3 -2 60 -67 60 -67s56 64 59 67c29 31 67 48 109 48s81 -17 110 -48z" />
    <glyph glyph-name="integral" unicode="&#x222b;" horiz-adv-x="327" 
d="M305 756c-8 -19 -28 -28 -46 -21c-19 8 -29 28 -21 47c4 10 11 16 19 19c4 1 1 15 -28 15c-3 0 -70 0 -51 -206l35 -441c21 -251 2 -379 -111 -379c-45 0 -65 20 -72 30c-7 11 -10 28 -6 41c7 19 28 28 47 20s27 -28 20 -47c-3 -9 -10 -15 -19 -18c-4 -2 4 -17 31 -17
c2 0 73 -3 52 206l-35 440c-21 252 -2 380 109 380c45 0 63 -19 71 -29s10 -28 5 -40z" />
    <glyph glyph-name="approxequal" unicode="&#x2248;" horiz-adv-x="505" 
d="M293 326l-111 43c-33 12 -121 16 -149 -44l-6 2c55 141 179 98 179 98l113 -44c32 -12 124 -9 148 45l6 -2c-55 -143 -180 -98 -180 -98zM293 149l-111 43c-33 12 -121 15 -149 -44l-6 2c55 141 179 97 179 97l113 -43c32 -13 124 -10 148 45l6 -3
c-55 -142 -180 -97 -180 -97z" />
    <glyph glyph-name="notequal" unicode="&#x2260;" horiz-adv-x="527" 
d="M480 352h-149l-66 -140h215v-55h-241l-61 -129l-49 23l50 106h-133v55h159l66 140h-225v54h250l66 139l49 -23l-54 -116h123v-54z" />
    <glyph glyph-name="lessequal" unicode="&#x2264;" horiz-adv-x="532" 
d="M133 345l346 -180v-59l-423 217v44l423 217v-61zM47 40h432v-44h-432v44z" />
    <glyph glyph-name="greaterequal" unicode="&#x2265;" horiz-adv-x="532" 
d="M55 165l346 180l-346 178v61l423 -217v-44l-423 -217v59zM55 40h432v-44h-432v44z" />
    <glyph glyph-name="lozenge" unicode="&#x25ca;" horiz-adv-x="559" 
d="M448 327l-170 334l-171 -334l171 -335zM301 733l208 -406l-208 -406h-45l-208 406l208 406h45z" />
    <glyph glyph-name="zero.taboldstyle" unicode="&#xf643;" horiz-adv-x="536" 
d="M409 229c0 203 -75 231 -136 231c-62 0 -137 -28 -137 -231c0 -201 75 -227 137 -227c61 0 136 26 136 227zM490 229c0 -162 -83 -238 -217 -238c-133 0 -217 78 -217 238c0 156 84 242 217 242c134 0 217 -79 217 -242z" />
    <glyph glyph-name="one.taboldstyle" unicode="&#xf644;" horiz-adv-x="436" 
d="M194 88v274c0 54 -22 66 -90 22l-4 10l140 77h22v-383c0 -77 39 -78 74 -78v-10h-218v10c41 0 76 4 76 78z" />
    <glyph glyph-name="two.taboldstyle" unicode="&#xf645;" horiz-adv-x="462" 
d="M370 110h10l-32 -110h-276l99 109c110 113 136 200 108 271c-28 70 -91 82 -138 61c-33 -16 -36 -34 -32 -33c8 2 19 1 28 -5c18 -12 21 -35 9 -51c-13 -17 -37 -20 -53 -8c-12 8 -17 23 -15 35c1 11 8 35 59 69c43 28 195 53 225 -69c27 -109 -77 -166 -213 -316l155 1
c32 0 46 7 66 46z" />
    <glyph glyph-name="three.taboldstyle" unicode="&#xf646;" horiz-adv-x="515" 
d="M78 -203c-8 12 -10 32 -2 48c11 22 40 30 61 18c22 -12 30 -39 18 -62c-6 -10 -15 -17 -27 -19c-6 -1 32 -36 112 -36c102 0 163 59 153 190c-5 71 -49 164 -193 169v14c146 13 200 184 99 272c-73 63 -212 13 -219 -86l-13 1c6 163 157 165 186 165
c171 0 245 -259 45 -337c111 -20 170 -105 171 -183c3 -172 -142 -216 -229 -216c-88 0 -142 34 -162 62z" />
    <glyph glyph-name="four.taboldstyle" unicode="&#xf647;" horiz-adv-x="561" 
d="M334 -5v384l-235 -349c-23 -35 -16 -35 14 -35h221zM502 -48h-92v-108c0 -96 28 -98 70 -98v-11h-216v11c42 0 70 4 70 93v113h-292v13l337 499l31 -2v-467h92v-43z" />
    <glyph glyph-name="five.taboldstyle" unicode="&#xf648;" horiz-adv-x="553" 
d="M501 4c26 -193 -132 -269 -256 -269c-102 0 -156 50 -166 63s-15 34 -7 51c10 23 38 34 62 23c23 -10 33 -39 23 -62c-6 -13 -16 -19 -28 -22c-10 -3 36 -42 116 -42c119 0 232 100 189 240c-31 100 -154 165 -360 110l53 366h346l-18 -73h-325l-31 -219
c227 63 385 -35 402 -166z" />
    <glyph glyph-name="six.taboldstyle" unicode="&#xf649;" horiz-adv-x="546" 
d="M409 223c0 160 -68 217 -127 217c-103 0 -158 -95 -158 -160c0 -182 50 -278 146 -278c75 0 139 66 139 221zM484 239c0 -155 -75 -248 -214 -248c-169 0 -225 127 -225 326c0 206 94 396 252 396c111 0 126 -51 131 -63c6 -14 2 -35 -9 -47c-17 -18 -46 -18 -64 -1
c-17 17 -18 46 0 63c8 8 19 14 30 13c8 -1 -7 19 -66 23c-116 8 -194 -94 -195 -379c25 81 79 149 173 149c142 0 187 -133 187 -232z" />
    <glyph glyph-name="seven.taboldstyle" unicode="&#xf64a;" horiz-adv-x="550" 
d="M75 462h451l-40 -66c-139 -248 -190 -411 -190 -659h-86c14 277 81 397 263 659h-321c-55 0 -66 -17 -83 -58h-11z" />
    <glyph glyph-name="eight.taboldstyle" unicode="&#xf64b;" horiz-adv-x="542" 
d="M403 550c-3 123 -70 152 -133 152s-128 -43 -128 -116c0 -100 57 -141 160 -183c33 8 103 65 101 147zM280 -9c-148 0 -235 51 -235 172c0 86 78 161 175 195c-104 60 -135 104 -135 187c0 110 87 168 185 168c120 0 183 -66 183 -161c0 -58 -66 -138 -138 -157
c100 -50 188 -109 188 -212c0 -135 -96 -192 -223 -192zM266 332c-17 9 -20 11 -35 20c-40 -18 -125 -66 -125 -187c0 -124 88 -163 174 -163c54 0 159 28 156 151c-1 72 -43 113 -170 179z" />
    <glyph glyph-name="nine.taboldstyle" unicode="&#xf64c;" horiz-adv-x="512" 
d="M114 238c0 -160 68 -216 127 -216c103 0 157 92 157 157c0 173 -50 281 -146 281c-75 0 -138 -67 -138 -222zM38 221c0 160 75 250 214 250c169 0 225 -129 225 -328c0 -258 -76 -408 -244 -408c-116 0 -136 62 -142 74c-6 15 -2 37 10 49c18 19 47 19 66 2
c18 -18 18 -48 1 -65c-9 -9 -21 -15 -32 -14c-8 1 15 -31 74 -34c130 -9 188 75 188 390c-25 -80 -79 -146 -173 -146c-142 0 -187 132 -187 230z" />
    <glyph glyph-name="dollar.taboldstyle" unicode="&#xf653;" horiz-adv-x="512" 
d="M269 2c174 9 175 186 67 261l-67 44v-305zM235 422v280c-107 -2 -209 -143 -50 -247zM356 343c135 -89 141 -201 100 -270c-11 -12 -51 -77 -187 -82v-122h-34v122c-128 7 -192 54 -192 54v192h8c5 -145 41 -224 184 -235v327l-70 47c-72 50 -182 136 -108 259
c0 0 50 77 178 78v122h34v-122c113 -6 181 -46 181 -46v-168h-9c-5 111 -32 194 -172 202v-301z" />
    <glyph glyph-name="cent.taboldstyle" unicode="&#xf654;" horiz-adv-x="513" 
d="M152 237c0 -135 70 -195 138 -207v429c-50 -8 -138 -54 -138 -222zM461 128l8 -3c-9 -48 -51 -127 -160 -134v-109h-19v109c-110 3 -215 80 -215 238c0 120 82 232 215 242v122h19v-122c112 0 136 -52 140 -69c4 -13 3 -28 -8 -40c-15 -14 -41 -16 -55 -2
c-16 16 -17 40 -1 55c8 8 19 11 26 11c10 -1 -22 34 -102 34v-431c84 -1 136 55 152 99z" />
    <glyph glyph-name="dollar.oldstyle" unicode="&#xf724;" horiz-adv-x="512" 
d="M269 2c174 9 175 186 67 261l-67 44v-305zM235 422v280c-107 -2 -209 -143 -50 -247zM356 343c135 -89 141 -201 100 -270c-11 -12 -51 -77 -187 -82v-122h-34v122c-128 7 -192 54 -192 54v192h8c5 -145 41 -224 184 -235v327l-70 47c-72 50 -182 136 -108 259
c0 0 50 77 178 78v122h34v-122c113 -6 181 -46 181 -46v-168h-9c-5 111 -32 194 -172 202v-301z" />
    <glyph glyph-name="zero.oldstyle" unicode="&#xf730;" horiz-adv-x="536" 
d="M409 229c0 203 -75 231 -136 231c-62 0 -137 -28 -137 -231c0 -201 75 -227 137 -227c61 0 136 26 136 227zM490 229c0 -162 -83 -238 -217 -238c-133 0 -217 78 -217 238c0 156 84 242 217 242c134 0 217 -79 217 -242z" />
    <glyph glyph-name="one.oldstyle" unicode="&#xf731;" horiz-adv-x="436" 
d="M194 88v274c0 54 -22 66 -90 22l-4 10l140 77h22v-383c0 -77 39 -78 74 -78v-10h-218v10c41 0 76 4 76 78z" />
    <glyph glyph-name="two.oldstyle" unicode="&#xf732;" horiz-adv-x="462" 
d="M370 110h10l-32 -110h-276l99 109c110 113 136 200 108 271c-28 70 -91 82 -138 61c-33 -16 -36 -34 -32 -33c8 2 19 1 28 -5c18 -12 21 -35 9 -51c-13 -17 -37 -20 -53 -8c-12 8 -17 23 -15 35c1 11 8 35 59 69c43 28 195 53 225 -69c27 -109 -77 -166 -213 -316l155 1
c32 0 46 7 66 46z" />
    <glyph glyph-name="three.oldstyle" unicode="&#xf733;" horiz-adv-x="515" 
d="M78 -203c-8 12 -10 32 -2 48c11 22 40 30 61 18c22 -12 30 -39 18 -62c-6 -10 -15 -17 -27 -19c-6 -1 32 -36 112 -36c102 0 163 59 153 190c-5 71 -49 164 -193 169v14c146 13 200 184 99 272c-73 63 -212 13 -219 -86l-13 1c6 163 157 165 186 165
c171 0 245 -259 45 -337c111 -20 170 -105 171 -183c3 -172 -142 -216 -229 -216c-88 0 -142 34 -162 62z" />
    <glyph glyph-name="four.oldstyle" unicode="&#xf734;" horiz-adv-x="561" 
d="M334 -5v384l-235 -349c-23 -35 -16 -35 14 -35h221zM502 -48h-92v-108c0 -96 28 -98 70 -98v-11h-216v11c42 0 70 4 70 93v113h-292v13l337 499l31 -2v-467h92v-43z" />
    <glyph glyph-name="five.oldstyle" unicode="&#xf735;" horiz-adv-x="553" 
d="M501 4c26 -193 -132 -269 -256 -269c-102 0 -156 50 -166 63s-15 34 -7 51c10 23 38 34 62 23c23 -10 33 -39 23 -62c-6 -13 -16 -19 -28 -22c-10 -3 36 -42 116 -42c119 0 232 100 189 240c-31 100 -154 165 -360 110l53 366h346l-18 -73h-325l-31 -219
c227 63 385 -35 402 -166z" />
    <glyph glyph-name="six.oldstyle" unicode="&#xf736;" horiz-adv-x="546" 
d="M409 223c0 160 -68 217 -127 217c-103 0 -158 -95 -158 -160c0 -182 50 -278 146 -278c75 0 139 66 139 221zM484 239c0 -155 -75 -248 -214 -248c-169 0 -225 127 -225 326c0 206 94 396 252 396c111 0 126 -51 131 -63c6 -14 2 -35 -9 -47c-17 -18 -46 -18 -64 -1
c-17 17 -18 46 0 63c8 8 19 14 30 13c8 -1 -7 19 -66 23c-116 8 -194 -94 -195 -379c25 81 79 149 173 149c142 0 187 -133 187 -232z" />
    <glyph glyph-name="seven.oldstyle" unicode="&#xf737;" horiz-adv-x="550" 
d="M75 462h451l-40 -66c-139 -248 -190 -411 -190 -659h-86c14 277 81 397 263 659h-321c-55 0 -66 -17 -83 -58h-11z" />
    <glyph glyph-name="eight.oldstyle" unicode="&#xf738;" horiz-adv-x="542" 
d="M403 550c-3 123 -70 152 -133 152s-128 -43 -128 -116c0 -100 57 -141 160 -183c33 8 103 65 101 147zM280 -9c-148 0 -235 51 -235 172c0 86 78 161 175 195c-104 60 -135 104 -135 187c0 110 87 168 185 168c120 0 183 -66 183 -161c0 -58 -66 -138 -138 -157
c100 -50 188 -109 188 -212c0 -135 -96 -192 -223 -192zM266 332c-17 9 -20 11 -35 20c-40 -18 -125 -66 -125 -187c0 -124 88 -163 174 -163c54 0 159 28 156 151c-1 72 -43 113 -170 179z" />
    <glyph glyph-name="nine.oldstyle" unicode="&#xf739;" horiz-adv-x="512" 
d="M114 238c0 -160 68 -216 127 -216c103 0 157 92 157 157c0 173 -50 281 -146 281c-75 0 -138 -67 -138 -222zM38 221c0 160 75 250 214 250c169 0 225 -129 225 -328c0 -258 -76 -408 -244 -408c-116 0 -136 62 -142 74c-6 15 -2 37 10 49c18 19 47 19 66 2
c18 -18 18 -48 1 -65c-9 -9 -21 -15 -32 -14c-8 1 15 -31 74 -34c130 -9 188 75 188 390c-25 -80 -79 -146 -173 -146c-142 0 -187 132 -187 230z" />
    <glyph glyph-name="cent.oldstyle" unicode="&#xf7a2;" horiz-adv-x="513" 
d="M152 237c0 -135 70 -195 138 -207v429c-50 -8 -138 -54 -138 -222zM461 128l8 -3c-9 -48 -51 -127 -160 -134v-109h-19v109c-110 3 -215 80 -215 238c0 120 82 232 215 242v122h19v-122c112 0 136 -52 140 -69c4 -13 3 -28 -8 -40c-15 -14 -41 -16 -55 -2
c-16 16 -17 40 -1 55c8 8 19 11 26 11c10 -1 -22 34 -102 34v-431c84 -1 136 55 152 99z" />
    <glyph glyph-name="fi" unicode="&#xfb01;" horiz-adv-x="491" 
d="M453 9v-9h-149v9c38 11 40 16 40 67v318c0 35 -10 57 -50 57h-142v-379c0 -55 16 -59 52 -64v-8h-160v8c38 7 39 13 39 64v379h-64l-1 11h65v6c0 219 78 277 203 277c54 0 116 -24 123 -92c1 -16 -3 -37 -15 -48c-18 -17 -47 -15 -63 2c-17 19 -16 46 3 63
c9 9 19 13 31 11c24 -3 -2 54 -79 54c-50 0 -134 -13 -134 -261v-12h142h118v-386c0 -55 5 -58 41 -67z" />
    <glyph glyph-name="fl" unicode="&#xfb02;" horiz-adv-x="475" 
d="M464 11v-11h-150v11c38 11 40 14 40 65v578c0 50 -36 69 -86 73c-52 4 -125 -20 -125 -255v-10h107l-2 -11h-105v-379c0 -55 17 -57 52 -62v-10h-160v10c38 7 39 11 39 62v379h-64l-1 11h65v20c0 190 63 263 166 263c44 0 74 -8 96 -22l87 23v-670c0 -55 5 -56 41 -65z
" />
    <glyph glyph-name="NULL" horiz-adv-x="0" 
 />
    <glyph glyph-name="CR" horiz-adv-x="278" 
 />
    <glyph glyph-name="two.superior" horiz-adv-x="256" 
d="M199 434h11l-15 -56h-164l100 152c104 151 -77 188 -87 87l-12 1c1 89 83 86 83 86c46 0 79 -35 79 -77c0 -29 -17 -55 -53 -103l-76 -115h95c15 0 29 8 39 25z" />
    <glyph glyph-name="one.superior" horiz-adv-x="192" 
d="M117 426c0 -35 18 -35 34 -35v-11h-102v11c19 0 36 2 36 35v212c0 28 -17 21 -39 5l-7 9l63 52h15v-278z" />
    <glyph glyph-name="a.superior" horiz-adv-x="283" 
d="M153 583c-65 -15 -97 -33 -97 -66c0 -24 14 -44 46 -44s46 22 51 37v73zM228 490l10 -3c-2 -21 -19 -34 -45 -34c0 0 -39 0 -39 36c-7 -21 -38 -36 -75 -36c0 0 -59 -1 -59 54c0 50 44 65 133 88v29c0 54 -25 81 -70 61c-21 -9 -26 -17 -23 -17c6 0 10 -3 14 -8
c7 -9 5 -23 -4 -30c-9 -8 -22 -7 -30 3c-4 6 -5 15 -2 23c2 7 13 24 40 38c22 11 48 10 48 10c51 0 64 -42 64 -105v-94s0 -32 23 -31c0 0 13 0 15 16z" />
    <glyph glyph-name="three.superior" horiz-adv-x="257" 
d="M217 469c1 -79 -64 -95 -104 -95c-39 0 -64 15 -74 27c-5 6 -5 17 -2 22c6 10 18 14 28 9s14 -18 9 -28c-3 -5 -6 -8 -10 -9c-3 0 12 -11 49 -11c45 0 74 20 69 79c-3 33 -22 72 -87 74v10c66 6 91 80 45 120c-34 29 -91 7 -95 -38l-12 1c2 74 80 74 87 74
c79 0 113 -119 22 -154c51 -9 75 -46 75 -81z" />
    <glyph glyph-name="o.superior" horiz-adv-x="306" 
d="M136 464c35 0 75 6 75 111c0 108 -42 118 -75 118s-74 -9 -74 -118c0 -105 42 -111 74 -111zM136 704c86 0 109 -61 109 -129c0 -66 -23 -122 -109 -122c-85 0 -108 57 -108 122c0 69 23 129 108 129z" />
    <glyph glyph-name="uni0218" unicode="&#x218;" horiz-adv-x="544" 
d="M226 -238l-5 6c72 49 58 107 42 110c-11 2 -22 5 -32 14c-18 18 -19 47 -1 65c19 19 48 19 66 0c28 -28 21 -89 -4 -131c-11 -19 -24 -42 -66 -64zM459 73c0 0 -41 -82 -193 -82c-147 0 -220 54 -220 54v192h10c5 -153 44 -235 210 -235c174 0 188 181 73 261l-171 113
c-72 50 -182 135 -108 259c0 0 49 78 179 78c132 0 214 -47 214 -47v-168h-12c-4 122 -32 204 -202 204c-108 0 -212 -143 -51 -247l171 -112c135 -89 141 -201 100 -270z" />
    <glyph glyph-name="uni0219" unicode="&#x219;" horiz-adv-x="417" 
d="M177 -238l-5 6c72 49 58 107 42 110c-11 2 -22 5 -32 14c-18 18 -19 47 -1 65c19 19 48 19 66 0c28 -28 21 -89 -4 -131c-11 -19 -24 -42 -66 -64zM338 38c0 0 -32 -47 -120 -47c-121 0 -172 37 -172 37v141h10c4 -80 25 -167 162 -167c123 0 97 115 21 165l-101 61
c-95 66 -115 116 -82 182c0 0 26 61 128 61c115 0 163 -32 163 -32v-127h-10c-4 70 -30 148 -153 148c-109 0 -106 -102 -19 -157l101 -63c91 -56 119 -135 72 -202z" />
    <glyph glyph-name="uni021A" unicode="&#x21a;" horiz-adv-x="627" 
d="M281 -238l-5 6c72 49 58 107 42 110c-11 2 -22 5 -32 14c-18 18 -19 47 -1 65c19 19 48 19 66 0c28 -28 21 -89 -4 -131c-11 -19 -24 -42 -66 -64zM19 704h589v-164h-11c-2 153 -146 154 -167 154h-79v-609c0 -65 24 -74 66 -74v-11h-208v11c42 0 66 9 66 74v609h-79
c-46 0 -165 -1 -167 -154h-10v164z" />
    <glyph glyph-name="uni021B" unicode="&#x21b;" horiz-adv-x="298" 
d="M133 -238l-5 6c72 49 58 107 42 110c-11 2 -22 5 -32 14c-18 18 -19 47 -1 65c19 19 48 19 66 0c28 -28 21 -89 -4 -131c-11 -19 -24 -42 -66 -64zM276 75l8 -4c-11 -42 -49 -80 -102 -80c-69 0 -113 32 -113 153v307h-50l-2 11h52v147l69 9v-156h118l-2 -11h-116v-304
c0 -91 31 -118 77 -118c29 0 53 22 61 46z" />
    </font>
</defs>
</svg>
